if (_typeface_js && _typeface_js.loadFace) _typeface_js.loadFace({"glyphs":{"0":{"ha":806,"x_min":50,"x_max":756,"o":"m 403 -25 q 136 110 222 -25 q 50 482 50 246 q 141 865 50 738 q 403 992 232 992 q 665 865 574 992 q 756 482 756 738 q 670 110 756 246 q 403 -25 584 -25 m 404 124 q 561 483 561 124 q 404 846 561 846 q 244 483 244 846 q 282 221 244 318 q 404 124 319 124 z "},"1":{"ha":435,"x_min":124,"x_max":311,"o":"m 124 906 l 311 993 l 311 0 l 124 0 l 124 906 z "},"2":{"ha":779,"x_min":54,"x_max":711,"o":"m 711 158 l 711 0 l 88 0 q 78 97 78 51 q 106 246 78 183 q 187 357 133 308 q 329 457 241 406 q 430 522 390 493 q 497 596 469 551 q 525 699 525 640 q 510 768 525 736 q 463 818 494 799 q 383 838 431 838 q 261 789 308 838 q 201 658 215 740 l 54 728 q 111 861 65 801 q 231 956 157 921 q 396 992 304 992 q 553 959 483 992 q 665 864 624 926 q 706 715 706 801 q 674 562 706 628 q 582 443 642 496 q 421 329 521 390 q 336 275 365 296 q 287 226 308 254 q 260 158 267 198 l 711 158 z "},"3":{"ha":757,"x_min":53,"x_max":703,"o":"m 343 -21 q 188 -1 261 -21 q 58 60 115 19 l 117 218 q 212 159 156 181 q 325 138 269 138 q 461 180 415 138 q 507 293 507 223 q 454 401 507 371 q 313 431 401 431 l 239 431 l 239 568 l 314 568 q 439 608 397 568 q 482 715 482 649 q 443 807 482 781 q 325 833 404 833 q 258 823 297 833 q 183 794 219 813 q 122 749 146 775 l 53 896 q 180 965 100 938 q 363 992 260 992 q 529 963 458 992 q 638 877 600 933 q 676 743 676 822 q 657 638 676 690 q 601 550 638 587 q 515 500 565 513 q 615 468 572 500 q 680 384 658 436 q 703 272 703 332 q 655 117 703 183 q 525 15 607 50 q 343 -21 443 -21 z "},"4":{"ha":849,"x_min":46,"x_max":813,"o":"m 813 175 l 696 175 l 696 0 l 514 0 l 514 175 l 56 175 l 46 190 l 403 968 l 696 968 l 696 310 l 813 310 l 813 175 m 293 310 l 522 310 l 528 869 l 372 482 l 293 310 z "},"5":{"ha":758,"x_min":63,"x_max":701,"o":"m 319 -18 q 180 -3 249 -18 q 63 44 110 13 l 114 200 q 196 152 144 172 q 296 133 247 133 q 400 145 353 133 q 481 198 447 158 q 514 314 514 238 q 489 409 514 369 q 417 472 465 450 q 303 494 369 494 q 190 480 249 494 q 106 450 131 465 l 124 968 l 660 968 l 660 821 l 282 821 l 268 614 q 331 627 299 623 q 401 631 363 631 q 565 594 498 631 q 667 491 633 558 q 701 332 701 424 q 653 146 701 225 q 519 24 606 67 q 319 -18 433 -18 z "},"6":{"ha":865,"x_min":81,"x_max":807,"o":"m 450 -21 q 268 27 351 -21 q 133 185 185 76 q 81 467 81 294 q 135 745 81 626 q 285 928 189 864 q 503 992 381 992 q 650 974 595 992 q 740 921 704 956 l 672 788 q 602 828 647 815 q 513 840 558 840 q 390 798 444 840 q 304 689 335 756 q 268 549 273 622 q 267 497 267 529 q 369 600 303 566 q 517 635 436 635 q 673 594 608 635 q 773 484 739 553 q 807 329 807 415 q 763 144 807 224 q 637 22 718 65 q 450 -21 556 -21 m 460 122 q 541 145 504 122 q 599 211 578 168 q 621 313 621 255 q 584 445 621 397 q 475 493 548 493 q 388 470 430 493 q 318 410 345 448 q 288 328 290 372 q 308 225 288 272 q 368 150 329 178 q 460 122 408 122 z "},"7":{"ha":732,"x_min":63,"x_max":697,"o":"m 697 968 l 385 0 l 186 0 l 465 804 l 63 804 l 63 968 l 697 968 z "},"8":{"ha":860,"x_min":65,"x_max":794,"o":"m 608 506 q 744 415 694 476 q 794 265 794 354 q 742 101 794 166 q 607 5 690 35 q 431 -25 524 -25 q 254 5 337 -25 q 118 101 171 35 q 65 265 65 166 q 115 414 65 353 q 251 506 164 475 q 144 595 181 537 q 107 740 107 654 q 153 884 107 827 q 272 966 199 940 q 432 992 346 992 q 590 966 517 992 q 708 884 663 940 q 753 740 753 827 q 714 597 753 656 q 608 506 676 538 m 433 864 q 293 728 293 864 q 331 611 293 653 q 433 569 368 569 q 533 611 498 569 q 568 728 568 653 q 535 830 568 797 q 433 864 503 864 m 431 115 q 552 153 510 115 q 593 268 593 192 q 546 394 593 354 q 431 433 499 433 q 313 394 361 433 q 265 268 265 354 q 307 153 265 192 q 431 115 349 115 z "},"9":{"ha":865,"x_min":81,"x_max":807,"o":"m 385 -21 q 238 -3 292 -21 q 147 50 183 15 l 215 189 q 285 149 241 161 q 375 136 330 136 q 501 173 446 136 q 588 274 556 209 q 624 422 620 339 q 625 474 625 442 q 521 370 590 405 q 371 336 452 336 q 214 378 280 336 q 115 491 149 420 q 81 647 81 562 q 127 830 81 752 q 255 950 173 908 q 444 992 338 992 q 618 943 535 992 q 753 785 700 894 q 807 504 807 676 q 753 226 807 345 q 603 43 699 107 q 385 -21 507 -21 m 417 478 q 503 500 462 478 q 571 561 544 523 q 600 643 597 599 q 581 745 600 699 q 526 820 563 792 q 440 849 490 849 q 356 827 395 849 q 291 763 316 805 q 267 664 267 721 q 305 529 267 580 q 417 478 344 478 z "},"\r":{"ha":0,"x_min":0,"x_max":0,"o":""}," ":{"ha":264,"x_min":0,"x_max":0,"o":""},"A":{"ha":788,"x_min":-24,"x_max":811,"o":"m 568 140 l 222 140 l 171 0 l -24 0 l 386 985 l 400 985 l 811 0 l 622 0 l 568 140 m 517 275 l 415 539 l 392 617 l 369 539 l 272 275 l 517 275 z "},"Á":{"ha":788,"x_min":-24,"x_max":811,"o":"m 568 140 l 222 140 l 171 0 l -24 0 l 386 985 l 400 985 l 811 0 l 622 0 l 568 140 m 517 275 l 415 539 l 392 617 l 369 539 l 272 275 l 517 275 m 449 1313 l 619 1313 l 446 1058 l 313 1058 l 449 1313 z "},"Ă":{"ha":788,"x_min":-24,"x_max":811,"o":"m 568 140 l 222 140 l 171 0 l -24 0 l 386 985 l 400 985 l 811 0 l 622 0 l 568 140 m 517 275 l 415 539 l 392 617 l 369 539 l 272 275 l 517 275 m 392 1058 q 269 1087 322 1058 q 188 1171 217 1115 q 158 1307 158 1227 l 285 1307 q 296 1239 286 1264 q 328 1201 306 1213 q 392 1189 351 1189 q 456 1202 433 1189 q 488 1240 479 1215 q 499 1307 497 1265 l 626 1307 q 597 1170 626 1226 q 514 1086 567 1114 q 392 1058 461 1058 z "},"Ắ":{"ha":788,"x_min":-24,"x_max":811,"o":"m 568 140 l 222 140 l 171 0 l -24 0 l 386 985 l 400 985 l 811 0 l 622 0 l 568 140 m 517 275 l 415 539 l 392 617 l 369 539 l 272 275 l 517 275 m 417 1514 l 565 1514 l 428 1319 l 311 1319 l 417 1514 m 392 1058 q 244 1113 297 1058 q 190 1274 190 1167 l 293 1274 q 317 1192 295 1217 q 392 1167 339 1167 q 466 1193 445 1167 q 489 1274 487 1219 l 593 1274 q 539 1113 593 1167 q 392 1058 485 1058 z "},"Ặ":{"ha":788,"x_min":-24,"x_max":811,"o":"m 568 140 l 222 140 l 171 0 l -24 0 l 386 985 l 400 985 l 811 0 l 622 0 l 568 140 m 517 275 l 415 539 l 392 617 l 369 539 l 272 275 l 517 275 m 307 -128 l 496 -128 l 496 -314 l 307 -314 l 307 -128 m 392 1058 q 269 1087 322 1058 q 188 1171 217 1115 q 158 1307 158 1227 l 285 1307 q 296 1239 286 1264 q 328 1201 306 1213 q 392 1189 351 1189 q 456 1202 433 1189 q 488 1240 479 1215 q 499 1307 497 1265 l 626 1307 q 597 1170 626 1226 q 514 1086 567 1114 q 392 1058 461 1058 z "},"Ằ":{"ha":788,"x_min":-24,"x_max":811,"o":"m 568 140 l 222 140 l 171 0 l -24 0 l 386 985 l 400 985 l 811 0 l 622 0 l 568 140 m 517 275 l 415 539 l 392 617 l 369 539 l 272 275 l 517 275 m 211 1514 l 360 1514 l 464 1319 l 349 1319 l 211 1514 m 392 1058 q 244 1113 297 1058 q 190 1274 190 1167 l 293 1274 q 317 1192 295 1217 q 392 1167 339 1167 q 466 1193 445 1167 q 489 1274 487 1219 l 593 1274 q 539 1113 593 1167 q 392 1058 485 1058 z "},"Ẳ":{"ha":788,"x_min":-24,"x_max":811,"o":"m 568 140 l 222 140 l 171 0 l -24 0 l 386 985 l 400 985 l 811 0 l 622 0 l 568 140 m 517 275 l 415 539 l 392 617 l 369 539 l 272 275 l 517 275 m 406 1311 q 366 1312 379 1311 q 338 1317 353 1313 l 319 1376 q 350 1374 336 1374 q 405 1386 383 1374 q 428 1428 428 1399 q 408 1461 428 1447 q 356 1475 388 1475 q 321 1469 338 1475 q 282 1451 304 1463 l 258 1522 q 313 1550 275 1536 q 388 1564 351 1564 q 459 1552 424 1564 q 518 1512 494 1540 q 542 1438 542 1484 q 525 1378 542 1407 q 478 1330 509 1349 q 406 1311 447 1311 m 392 1058 q 244 1113 297 1058 q 190 1274 190 1167 l 293 1274 q 317 1192 295 1217 q 392 1167 339 1167 q 466 1193 445 1167 q 489 1274 487 1219 l 593 1274 q 539 1113 593 1167 q 392 1058 485 1058 z "},"Ẵ":{"ha":788,"x_min":-24,"x_max":811,"o":"m 568 140 l 222 140 l 171 0 l -24 0 l 386 985 l 400 985 l 811 0 l 622 0 l 568 140 m 517 275 l 415 539 l 392 617 l 369 539 l 272 275 l 517 275 m 490 1343 q 432 1355 459 1343 q 379 1385 406 1366 q 344 1407 357 1401 q 321 1413 331 1413 q 276 1400 295 1413 q 251 1356 258 1388 l 182 1403 q 197 1459 182 1433 q 239 1500 212 1485 q 303 1515 267 1515 q 360 1505 335 1515 q 410 1476 385 1494 q 445 1456 429 1463 q 476 1449 460 1449 q 507 1451 497 1449 q 525 1465 518 1453 q 532 1501 531 1476 l 601 1453 q 588 1398 601 1423 q 550 1358 575 1373 q 490 1343 524 1343 m 392 1058 q 244 1113 297 1058 q 190 1274 190 1167 l 293 1274 q 317 1192 295 1217 q 392 1167 339 1167 q 466 1193 445 1167 q 489 1274 487 1219 l 593 1274 q 539 1113 593 1167 q 392 1058 485 1058 z "},"Ǎ":{"ha":788,"x_min":-24,"x_max":811,"o":"m 568 140 l 222 140 l 171 0 l -24 0 l 386 985 l 400 985 l 811 0 l 622 0 l 568 140 m 517 275 l 415 539 l 392 617 l 369 539 l 272 275 l 517 275 m 647 1313 l 435 1058 l 349 1058 l 131 1313 l 269 1313 l 392 1195 l 507 1313 l 647 1313 z "},"Â":{"ha":788,"x_min":-24,"x_max":811,"o":"m 568 140 l 222 140 l 171 0 l -24 0 l 386 985 l 400 985 l 811 0 l 622 0 l 568 140 m 517 275 l 415 539 l 392 617 l 369 539 l 272 275 l 517 275 m 507 1058 l 392 1176 l 269 1058 l 131 1058 l 349 1313 l 435 1313 l 647 1058 l 507 1058 z "},"Ấ":{"ha":788,"x_min":-24,"x_max":811,"o":"m 568 140 l 222 140 l 171 0 l -24 0 l 386 985 l 400 985 l 811 0 l 622 0 l 568 140 m 517 275 l 415 539 l 392 617 l 369 539 l 272 275 l 517 275 m 760 1499 l 622 1304 l 506 1304 l 611 1499 l 760 1499 m 429 1283 l 604 1058 l 481 1058 l 392 1154 l 300 1058 l 176 1058 l 353 1283 l 429 1283 z "},"Ậ":{"ha":788,"x_min":-24,"x_max":811,"o":"m 568 140 l 222 140 l 171 0 l -24 0 l 386 985 l 400 985 l 811 0 l 622 0 l 568 140 m 517 275 l 415 539 l 392 617 l 369 539 l 272 275 l 517 275 m 307 -128 l 496 -128 l 496 -314 l 307 -314 l 307 -128 m 507 1058 l 392 1176 l 269 1058 l 131 1058 l 349 1313 l 435 1313 l 647 1058 l 507 1058 z "},"Ầ":{"ha":788,"x_min":-24,"x_max":811,"o":"m 568 140 l 222 140 l 171 0 l -24 0 l 386 985 l 400 985 l 811 0 l 622 0 l 568 140 m 517 275 l 415 539 l 392 617 l 369 539 l 272 275 l 517 275 m 551 1304 l 414 1499 l 563 1499 l 667 1304 l 551 1304 m 429 1283 l 606 1058 l 482 1058 l 392 1154 l 300 1058 l 178 1058 l 353 1283 l 429 1283 z "},"Ẩ":{"ha":788,"x_min":-24,"x_max":811,"o":"m 568 140 l 222 140 l 171 0 l -24 0 l 386 985 l 400 985 l 811 0 l 622 0 l 568 140 m 517 275 l 415 539 l 392 617 l 369 539 l 272 275 l 517 275 m 407 1357 q 359 1358 375 1357 q 324 1365 344 1360 l 300 1439 q 342 1435 319 1435 q 408 1450 381 1435 q 435 1501 435 1465 q 424 1531 435 1517 q 393 1554 413 1545 q 347 1563 373 1563 q 305 1556 326 1563 q 254 1533 284 1549 l 225 1619 q 262 1642 236 1630 q 321 1664 288 1655 q 386 1672 354 1672 q 474 1658 431 1672 q 548 1608 517 1643 q 578 1514 578 1572 q 557 1440 578 1476 q 498 1380 537 1403 q 407 1357 459 1357 m 507 1058 l 392 1176 l 269 1058 l 131 1058 l 349 1313 l 435 1313 l 647 1058 l 507 1058 z "},"Ẫ":{"ha":788,"x_min":-24,"x_max":811,"o":"m 568 140 l 222 140 l 171 0 l -24 0 l 386 985 l 400 985 l 811 0 l 622 0 l 568 140 m 517 275 l 415 539 l 392 617 l 369 539 l 272 275 l 517 275 m 321 1392 q 276 1380 295 1392 q 251 1335 258 1367 l 182 1382 q 197 1438 182 1413 q 239 1479 212 1464 q 303 1494 267 1494 q 360 1484 335 1494 q 410 1456 385 1474 q 445 1435 429 1442 q 476 1428 460 1428 q 507 1430 497 1428 q 525 1444 518 1433 q 532 1481 531 1456 l 601 1432 q 588 1377 601 1402 q 550 1337 575 1352 q 490 1322 524 1322 q 432 1334 459 1322 q 379 1364 406 1345 q 344 1386 357 1381 q 321 1392 331 1392 m 482 1058 l 392 1154 l 300 1058 l 178 1058 l 353 1283 l 429 1283 l 606 1058 l 482 1058 z "},"Ȁ":{"ha":788,"x_min":-24,"x_max":811,"o":"m 568 140 l 222 140 l 171 0 l -24 0 l 386 985 l 400 985 l 811 0 l 622 0 l 568 140 m 517 275 l 415 539 l 392 617 l 369 539 l 272 275 l 517 275 m 31 1313 l 183 1313 l 331 1058 l 210 1058 l 31 1313 m 324 1313 l 475 1313 l 621 1058 l 500 1058 l 324 1313 z "},"Ä":{"ha":788,"x_min":-24,"x_max":811,"o":"m 568 140 l 222 140 l 171 0 l -24 0 l 386 985 l 400 985 l 811 0 l 622 0 l 568 140 m 517 275 l 415 539 l 392 617 l 369 539 l 272 275 l 517 275 m 161 1243 l 344 1243 l 344 1058 l 161 1058 l 161 1243 m 439 1243 l 622 1243 l 622 1058 l 439 1058 l 439 1243 z "},"Ạ":{"ha":788,"x_min":-24,"x_max":811,"o":"m 568 140 l 222 140 l 171 0 l -24 0 l 386 985 l 400 985 l 811 0 l 622 0 l 568 140 m 517 275 l 415 539 l 392 617 l 369 539 l 272 275 l 517 275 m 307 -128 l 496 -128 l 496 -314 l 307 -314 l 307 -128 z "},"À":{"ha":788,"x_min":-24,"x_max":811,"o":"m 568 140 l 222 140 l 171 0 l -24 0 l 386 985 l 400 985 l 811 0 l 622 0 l 568 140 m 517 275 l 415 539 l 392 617 l 369 539 l 272 275 l 517 275 m 178 1313 l 349 1313 l 485 1058 l 351 1058 l 178 1313 z "},"Ả":{"ha":788,"x_min":-24,"x_max":811,"o":"m 568 140 l 222 140 l 171 0 l -24 0 l 386 985 l 400 985 l 811 0 l 622 0 l 568 140 m 517 275 l 415 539 l 392 617 l 369 539 l 272 275 l 517 275 m 407 1058 q 359 1060 375 1058 q 324 1067 344 1061 l 300 1140 q 342 1136 319 1136 q 408 1151 381 1136 q 435 1203 435 1167 q 424 1232 435 1218 q 393 1255 413 1247 q 347 1264 373 1264 q 305 1257 326 1264 q 254 1235 284 1250 l 225 1321 q 262 1344 236 1331 q 321 1365 288 1356 q 386 1374 354 1374 q 474 1359 431 1374 q 548 1309 517 1344 q 578 1215 578 1274 q 557 1141 578 1178 q 498 1082 537 1105 q 407 1058 459 1058 z "},"Ȃ":{"ha":788,"x_min":-24,"x_max":811,"o":"m 568 140 l 222 140 l 171 0 l -24 0 l 386 985 l 400 985 l 811 0 l 622 0 l 568 140 m 517 275 l 415 539 l 392 617 l 369 539 l 272 275 l 517 275 m 158 1058 q 188 1194 158 1138 q 269 1278 217 1250 q 392 1307 322 1307 q 514 1279 461 1307 q 597 1195 567 1251 q 626 1058 626 1140 l 499 1058 q 488 1125 497 1100 q 456 1164 479 1151 q 392 1176 433 1176 q 328 1164 351 1176 q 296 1127 306 1152 q 285 1058 286 1101 l 158 1058 z "},"Ā":{"ha":788,"x_min":-24,"x_max":811,"o":"m 568 140 l 222 140 l 171 0 l -24 0 l 386 985 l 400 985 l 811 0 l 622 0 l 568 140 m 517 275 l 415 539 l 392 617 l 369 539 l 272 275 l 517 275 m 200 1218 l 583 1218 l 583 1092 l 200 1092 l 200 1218 z "},"Ą":{"ha":814,"x_min":-24,"x_max":813,"o":"m 632 -140 q 718 -207 632 -207 q 813 -186 769 -207 l 813 -312 q 696 -333 767 -333 q 489 -178 489 -333 q 522 -74 489 -122 q 631 0 554 -26 l 622 0 l 568 140 l 222 140 l 171 0 l -24 0 l 386 985 l 400 985 l 810 1 l 813 0 q 722 -34 763 -12 q 656 -83 681 -56 q 632 -140 632 -111 m 517 275 l 415 539 l 392 617 l 369 539 l 272 275 l 517 275 z "},"Å":{"ha":814,"x_min":-24,"x_max":811,"o":"m 568 140 l 222 140 l 171 0 l -24 0 l 366 937 q 292 971 325 947 q 241 1033 260 996 q 222 1114 222 1070 q 248 1208 222 1167 q 317 1273 274 1250 q 413 1296 361 1296 q 507 1272 464 1296 q 577 1207 551 1249 q 603 1114 603 1165 q 578 1023 603 1063 q 513 958 554 982 q 422 932 472 934 l 811 0 l 622 0 l 568 140 m 324 1115 q 349 1045 324 1069 q 413 1021 374 1021 q 476 1045 451 1021 q 501 1115 501 1069 q 476 1185 501 1163 q 413 1208 451 1208 q 349 1186 374 1208 q 324 1115 324 1163 m 517 275 l 415 539 l 392 617 l 369 539 l 272 275 l 517 275 z "},"Ǻ":{"ha":814,"x_min":-24,"x_max":811,"o":"m 568 140 l 222 140 l 171 0 l -24 0 l 368 941 q 293 975 326 950 q 241 1036 260 999 q 222 1118 222 1074 q 246 1208 222 1168 q 311 1272 270 1248 q 400 1298 351 1295 l 467 1433 l 607 1433 l 504 1277 q 577 1212 549 1254 q 604 1118 604 1169 q 579 1026 604 1067 q 512 961 554 985 q 420 936 469 938 l 811 0 l 622 0 l 568 140 m 324 1118 q 350 1048 324 1073 q 413 1024 376 1024 q 477 1048 451 1024 q 503 1118 503 1073 q 477 1189 503 1166 q 413 1213 451 1213 q 349 1189 374 1213 q 324 1118 324 1166 m 517 275 l 415 539 l 392 617 l 369 539 l 272 275 l 517 275 z "},"Ã":{"ha":788,"x_min":-24,"x_max":811,"o":"m 568 140 l 222 140 l 171 0 l -24 0 l 386 985 l 400 985 l 811 0 l 622 0 l 568 140 m 517 275 l 415 539 l 392 617 l 369 539 l 272 275 l 517 275 m 482 1063 q 419 1074 443 1063 q 371 1107 395 1085 q 338 1132 353 1124 q 301 1140 322 1140 q 256 1124 278 1140 q 221 1074 233 1107 l 149 1131 q 212 1223 172 1187 q 303 1258 253 1258 q 368 1247 344 1258 q 414 1214 393 1235 q 445 1191 429 1199 q 483 1183 460 1183 q 530 1202 509 1183 q 557 1256 550 1221 l 635 1196 q 609 1132 631 1163 q 554 1082 588 1101 q 482 1063 521 1063 z "},"Æ":{"ha":1165,"x_min":7,"x_max":1108,"o":"m 1108 153 l 1108 0 l 575 0 l 575 218 l 317 218 l 204 0 l 7 0 l 547 968 l 1081 968 l 1081 821 l 744 821 l 744 590 l 1013 590 l 1013 443 l 744 443 l 744 153 l 1108 153 m 575 347 l 575 741 l 500 575 l 383 347 l 575 347 z "},"Ǽ":{"ha":1165,"x_min":7,"x_max":1108,"o":"m 1108 153 l 1108 0 l 575 0 l 575 218 l 317 218 l 204 0 l 7 0 l 547 968 l 1081 968 l 1081 821 l 744 821 l 744 590 l 1013 590 l 1013 443 l 744 443 l 744 153 l 1108 153 m 575 347 l 575 741 l 500 575 l 383 347 l 575 347 m 804 1313 l 975 1313 l 801 1058 l 668 1058 l 804 1313 z "},"B":{"ha":789,"x_min":117,"x_max":750,"o":"m 588 513 q 710 433 669 493 q 750 279 750 373 q 659 73 750 146 q 379 0 569 0 l 117 0 l 117 968 l 375 968 q 701 710 701 968 q 673 594 701 649 q 588 513 644 540 m 529 704 q 486 802 529 774 q 375 831 443 831 l 292 831 l 292 563 l 404 563 q 476 584 449 563 q 517 638 504 606 q 529 704 529 670 m 399 140 q 520 172 474 140 q 567 289 567 203 q 518 404 567 374 q 390 433 470 433 l 292 433 l 292 140 l 399 140 z "},"C":{"ha":732,"x_min":51,"x_max":710,"o":"m 444 -17 q 250 40 340 -17 q 106 213 160 97 q 51 497 51 328 q 106 761 51 651 q 252 928 160 871 q 460 985 345 985 q 578 971 530 985 q 655 940 627 958 q 708 899 683 922 l 631 753 q 588 793 606 779 q 540 816 569 808 q 467 825 511 825 q 347 784 397 825 q 271 672 297 744 q 244 507 244 600 q 272 308 244 390 q 346 183 299 225 q 451 142 393 142 q 561 159 513 142 q 633 203 608 176 l 710 65 q 607 7 667 31 q 444 -17 547 -17 z "},"Ć":{"ha":732,"x_min":51,"x_max":710,"o":"m 444 -17 q 250 40 340 -17 q 106 213 160 97 q 51 497 51 328 q 106 761 51 651 q 252 928 160 871 q 460 985 345 985 q 578 971 530 985 q 655 940 627 958 q 708 899 683 922 l 631 753 q 588 793 606 779 q 540 816 569 808 q 467 825 511 825 q 347 784 397 825 q 271 672 297 744 q 244 507 244 600 q 272 308 244 390 q 346 183 299 225 q 451 142 393 142 q 561 159 513 142 q 633 203 608 176 l 710 65 q 607 7 667 31 q 444 -17 547 -17 m 500 1313 l 671 1313 l 497 1058 l 364 1058 l 500 1313 z "},"Č":{"ha":732,"x_min":51,"x_max":710,"o":"m 444 -17 q 250 40 340 -17 q 106 213 160 97 q 51 497 51 328 q 106 761 51 651 q 252 928 160 871 q 460 985 345 985 q 578 971 530 985 q 655 940 627 958 q 708 899 683 922 l 631 753 q 588 793 606 779 q 540 816 569 808 q 467 825 511 825 q 347 784 397 825 q 271 672 297 744 q 244 507 244 600 q 272 308 244 390 q 346 183 299 225 q 451 142 393 142 q 561 159 513 142 q 633 203 608 176 l 710 65 q 607 7 667 31 q 444 -17 547 -17 m 699 1313 l 486 1058 l 400 1058 l 182 1313 l 321 1313 l 444 1195 l 558 1313 l 699 1313 z "},"Ç":{"ha":732,"x_min":51,"x_max":710,"o":"m 457 -79 q 530 -99 497 -79 q 582 -150 563 -118 q 601 -218 601 -182 q 542 -343 601 -310 q 383 -376 483 -376 q 307 -359 345 -376 q 249 -324 268 -342 l 278 -237 q 330 -260 307 -253 q 375 -267 353 -267 q 435 -248 412 -267 q 458 -204 458 -229 q 432 -154 458 -169 q 365 -139 405 -139 q 342 -141 354 -139 q 324 -143 329 -142 l 353 -5 q 199 80 267 17 q 91 248 131 142 q 51 497 51 353 q 106 761 51 651 q 252 928 160 871 q 460 985 345 985 q 578 971 530 985 q 655 940 627 958 q 708 899 683 922 l 631 753 q 588 793 606 779 q 540 816 569 808 q 467 825 511 825 q 347 784 397 825 q 271 672 297 744 q 244 507 244 600 q 272 308 244 390 q 346 183 299 225 q 451 142 393 142 q 561 159 513 142 q 633 203 608 176 l 710 65 q 617 10 671 33 q 474 -16 563 -12 l 457 -79 z "},"Ḉ":{"ha":732,"x_min":51,"x_max":710,"o":"m 497 1058 l 364 1058 l 500 1313 l 671 1313 l 497 1058 m 457 -79 q 530 -99 497 -79 q 582 -150 563 -118 q 601 -218 601 -182 q 542 -343 601 -310 q 383 -376 483 -376 q 307 -359 345 -376 q 249 -324 268 -342 l 278 -237 q 330 -260 307 -253 q 375 -267 353 -267 q 435 -248 412 -267 q 458 -204 458 -229 q 432 -154 458 -169 q 365 -139 405 -139 q 342 -141 354 -139 q 324 -143 329 -142 l 353 -5 q 199 80 267 17 q 91 248 131 142 q 51 497 51 353 q 106 761 51 651 q 252 928 160 871 q 460 985 345 985 q 578 971 530 985 q 655 940 627 958 q 708 899 683 922 l 631 753 q 588 793 606 779 q 540 816 569 808 q 467 825 511 825 q 347 784 397 825 q 271 672 297 744 q 244 507 244 600 q 272 308 244 390 q 346 183 299 225 q 451 142 393 142 q 561 159 513 142 q 633 203 608 176 l 710 65 q 617 10 671 33 q 474 -16 563 -12 l 457 -79 z "},"Ĉ":{"ha":732,"x_min":51,"x_max":710,"o":"m 444 -17 q 250 40 340 -17 q 106 213 160 97 q 51 497 51 328 q 106 761 51 651 q 252 928 160 871 q 460 985 345 985 q 578 971 530 985 q 655 940 627 958 q 708 899 683 922 l 631 753 q 588 793 606 779 q 540 816 569 808 q 467 825 511 825 q 347 784 397 825 q 271 672 297 744 q 244 507 244 600 q 272 308 244 390 q 346 183 299 225 q 451 142 393 142 q 561 159 513 142 q 633 203 608 176 l 710 65 q 607 7 667 31 q 444 -17 547 -17 m 558 1058 l 444 1176 l 321 1058 l 182 1058 l 400 1313 l 486 1313 l 699 1058 l 558 1058 z "},"Ċ":{"ha":732,"x_min":51,"x_max":710,"o":"m 444 -17 q 250 40 340 -17 q 106 213 160 97 q 51 497 51 328 q 106 761 51 651 q 252 928 160 871 q 460 985 345 985 q 578 971 530 985 q 655 940 627 958 q 708 899 683 922 l 631 753 q 588 793 606 779 q 540 816 569 808 q 467 825 511 825 q 347 784 397 825 q 271 672 297 744 q 244 507 244 600 q 272 308 244 390 q 346 183 299 225 q 451 142 393 142 q 561 159 513 142 q 633 203 608 176 l 710 65 q 607 7 667 31 q 444 -17 547 -17 m 349 1244 l 538 1244 l 538 1058 l 349 1058 l 349 1244 z "},"D":{"ha":843,"x_min":113,"x_max":801,"o":"m 363 968 q 688 849 575 968 q 801 496 801 730 q 750 232 801 344 q 600 60 699 121 q 361 0 501 0 l 113 0 l 113 968 l 363 968 m 357 153 q 512 200 453 153 q 596 323 571 247 q 621 492 621 399 q 559 734 621 639 q 357 829 497 829 l 292 829 l 292 153 l 357 153 z "},"Ǳ":{"ha":1557,"x_min":113,"x_max":1518,"o":"m 363 968 q 688 849 575 968 q 801 496 801 730 q 750 232 801 344 q 600 60 699 121 q 361 0 501 0 l 113 0 l 113 968 l 363 968 m 357 153 q 512 200 453 153 q 596 323 571 247 q 621 492 621 399 q 559 734 621 639 q 357 829 497 829 l 292 829 l 292 153 l 357 153 m 1138 150 l 1500 150 l 1500 0 l 871 0 l 1256 818 l 917 818 l 917 968 l 1518 968 l 1138 150 z "},"Ǆ":{"ha":1557,"x_min":113,"x_max":1518,"o":"m 363 968 q 688 849 575 968 q 801 496 801 730 q 750 232 801 344 q 600 60 699 121 q 361 0 501 0 l 113 0 l 113 968 l 363 968 m 357 153 q 512 200 453 153 q 596 323 571 247 q 621 492 621 399 q 559 734 621 639 q 357 829 497 829 l 292 829 l 292 153 l 357 153 m 1138 150 l 1500 150 l 1500 0 l 871 0 l 1256 818 l 917 818 l 917 968 l 1518 968 l 1138 150 m 1474 1313 l 1261 1058 l 1175 1058 l 957 1313 l 1096 1313 l 1219 1195 l 1333 1313 l 1474 1313 z "},"Ð":{"ha":843,"x_min":29,"x_max":801,"o":"m 363 968 q 688 849 575 968 q 801 496 801 730 q 750 232 801 344 q 600 60 699 121 q 361 0 501 0 l 113 0 l 113 439 l 29 439 l 29 557 l 113 557 l 113 968 l 363 968 m 357 153 q 512 200 453 153 q 596 323 571 247 q 621 492 621 399 q 559 734 621 639 q 357 829 497 829 l 292 829 l 292 557 l 469 557 l 469 439 l 292 439 l 292 153 l 357 153 z "},"Ď":{"ha":843,"x_min":113,"x_max":801,"o":"m 363 968 q 688 849 575 968 q 801 496 801 730 q 750 232 801 344 q 600 60 699 121 q 361 0 501 0 l 113 0 l 113 968 l 363 968 m 357 153 q 512 200 453 153 q 596 323 571 247 q 621 492 621 399 q 559 734 621 639 q 357 829 497 829 l 292 829 l 292 153 l 357 153 m 704 1313 l 492 1058 l 406 1058 l 188 1313 l 326 1313 l 449 1195 l 564 1313 l 704 1313 z "},"Đ":{"ha":843,"x_min":29,"x_max":801,"o":"m 363 968 q 688 849 575 968 q 801 496 801 730 q 750 232 801 344 q 600 60 699 121 q 361 0 501 0 l 113 0 l 113 439 l 29 439 l 29 557 l 113 557 l 113 968 l 363 968 m 357 153 q 512 200 453 153 q 596 323 571 247 q 621 492 621 399 q 559 734 621 639 q 357 829 497 829 l 292 829 l 292 557 l 469 557 l 469 439 l 292 439 l 292 153 l 357 153 z "},"Ḍ":{"ha":843,"x_min":113,"x_max":801,"o":"m 363 968 q 688 849 575 968 q 801 496 801 730 q 750 232 801 344 q 600 60 699 121 q 361 0 501 0 l 113 0 l 113 968 l 363 968 m 357 153 q 512 200 453 153 q 596 323 571 247 q 621 492 621 399 q 559 734 621 639 q 357 829 497 829 l 292 829 l 292 153 l 357 153 m 310 -118 l 499 -118 l 499 -304 l 310 -304 l 310 -118 z "},"Ḏ":{"ha":843,"x_min":113,"x_max":801,"o":"m 363 968 q 688 849 575 968 q 801 496 801 730 q 750 232 801 344 q 600 60 699 121 q 361 0 501 0 l 113 0 l 113 968 l 363 968 m 357 153 q 512 200 453 153 q 596 323 571 247 q 621 492 621 399 q 559 734 621 639 q 357 829 497 829 l 292 829 l 292 153 l 357 153 m 213 -128 l 596 -128 l 596 -254 l 213 -254 l 213 -128 z "},"ǲ":{"ha":1460,"x_min":113,"x_max":1442,"o":"m 363 968 q 688 849 575 968 q 801 496 801 730 q 750 232 801 344 q 600 60 699 121 q 361 0 501 0 l 113 0 l 113 968 l 363 968 m 357 153 q 512 200 453 153 q 596 323 571 247 q 621 492 621 399 q 559 734 621 639 q 357 829 497 829 l 292 829 l 292 153 l 357 153 m 1129 126 l 1414 126 l 1414 0 l 861 0 l 1174 560 l 919 560 l 919 692 l 1442 692 l 1129 126 z "},"ǅ":{"ha":1460,"x_min":113,"x_max":1442,"o":"m 363 968 q 688 849 575 968 q 801 496 801 730 q 750 232 801 344 q 600 60 699 121 q 361 0 501 0 l 113 0 l 113 968 l 363 968 m 357 153 q 512 200 453 153 q 596 323 571 247 q 621 492 621 399 q 559 734 621 639 q 357 829 497 829 l 292 829 l 292 153 l 357 153 m 1129 126 l 1414 126 l 1414 0 l 861 0 l 1174 560 l 919 560 l 919 692 l 1442 692 l 1129 126 m 1422 1085 l 1224 804 l 1138 804 l 939 1085 l 1078 1085 l 1181 951 l 1282 1085 l 1422 1085 z "},"E":{"ha":703,"x_min":113,"x_max":646,"o":"m 646 157 l 646 0 l 113 0 l 113 968 l 618 968 l 618 817 l 286 817 l 286 590 l 550 590 l 550 443 l 286 443 l 286 157 l 646 157 z "},"É":{"ha":703,"x_min":113,"x_max":646,"o":"m 646 157 l 646 0 l 113 0 l 113 968 l 618 968 l 618 817 l 286 817 l 286 590 l 550 590 l 550 443 l 286 443 l 286 157 l 646 157 m 433 1313 l 604 1313 l 431 1058 l 297 1058 l 433 1313 z "},"Ĕ":{"ha":703,"x_min":113,"x_max":646,"o":"m 646 157 l 646 0 l 113 0 l 113 968 l 618 968 l 618 817 l 286 817 l 286 590 l 550 590 l 550 443 l 286 443 l 286 157 l 646 157 m 376 1058 q 254 1087 307 1058 q 172 1171 201 1115 q 143 1307 143 1227 l 269 1307 q 281 1239 271 1264 q 313 1201 290 1213 q 376 1189 336 1189 q 441 1202 418 1189 q 473 1240 464 1215 q 483 1307 482 1265 l 611 1307 q 581 1170 611 1226 q 499 1086 551 1114 q 376 1058 446 1058 z "},"Ě":{"ha":703,"x_min":113,"x_max":646,"o":"m 646 157 l 646 0 l 113 0 l 113 968 l 618 968 l 618 817 l 286 817 l 286 590 l 550 590 l 550 443 l 286 443 l 286 157 l 646 157 m 632 1313 l 419 1058 l 333 1058 l 115 1313 l 254 1313 l 377 1195 l 492 1313 l 632 1313 z "},"Ḝ":{"ha":703,"x_min":113,"x_max":646,"o":"m 376 1058 q 254 1087 307 1058 q 172 1171 201 1115 q 143 1307 143 1227 l 269 1307 q 281 1239 271 1264 q 313 1201 290 1213 q 376 1189 336 1189 q 441 1202 418 1189 q 473 1240 464 1215 q 483 1307 482 1265 l 611 1307 q 581 1170 611 1226 q 499 1086 551 1114 q 376 1058 446 1058 m 428 0 l 407 -79 q 480 -99 447 -79 q 532 -150 513 -118 q 551 -218 551 -182 q 492 -343 551 -310 q 333 -376 433 -376 q 257 -359 295 -376 q 199 -324 218 -342 l 228 -237 q 280 -260 257 -253 q 325 -267 303 -267 q 385 -248 362 -267 q 408 -204 408 -229 q 382 -154 408 -169 q 315 -139 355 -139 q 292 -141 304 -139 q 274 -143 279 -142 l 303 0 l 113 0 l 113 968 l 618 968 l 618 817 l 286 817 l 286 590 l 550 590 l 550 443 l 286 443 l 286 157 l 646 157 l 646 0 l 428 0 z "},"Ê":{"ha":703,"x_min":113,"x_max":646,"o":"m 646 157 l 646 0 l 113 0 l 113 968 l 618 968 l 618 817 l 286 817 l 286 590 l 550 590 l 550 443 l 286 443 l 286 157 l 646 157 m 492 1058 l 377 1176 l 254 1058 l 115 1058 l 333 1313 l 419 1313 l 632 1058 l 492 1058 z "},"Ế":{"ha":703,"x_min":113,"x_max":744,"o":"m 646 157 l 646 0 l 113 0 l 113 968 l 618 968 l 618 817 l 286 817 l 286 590 l 550 590 l 550 443 l 286 443 l 286 157 l 646 157 m 744 1499 l 607 1304 l 490 1304 l 596 1499 l 744 1499 m 414 1283 l 589 1058 l 465 1058 l 376 1154 l 285 1058 l 161 1058 l 338 1283 l 414 1283 z "},"Ệ":{"ha":703,"x_min":113,"x_max":646,"o":"m 646 157 l 646 0 l 113 0 l 113 968 l 618 968 l 618 817 l 286 817 l 286 590 l 550 590 l 550 443 l 286 443 l 286 157 l 646 157 m 271 -128 l 460 -128 l 460 -314 l 271 -314 l 271 -128 m 492 1058 l 377 1176 l 254 1058 l 115 1058 l 333 1313 l 419 1313 l 632 1058 l 492 1058 z "},"Ề":{"ha":703,"x_min":113,"x_max":651,"o":"m 646 157 l 646 0 l 113 0 l 113 968 l 618 968 l 618 817 l 286 817 l 286 590 l 550 590 l 550 443 l 286 443 l 286 157 l 646 157 m 536 1304 l 399 1499 l 547 1499 l 651 1304 l 536 1304 m 414 1283 l 590 1058 l 467 1058 l 376 1154 l 285 1058 l 163 1058 l 338 1283 l 414 1283 z "},"Ể":{"ha":703,"x_min":113,"x_max":646,"o":"m 646 157 l 646 0 l 113 0 l 113 968 l 618 968 l 618 817 l 286 817 l 286 590 l 550 590 l 550 443 l 286 443 l 286 157 l 646 157 m 336 1528 q 298 1521 317 1528 q 253 1501 278 1515 l 226 1581 q 288 1612 244 1596 q 372 1628 331 1628 q 452 1615 413 1628 q 519 1569 492 1601 q 546 1485 546 1537 q 527 1418 546 1451 q 474 1364 509 1385 q 392 1343 438 1343 l 354 1343 q 315 1347 331 1343 l 294 1417 q 331 1414 317 1414 q 392 1427 367 1414 q 417 1474 417 1440 q 394 1512 417 1496 q 336 1528 372 1528 m 467 1058 l 376 1154 l 285 1058 l 163 1058 l 338 1283 l 414 1283 l 590 1058 l 467 1058 z "},"Ễ":{"ha":703,"x_min":113,"x_max":646,"o":"m 646 157 l 646 0 l 113 0 l 113 968 l 618 968 l 618 817 l 286 817 l 286 590 l 550 590 l 550 443 l 286 443 l 286 157 l 646 157 m 306 1392 q 261 1380 280 1392 q 236 1335 242 1367 l 167 1382 q 182 1438 167 1413 q 224 1479 197 1464 q 288 1494 251 1494 q 345 1484 319 1494 q 394 1456 370 1474 q 430 1435 414 1442 q 461 1428 445 1428 q 492 1430 481 1428 q 509 1444 503 1433 q 517 1481 516 1456 l 586 1432 q 573 1377 586 1402 q 534 1337 560 1352 q 475 1322 509 1322 q 417 1334 444 1322 q 364 1364 390 1345 q 329 1386 342 1381 q 306 1392 316 1392 m 467 1058 l 376 1154 l 285 1058 l 163 1058 l 338 1283 l 414 1283 l 590 1058 l 467 1058 z "},"Ȅ":{"ha":703,"x_min":15,"x_max":646,"o":"m 646 157 l 646 0 l 113 0 l 113 968 l 618 968 l 618 817 l 286 817 l 286 590 l 550 590 l 550 443 l 286 443 l 286 157 l 646 157 m 15 1313 l 168 1313 l 315 1058 l 194 1058 l 15 1313 m 308 1313 l 460 1313 l 606 1058 l 485 1058 l 308 1313 z "},"Ë":{"ha":703,"x_min":113,"x_max":646,"o":"m 646 157 l 646 0 l 113 0 l 113 968 l 618 968 l 618 817 l 286 817 l 286 590 l 550 590 l 550 443 l 286 443 l 286 157 l 646 157 m 146 1243 l 329 1243 l 329 1058 l 146 1058 l 146 1243 m 424 1243 l 607 1243 l 607 1058 l 424 1058 l 424 1243 z "},"Ė":{"ha":703,"x_min":113,"x_max":646,"o":"m 646 157 l 646 0 l 113 0 l 113 968 l 618 968 l 618 817 l 286 817 l 286 590 l 550 590 l 550 443 l 286 443 l 286 157 l 646 157 m 282 1244 l 471 1244 l 471 1058 l 282 1058 l 282 1244 z "},"Ẹ":{"ha":703,"x_min":113,"x_max":646,"o":"m 646 157 l 646 0 l 113 0 l 113 968 l 618 968 l 618 817 l 286 817 l 286 590 l 550 590 l 550 443 l 286 443 l 286 157 l 646 157 m 271 -128 l 460 -128 l 460 -314 l 271 -314 l 271 -128 z "},"È":{"ha":703,"x_min":113,"x_max":646,"o":"m 646 157 l 646 0 l 113 0 l 113 968 l 618 968 l 618 817 l 286 817 l 286 590 l 550 590 l 550 443 l 286 443 l 286 157 l 646 157 m 163 1313 l 333 1313 l 469 1058 l 336 1058 l 163 1313 z "},"Ẻ":{"ha":703,"x_min":113,"x_max":646,"o":"m 646 157 l 646 0 l 113 0 l 113 968 l 618 968 l 618 817 l 286 817 l 286 590 l 550 590 l 550 443 l 286 443 l 286 157 l 646 157 m 392 1058 q 344 1060 360 1058 q 308 1067 328 1061 l 285 1140 q 326 1136 303 1136 q 392 1151 365 1136 q 419 1203 419 1167 q 409 1232 419 1218 q 378 1255 398 1247 q 332 1264 358 1264 q 290 1257 311 1264 q 239 1235 269 1250 l 210 1321 q 247 1344 221 1331 q 306 1365 273 1356 q 371 1374 339 1374 q 459 1359 415 1374 q 532 1309 502 1344 q 563 1215 563 1274 q 542 1141 563 1178 q 483 1082 522 1105 q 392 1058 444 1058 z "},"Ȇ":{"ha":703,"x_min":113,"x_max":646,"o":"m 646 157 l 646 0 l 113 0 l 113 968 l 618 968 l 618 817 l 286 817 l 286 590 l 550 590 l 550 443 l 286 443 l 286 157 l 646 157 m 143 1058 q 172 1194 143 1138 q 254 1278 201 1250 q 376 1307 307 1307 q 499 1279 446 1307 q 581 1195 551 1251 q 611 1058 611 1140 l 483 1058 q 473 1125 482 1100 q 441 1164 464 1151 q 376 1176 418 1176 q 313 1164 336 1176 q 281 1127 290 1152 q 269 1058 271 1101 l 143 1058 z "},"Ē":{"ha":703,"x_min":113,"x_max":646,"o":"m 646 157 l 646 0 l 113 0 l 113 968 l 618 968 l 618 817 l 286 817 l 286 590 l 550 590 l 550 443 l 286 443 l 286 157 l 646 157 m 185 1218 l 568 1218 l 568 1092 l 185 1092 l 185 1218 z "},"Ḗ":{"ha":703,"x_min":113,"x_max":646,"o":"m 646 157 l 646 0 l 113 0 l 113 968 l 618 968 l 618 817 l 286 817 l 286 590 l 550 590 l 550 443 l 286 443 l 286 157 l 646 157 m 185 1218 l 568 1218 l 568 1092 l 185 1092 l 185 1218 m 433 1560 l 604 1560 l 431 1306 l 297 1306 l 433 1560 z "},"Ḕ":{"ha":703,"x_min":113,"x_max":646,"o":"m 646 157 l 646 0 l 113 0 l 113 968 l 618 968 l 618 817 l 286 817 l 286 590 l 550 590 l 550 443 l 286 443 l 286 157 l 646 157 m 185 1218 l 568 1218 l 568 1092 l 185 1092 l 185 1218 m 163 1560 l 333 1560 l 469 1306 l 336 1306 l 163 1560 z "},"Ę":{"ha":703,"x_min":113,"x_max":646,"o":"m 646 0 q 555 -35 597 -12 q 490 -84 514 -57 q 465 -140 465 -112 q 551 -207 465 -207 q 646 -186 602 -207 l 646 -312 q 529 -333 601 -333 q 322 -178 322 -333 q 355 -74 322 -122 q 465 0 388 -26 l 113 0 l 113 968 l 618 968 l 618 817 l 286 817 l 286 590 l 550 590 l 550 443 l 286 443 l 286 157 l 646 157 l 646 0 z "},"Ẽ":{"ha":703,"x_min":113,"x_max":646,"o":"m 646 157 l 646 0 l 113 0 l 113 968 l 618 968 l 618 817 l 286 817 l 286 590 l 550 590 l 550 443 l 286 443 l 286 157 l 646 157 m 467 1063 q 404 1074 428 1063 q 356 1107 380 1085 q 322 1132 338 1124 q 286 1140 307 1140 q 240 1124 263 1140 q 206 1074 218 1107 l 133 1131 q 197 1223 156 1187 q 288 1258 238 1258 q 353 1247 328 1258 q 399 1214 378 1235 q 430 1191 414 1199 q 468 1183 445 1183 q 514 1202 494 1183 q 542 1256 535 1221 l 619 1196 q 594 1132 615 1163 q 539 1082 572 1101 q 467 1063 506 1063 z "},"F":{"ha":644,"x_min":117,"x_max":622,"o":"m 294 815 l 294 561 l 581 561 l 581 406 l 294 406 l 294 0 l 117 0 l 117 968 l 622 968 l 622 815 l 294 815 z "},"G":{"ha":874,"x_min":51,"x_max":828,"o":"m 819 519 q 828 385 828 433 q 747 88 828 200 q 457 -25 667 -25 q 248 37 340 -25 q 104 216 156 99 q 51 493 51 333 q 106 747 51 635 q 259 922 161 859 q 481 985 356 985 q 621 972 565 985 q 708 940 677 958 q 763 899 738 922 l 686 744 q 483 821 628 821 q 358 780 414 821 q 269 665 301 739 q 238 497 238 592 q 265 300 238 383 q 343 174 292 217 q 460 131 393 131 q 611 180 565 131 q 657 329 657 229 q 656 367 657 340 l 457 367 l 457 519 l 819 519 z "},"Ğ":{"ha":874,"x_min":51,"x_max":828,"o":"m 819 519 q 828 385 828 433 q 747 88 828 200 q 457 -25 667 -25 q 248 37 340 -25 q 104 216 156 99 q 51 493 51 333 q 106 747 51 635 q 259 922 161 859 q 481 985 356 985 q 621 972 565 985 q 708 940 677 958 q 763 899 738 922 l 686 744 q 483 821 628 821 q 358 780 414 821 q 269 665 301 739 q 238 497 238 592 q 265 300 238 383 q 343 174 292 217 q 460 131 393 131 q 611 180 565 131 q 657 329 657 229 q 656 367 657 340 l 457 367 l 457 519 l 819 519 m 475 1058 q 353 1087 406 1058 q 271 1171 300 1115 q 242 1307 242 1227 l 368 1307 q 379 1239 369 1264 q 412 1201 389 1213 q 475 1189 435 1189 q 540 1202 517 1189 q 572 1240 563 1215 q 582 1307 581 1265 l 710 1307 q 680 1170 710 1226 q 597 1086 650 1114 q 475 1058 544 1058 z "},"Ǧ":{"ha":874,"x_min":51,"x_max":828,"o":"m 819 519 q 828 385 828 433 q 747 88 828 200 q 457 -25 667 -25 q 248 37 340 -25 q 104 216 156 99 q 51 493 51 333 q 106 747 51 635 q 259 922 161 859 q 481 985 356 985 q 621 972 565 985 q 708 940 677 958 q 763 899 738 922 l 686 744 q 483 821 628 821 q 358 780 414 821 q 269 665 301 739 q 238 497 238 592 q 265 300 238 383 q 343 174 292 217 q 460 131 393 131 q 611 180 565 131 q 657 329 657 229 q 656 367 657 340 l 457 367 l 457 519 l 819 519 m 731 1313 l 518 1058 l 432 1058 l 214 1313 l 353 1313 l 476 1195 l 590 1313 l 731 1313 z "},"Ĝ":{"ha":861,"x_min":51,"x_max":828,"o":"m 590 1058 l 476 1176 l 353 1058 l 214 1058 l 432 1313 l 518 1313 l 731 1058 l 590 1058 m 819 519 q 828 385 828 433 q 747 88 828 200 q 457 -25 667 -25 q 248 37 340 -25 q 104 216 156 99 q 51 493 51 333 q 106 747 51 635 q 259 922 161 859 q 481 985 356 985 q 621 972 565 985 q 708 940 677 958 q 763 899 738 922 l 686 744 q 483 821 628 821 q 358 780 414 821 q 269 665 301 739 q 238 497 238 592 q 265 300 238 383 q 343 174 292 217 q 460 131 393 131 q 611 180 565 131 q 657 329 657 229 q 656 367 657 340 l 457 367 l 457 519 l 819 519 z "},"Ģ":{"ha":874,"x_min":51,"x_max":828,"o":"m 819 519 q 828 385 828 433 q 747 88 828 200 q 457 -25 667 -25 q 248 37 340 -25 q 104 216 156 99 q 51 493 51 333 q 106 747 51 635 q 259 922 161 859 q 481 985 356 985 q 621 972 565 985 q 708 940 677 958 q 763 899 738 922 l 686 744 q 483 821 628 821 q 358 780 414 821 q 269 665 301 739 q 238 497 238 592 q 265 300 238 383 q 343 174 292 217 q 460 131 393 131 q 611 180 565 131 q 657 329 657 229 q 656 367 657 340 l 457 367 l 457 519 l 819 519 m 365 -382 q 388 -196 388 -301 q 386 -128 388 -151 l 550 -128 q 551 -147 551 -131 l 550 -186 q 534 -291 550 -237 q 493 -382 519 -346 l 365 -382 z "},"Ġ":{"ha":874,"x_min":51,"x_max":828,"o":"m 819 519 q 828 385 828 433 q 747 88 828 200 q 457 -25 667 -25 q 248 37 340 -25 q 104 216 156 99 q 51 493 51 333 q 106 747 51 635 q 259 922 161 859 q 481 985 356 985 q 621 972 565 985 q 708 940 677 958 q 763 899 738 922 l 686 744 q 483 821 628 821 q 358 780 414 821 q 269 665 301 739 q 238 497 238 592 q 265 300 238 383 q 343 174 292 217 q 460 131 393 131 q 611 180 565 131 q 657 329 657 229 q 656 367 657 340 l 457 367 l 457 519 l 819 519 m 381 1244 l 569 1244 l 569 1058 l 381 1058 l 381 1244 z "},"Ḡ":{"ha":874,"x_min":51,"x_max":828,"o":"m 819 519 q 828 385 828 433 q 747 88 828 200 q 457 -25 667 -25 q 248 37 340 -25 q 104 216 156 99 q 51 493 51 333 q 106 747 51 635 q 259 922 161 859 q 481 985 356 985 q 621 972 565 985 q 708 940 677 958 q 763 899 738 922 l 686 744 q 483 821 628 821 q 358 780 414 821 q 269 665 301 739 q 238 497 238 592 q 265 300 238 383 q 343 174 292 217 q 460 131 393 131 q 611 180 565 131 q 657 329 657 229 q 656 367 657 340 l 457 367 l 457 519 l 819 519 m 283 1218 l 667 1218 l 667 1092 l 283 1092 l 283 1218 z "},"H":{"ha":913,"x_min":117,"x_max":796,"o":"m 796 968 l 796 0 l 615 0 l 615 411 l 296 411 l 296 0 l 117 0 l 117 968 l 296 968 l 296 564 l 615 564 l 615 968 l 796 968 z "},"Ħ":{"ha":897,"x_min":19,"x_max":876,"o":"m 876 693 l 796 693 l 796 0 l 615 0 l 615 356 l 296 356 l 296 0 l 117 0 l 117 693 l 19 693 l 19 810 l 117 810 l 117 968 l 296 968 l 296 810 l 615 810 l 615 968 l 796 968 l 796 810 l 876 810 l 876 693 m 615 693 l 296 693 l 296 508 l 615 508 l 615 693 z "},"Ḫ":{"ha":913,"x_min":117,"x_max":796,"o":"m 796 968 l 796 0 l 615 0 l 615 411 l 296 411 l 296 0 l 117 0 l 117 968 l 296 968 l 296 564 l 615 564 l 615 968 l 796 968 m 453 -367 q 282 -307 345 -367 q 219 -128 219 -247 l 346 -128 q 357 -193 347 -170 q 389 -226 367 -216 q 453 -236 411 -236 q 517 -225 494 -236 q 548 -191 539 -214 q 558 -128 557 -169 l 686 -128 q 623 -307 686 -248 q 453 -367 560 -367 z "},"Ĥ":{"ha":913,"x_min":117,"x_max":796,"o":"m 796 968 l 796 0 l 615 0 l 615 411 l 296 411 l 296 0 l 117 0 l 117 968 l 296 968 l 296 564 l 615 564 l 615 968 l 796 968 m 571 1058 l 456 1176 l 333 1058 l 194 1058 l 413 1313 l 499 1313 l 711 1058 l 571 1058 z "},"Ḥ":{"ha":913,"x_min":117,"x_max":796,"o":"m 796 968 l 796 0 l 615 0 l 615 411 l 296 411 l 296 0 l 117 0 l 117 968 l 296 968 l 296 564 l 615 564 l 615 968 l 796 968 m 358 -118 l 547 -118 l 547 -304 l 358 -304 l 358 -118 z "},"I":{"ha":403,"x_min":113,"x_max":290,"o":"m 113 968 l 290 968 l 290 0 l 113 0 l 113 968 z "},"Ĳ":{"ha":958,"x_min":113,"x_max":857,"o":"m 113 968 l 290 968 l 290 0 l 113 0 l 113 968 m 568 -21 q 473 -7 529 -21 q 393 24 417 6 l 460 189 q 505 148 477 163 q 560 133 532 133 q 619 142 594 133 q 660 182 643 151 q 676 274 676 213 l 676 968 l 857 968 l 857 290 q 790 64 857 148 q 568 -21 722 -21 z "},"Í":{"ha":403,"x_min":113,"x_max":431,"o":"m 113 968 l 290 968 l 290 0 l 113 0 l 113 968 m 260 1313 l 431 1313 l 257 1058 l 124 1058 l 260 1313 z "},"Ĭ":{"ha":403,"x_min":-31,"x_max":438,"o":"m 113 968 l 290 968 l 290 0 l 113 0 l 113 968 m 203 1058 q 81 1087 133 1058 q -1 1171 28 1115 q -31 1307 -31 1227 l 96 1307 q 107 1239 97 1264 q 140 1201 117 1213 q 203 1189 163 1189 q 267 1202 244 1189 q 299 1240 290 1215 q 310 1307 308 1265 l 438 1307 q 408 1170 438 1226 q 325 1086 378 1114 q 203 1058 272 1058 z "},"Ǐ":{"ha":403,"x_min":-58,"x_max":458,"o":"m 113 968 l 290 968 l 290 0 l 113 0 l 113 968 m 458 1313 l 246 1058 l 160 1058 l -58 1313 l 81 1313 l 203 1195 l 318 1313 l 458 1313 z "},"Î":{"ha":403,"x_min":-58,"x_max":458,"o":"m 113 968 l 290 968 l 290 0 l 113 0 l 113 968 m 318 1058 l 203 1176 l 81 1058 l -58 1058 l 160 1313 l 246 1313 l 458 1058 l 318 1058 z "},"Ȉ":{"ha":403,"x_min":-158,"x_max":432,"o":"m 113 968 l 290 968 l 290 0 l 113 0 l 113 968 m -158 1313 l -6 1313 l 142 1058 l 21 1058 l -158 1313 m 135 1313 l 286 1313 l 432 1058 l 311 1058 l 135 1313 z "},"Ï":{"ha":403,"x_min":-28,"x_max":433,"o":"m 113 968 l 290 968 l 290 0 l 113 0 l 113 968 m -28 1243 l 156 1243 l 156 1058 l -28 1058 l -28 1243 m 250 1243 l 433 1243 l 433 1058 l 250 1058 l 250 1243 z "},"Ḯ":{"ha":403,"x_min":-28,"x_max":433,"o":"m 113 968 l 290 968 l 290 0 l 113 0 l 113 968 m -28 1243 l 156 1243 l 156 1058 l -28 1058 l -28 1243 m 250 1243 l 433 1243 l 433 1058 l 250 1058 l 250 1243 m 260 1575 l 431 1575 l 257 1321 l 124 1321 l 260 1575 z "},"İ":{"ha":403,"x_min":108,"x_max":297,"o":"m 113 968 l 290 968 l 290 0 l 113 0 l 113 968 m 108 1244 l 297 1244 l 297 1058 l 108 1058 l 108 1244 z "},"Ị":{"ha":403,"x_min":107,"x_max":296,"o":"m 113 968 l 290 968 l 290 0 l 113 0 l 113 968 m 107 -128 l 296 -128 l 296 -314 l 107 -314 l 107 -128 z "},"Ì":{"ha":403,"x_min":-11,"x_max":296,"o":"m 113 968 l 290 968 l 290 0 l 113 0 l 113 968 m -11 1313 l 160 1313 l 296 1058 l 163 1058 l -11 1313 z "},"Ỉ":{"ha":403,"x_min":36,"x_max":389,"o":"m 113 968 l 290 968 l 290 0 l 113 0 l 113 968 m 218 1058 q 170 1060 186 1058 q 135 1067 155 1061 l 111 1140 q 153 1136 130 1136 q 219 1151 192 1136 q 246 1203 246 1167 q 235 1232 246 1218 q 204 1255 224 1247 q 158 1264 184 1264 q 116 1257 138 1264 q 65 1235 95 1250 l 36 1321 q 73 1344 47 1331 q 132 1365 99 1356 q 197 1374 165 1374 q 285 1359 242 1374 q 359 1309 328 1344 q 389 1215 389 1274 q 368 1141 389 1178 q 309 1082 348 1105 q 218 1058 270 1058 z "},"Ȋ":{"ha":403,"x_min":-31,"x_max":438,"o":"m 113 968 l 290 968 l 290 0 l 113 0 l 113 968 m -31 1058 q -1 1194 -31 1138 q 81 1278 28 1250 q 203 1307 133 1307 q 325 1279 272 1307 q 408 1195 378 1251 q 438 1058 438 1140 l 310 1058 q 299 1125 308 1100 q 267 1164 290 1151 q 203 1176 244 1176 q 140 1164 163 1176 q 107 1127 117 1152 q 96 1058 97 1101 l -31 1058 z "},"Ī":{"ha":403,"x_min":11,"x_max":394,"o":"m 113 968 l 290 968 l 290 0 l 113 0 l 113 968 m 11 1218 l 394 1218 l 394 1092 l 11 1092 l 11 1218 z "},"Į":{"ha":403,"x_min":11,"x_max":335,"o":"m 240 -207 q 335 -186 291 -207 l 335 -312 q 218 -333 290 -333 q 111 -315 158 -333 q 38 -261 64 -297 q 11 -178 11 -226 q 116 0 11 -72 l 113 0 l 113 968 l 290 968 l 290 0 l 282 0 q 184 -55 213 -17 q 154 -140 154 -92 q 240 -207 154 -207 z "},"Ĩ":{"ha":403,"x_min":-40,"x_max":446,"o":"m 113 968 l 290 968 l 290 0 l 113 0 l 113 968 m 293 1063 q 230 1074 254 1063 q 182 1107 206 1085 q 149 1132 164 1124 q 113 1140 133 1140 q 67 1124 89 1140 q 32 1074 44 1107 l -40 1131 q 23 1223 -17 1187 q 114 1258 64 1258 q 180 1247 155 1258 q 225 1214 204 1235 q 256 1191 240 1199 q 294 1183 272 1183 q 341 1202 320 1183 q 368 1256 361 1221 l 446 1196 q 420 1132 442 1163 q 365 1082 399 1101 q 293 1063 332 1063 z "},"J":{"ha":556,"x_min":-10,"x_max":454,"o":"m 165 -21 q 70 -7 126 -21 q -10 24 15 6 l 57 189 q 102 148 74 163 q 157 133 129 133 q 216 142 192 133 q 257 182 240 151 q 274 274 274 213 l 274 968 l 454 968 l 454 290 q 387 64 454 148 q 165 -21 319 -21 z "},"Ĵ":{"ha":556,"x_min":-10,"x_max":619,"o":"m 165 -21 q 70 -7 126 -21 q -10 24 15 6 l 57 189 q 102 148 74 163 q 157 133 129 133 q 216 142 192 133 q 257 182 240 151 q 274 274 274 213 l 274 968 l 454 968 l 454 290 q 387 64 454 148 q 165 -21 319 -21 m 479 1058 l 365 1176 l 242 1058 l 103 1058 l 321 1313 l 407 1313 l 619 1058 l 479 1058 z "},"K":{"ha":828,"x_min":117,"x_max":828,"o":"m 606 0 l 293 465 l 293 0 l 117 0 l 117 968 l 293 968 l 293 486 l 601 968 l 806 968 l 476 488 l 828 0 l 606 0 z "},"Ķ":{"ha":828,"x_min":117,"x_max":828,"o":"m 606 0 l 293 465 l 293 0 l 117 0 l 117 968 l 293 968 l 293 486 l 601 968 l 806 968 l 476 488 l 828 0 l 606 0 m 331 -382 q 353 -196 353 -301 q 351 -128 353 -151 l 515 -128 q 516 -147 516 -131 l 515 -186 q 500 -291 515 -237 q 458 -382 484 -346 l 331 -382 z "},"L":{"ha":618,"x_min":117,"x_max":582,"o":"m 582 153 l 582 0 l 117 0 l 117 968 l 293 968 l 293 153 l 582 153 z "},"Ǉ":{"ha":1201,"x_min":117,"x_max":1100,"o":"m 582 153 l 582 0 l 117 0 l 117 968 l 293 968 l 293 153 l 582 153 m 811 -21 q 716 -7 772 -21 q 636 24 660 6 l 703 189 q 748 148 720 163 q 803 133 775 133 q 862 142 838 133 q 903 182 886 151 q 919 274 919 213 l 919 968 l 1100 968 l 1100 290 q 1033 64 1100 148 q 811 -21 965 -21 z "},"Ĺ":{"ha":618,"x_min":117,"x_max":582,"o":"m 582 153 l 582 0 l 117 0 l 117 968 l 293 968 l 293 153 l 582 153 m 269 1313 l 440 1313 l 267 1058 l 133 1058 l 269 1313 z "},"Ľ":{"ha":618,"x_min":117,"x_max":582,"o":"m 582 153 l 582 0 l 117 0 l 117 968 l 293 968 l 293 153 l 582 153 m 383 754 q 400 844 394 783 q 407 967 407 906 q 401 1056 407 1008 l 540 1056 q 544 978 544 1028 q 530 850 544 908 q 499 754 515 792 l 383 754 z "},"Ļ":{"ha":618,"x_min":117,"x_max":582,"o":"m 582 153 l 582 0 l 117 0 l 117 968 l 293 968 l 293 153 l 582 153 m 233 -382 q 256 -196 256 -301 q 254 -128 256 -151 l 418 -128 q 419 -147 419 -131 l 418 -186 q 402 -291 418 -237 q 361 -382 387 -346 l 233 -382 z "},"Ŀ":{"ha":619,"x_min":117,"x_max":582,"o":"m 582 153 l 582 0 l 117 0 l 117 968 l 293 968 l 293 153 l 582 153 m 411 644 l 574 644 l 574 438 l 411 438 l 411 644 z "},"Ḷ":{"ha":618,"x_min":117,"x_max":582,"o":"m 582 153 l 582 0 l 117 0 l 117 968 l 293 968 l 293 153 l 582 153 m 240 -118 l 429 -118 l 429 -304 l 240 -304 l 240 -118 z "},"ǈ":{"ha":971,"x_min":117,"x_max":878,"o":"m 582 153 l 582 0 l 117 0 l 117 968 l 293 968 l 293 153 l 582 153 m 683 989 l 878 989 l 878 804 l 683 804 l 683 989 m 594 -242 q 645 -220 623 -241 q 681 -162 668 -199 q 693 -81 693 -126 l 693 692 l 865 692 l 865 -87 q 809 -279 863 -217 q 654 -347 755 -341 l 594 -242 z "},"Ḻ":{"ha":618,"x_min":117,"x_max":582,"o":"m 582 153 l 582 0 l 117 0 l 117 968 l 293 968 l 293 153 l 582 153 m 143 -128 l 526 -128 l 526 -254 l 143 -254 l 143 -128 z "},"Ł":{"ha":639,"x_min":28,"x_max":603,"o":"m 603 153 l 603 0 l 138 0 l 138 353 l 28 294 l 28 450 l 138 508 l 138 968 l 314 968 l 314 601 l 514 707 l 514 551 l 314 446 l 314 153 l 603 153 z "},"M":{"ha":1043,"x_min":117,"x_max":926,"o":"m 926 985 l 926 0 l 754 0 l 754 415 l 760 579 l 711 504 l 521 281 l 331 504 l 281 579 l 289 415 l 289 0 l 117 0 l 117 985 l 131 985 l 522 523 l 911 985 l 926 985 z "},"Ṃ":{"ha":1043,"x_min":117,"x_max":926,"o":"m 926 985 l 926 0 l 754 0 l 754 415 l 760 579 l 711 504 l 521 281 l 331 504 l 281 579 l 289 415 l 289 0 l 117 0 l 117 985 l 131 985 l 522 523 l 911 985 l 926 985 m 426 -118 l 615 -118 l 615 -304 l 426 -304 l 426 -118 z "},"N":{"ha":918,"x_min":117,"x_max":801,"o":"m 801 968 l 801 -19 l 788 -19 l 324 510 l 281 565 l 288 431 l 288 0 l 117 0 l 117 985 l 132 985 l 589 451 l 638 388 l 631 521 l 631 968 l 801 968 z "},"Ǌ":{"ha":1474,"x_min":117,"x_max":1372,"o":"m 801 968 l 801 -19 l 788 -19 l 324 510 l 281 565 l 288 431 l 288 0 l 117 0 l 117 985 l 132 985 l 589 451 l 638 388 l 631 521 l 631 968 l 801 968 m 1083 -21 q 989 -7 1044 -21 q 908 24 933 6 l 975 189 q 1020 148 992 163 q 1075 133 1047 133 q 1134 142 1110 133 q 1175 182 1158 151 q 1192 274 1192 213 l 1192 968 l 1372 968 l 1372 290 q 1305 64 1372 148 q 1083 -21 1238 -21 z "},"Ń":{"ha":918,"x_min":117,"x_max":801,"o":"m 801 968 l 801 -19 l 788 -19 l 324 510 l 281 565 l 288 431 l 288 0 l 117 0 l 117 985 l 132 985 l 589 451 l 638 388 l 631 521 l 631 968 l 801 968 m 500 1313 l 671 1313 l 497 1058 l 364 1058 l 500 1313 z "},"Ň":{"ha":918,"x_min":117,"x_max":801,"o":"m 801 968 l 801 -19 l 788 -19 l 324 510 l 281 565 l 288 431 l 288 0 l 117 0 l 117 985 l 132 985 l 589 451 l 638 388 l 631 521 l 631 968 l 801 968 m 699 1313 l 486 1058 l 400 1058 l 182 1313 l 321 1313 l 444 1195 l 558 1313 l 699 1313 z "},"Ņ":{"ha":918,"x_min":117,"x_max":801,"o":"m 801 968 l 801 -19 l 788 -19 l 324 510 l 281 565 l 288 431 l 288 0 l 117 0 l 117 985 l 132 985 l 589 451 l 638 388 l 631 521 l 631 968 l 801 968 m 382 -382 q 404 -196 404 -301 q 403 -128 404 -151 l 567 -128 q 567 -147 567 -131 l 567 -186 q 551 -291 567 -237 q 510 -382 535 -346 l 382 -382 z "},"Ṅ":{"ha":918,"x_min":117,"x_max":801,"o":"m 801 968 l 801 -19 l 788 -19 l 324 510 l 281 565 l 288 431 l 288 0 l 117 0 l 117 985 l 132 985 l 589 451 l 638 388 l 631 521 l 631 968 l 801 968 m 349 1244 l 538 1244 l 538 1058 l 349 1058 l 349 1244 z "},"Ṇ":{"ha":918,"x_min":117,"x_max":801,"o":"m 801 968 l 801 -19 l 788 -19 l 324 510 l 281 565 l 288 431 l 288 0 l 117 0 l 117 985 l 132 985 l 589 451 l 638 388 l 631 521 l 631 968 l 801 968 m 389 -118 l 578 -118 l 578 -304 l 389 -304 l 389 -118 z "},"Ŋ":{"ha":918,"x_min":117,"x_max":801,"o":"m 801 968 l 801 -19 q 766 -208 801 -133 q 672 -318 731 -283 q 540 -354 613 -354 q 411 -342 467 -354 q 321 -310 356 -330 l 374 -158 q 442 -189 403 -176 q 510 -201 481 -201 q 599 -171 566 -201 q 632 -54 632 -140 l 632 51 l 638 151 l 324 510 l 281 565 l 288 431 l 288 0 l 117 0 l 117 985 l 132 985 l 589 451 l 638 388 l 631 521 l 631 968 l 801 968 z "},"ǋ":{"ha":1231,"x_min":117,"x_max":1138,"o":"m 801 968 l 801 -19 l 788 -19 l 324 510 l 281 565 l 288 431 l 288 0 l 117 0 l 117 985 l 132 985 l 589 451 l 638 388 l 631 521 l 631 968 l 801 968 m 943 989 l 1138 989 l 1138 804 l 943 804 l 943 989 m 854 -242 q 905 -220 883 -241 q 940 -162 928 -199 q 953 -81 953 -126 l 953 692 l 1125 692 l 1125 -87 q 1068 -279 1122 -217 q 914 -347 1015 -341 l 854 -242 z "},"Ṉ":{"ha":918,"x_min":117,"x_max":801,"o":"m 801 968 l 801 -19 l 788 -19 l 324 510 l 281 565 l 288 431 l 288 0 l 117 0 l 117 985 l 132 985 l 589 451 l 638 388 l 631 521 l 631 968 l 801 968 m 292 -128 l 675 -128 l 675 -254 l 292 -254 l 292 -128 z "},"Ñ":{"ha":918,"x_min":117,"x_max":801,"o":"m 801 968 l 801 -19 l 788 -19 l 324 510 l 281 565 l 288 431 l 288 0 l 117 0 l 117 985 l 132 985 l 589 451 l 638 388 l 631 521 l 631 968 l 801 968 m 533 1063 q 470 1074 494 1063 q 422 1107 447 1085 q 389 1132 404 1124 q 353 1140 374 1140 q 307 1124 329 1140 q 272 1074 285 1107 l 200 1131 q 264 1223 223 1187 q 354 1258 304 1258 q 420 1247 395 1258 q 465 1214 444 1235 q 496 1191 481 1199 q 535 1183 512 1183 q 581 1202 560 1183 q 608 1256 601 1221 l 686 1196 q 660 1132 682 1163 q 606 1082 639 1101 q 533 1063 572 1063 z "},"O":{"ha":914,"x_min":54,"x_max":860,"o":"m 458 -17 q 238 45 329 -17 q 101 219 147 106 q 54 485 54 332 q 100 749 54 636 q 236 923 147 862 q 454 985 326 985 q 678 923 587 985 q 814 748 769 860 q 860 485 860 635 q 813 219 860 332 q 676 45 766 106 q 458 -17 585 -17 m 458 132 q 569 172 520 132 q 647 292 618 211 q 675 489 675 372 q 617 750 675 660 q 454 840 559 840 q 296 750 352 840 q 240 488 240 660 q 267 290 240 369 q 343 171 294 210 q 458 132 392 132 z "},"Ó":{"ha":914,"x_min":54,"x_max":860,"o":"m 458 -17 q 238 45 329 -17 q 101 219 147 106 q 54 485 54 332 q 100 749 54 636 q 236 923 147 862 q 454 985 326 985 q 678 923 587 985 q 814 748 769 860 q 860 485 860 635 q 813 219 860 332 q 676 45 766 106 q 458 -17 585 -17 m 458 132 q 569 172 520 132 q 647 292 618 211 q 675 489 675 372 q 617 750 675 660 q 454 840 559 840 q 296 750 352 840 q 240 488 240 660 q 267 290 240 369 q 343 171 294 210 q 458 132 392 132 m 514 1313 l 685 1313 l 511 1058 l 378 1058 l 514 1313 z "},"Ŏ":{"ha":914,"x_min":54,"x_max":860,"o":"m 458 -17 q 238 45 329 -17 q 101 219 147 106 q 54 485 54 332 q 100 749 54 636 q 236 923 147 862 q 454 985 326 985 q 678 923 587 985 q 814 748 769 860 q 860 485 860 635 q 813 219 860 332 q 676 45 766 106 q 458 -17 585 -17 m 458 132 q 569 172 520 132 q 647 292 618 211 q 675 489 675 372 q 617 750 675 660 q 454 840 559 840 q 296 750 352 840 q 240 488 240 660 q 267 290 240 369 q 343 171 294 210 q 458 132 392 132 m 457 1058 q 335 1087 388 1058 q 253 1171 282 1115 q 224 1307 224 1227 l 350 1307 q 361 1239 351 1264 q 394 1201 371 1213 q 457 1189 417 1189 q 522 1202 499 1189 q 553 1240 544 1215 q 564 1307 563 1265 l 692 1307 q 662 1170 692 1226 q 579 1086 632 1114 q 457 1058 526 1058 z "},"Ǒ":{"ha":914,"x_min":54,"x_max":860,"o":"m 458 -17 q 238 45 329 -17 q 101 219 147 106 q 54 485 54 332 q 100 749 54 636 q 236 923 147 862 q 454 985 326 985 q 678 923 587 985 q 814 748 769 860 q 860 485 860 635 q 813 219 860 332 q 676 45 766 106 q 458 -17 585 -17 m 458 132 q 569 172 520 132 q 647 292 618 211 q 675 489 675 372 q 617 750 675 660 q 454 840 559 840 q 296 750 352 840 q 240 488 240 660 q 267 290 240 369 q 343 171 294 210 q 458 132 392 132 m 713 1313 l 500 1058 l 414 1058 l 196 1313 l 335 1313 l 458 1195 l 572 1313 l 713 1313 z "},"Ô":{"ha":914,"x_min":54,"x_max":860,"o":"m 458 -17 q 238 45 329 -17 q 101 219 147 106 q 54 485 54 332 q 100 749 54 636 q 236 923 147 862 q 454 985 326 985 q 678 923 587 985 q 814 748 769 860 q 860 485 860 635 q 813 219 860 332 q 676 45 766 106 q 458 -17 585 -17 m 458 132 q 569 172 520 132 q 647 292 618 211 q 675 489 675 372 q 617 750 675 660 q 454 840 559 840 q 296 750 352 840 q 240 488 240 660 q 267 290 240 369 q 343 171 294 210 q 458 132 392 132 m 572 1058 l 458 1176 l 335 1058 l 196 1058 l 414 1313 l 500 1313 l 713 1058 l 572 1058 z "},"Ố":{"ha":914,"x_min":54,"x_max":860,"o":"m 458 -17 q 238 45 329 -17 q 101 219 147 106 q 54 485 54 332 q 100 749 54 636 q 236 923 147 862 q 454 985 326 985 q 678 923 587 985 q 814 748 769 860 q 860 485 860 635 q 813 219 860 332 q 676 45 766 106 q 458 -17 585 -17 m 458 132 q 569 172 520 132 q 647 292 618 211 q 675 489 675 372 q 617 750 675 660 q 454 840 559 840 q 296 750 352 840 q 240 488 240 660 q 267 290 240 369 q 343 171 294 210 q 458 132 392 132 m 825 1499 l 688 1304 l 571 1304 l 676 1499 l 825 1499 m 494 1283 l 669 1058 l 546 1058 l 457 1154 l 365 1058 l 242 1058 l 418 1283 l 494 1283 z "},"Ộ":{"ha":914,"x_min":54,"x_max":860,"o":"m 458 -17 q 238 45 329 -17 q 101 219 147 106 q 54 485 54 332 q 100 749 54 636 q 236 923 147 862 q 454 985 326 985 q 678 923 587 985 q 814 748 769 860 q 860 485 860 635 q 813 219 860 332 q 676 45 766 106 q 458 -17 585 -17 m 458 132 q 569 172 520 132 q 647 292 618 211 q 675 489 675 372 q 617 750 675 660 q 454 840 559 840 q 296 750 352 840 q 240 488 240 660 q 267 290 240 369 q 343 171 294 210 q 458 132 392 132 m 364 -128 l 553 -128 l 553 -314 l 364 -314 l 364 -128 m 572 1058 l 458 1176 l 335 1058 l 196 1058 l 414 1313 l 500 1313 l 713 1058 l 572 1058 z "},"Ồ":{"ha":914,"x_min":54,"x_max":860,"o":"m 458 -17 q 238 45 329 -17 q 101 219 147 106 q 54 485 54 332 q 100 749 54 636 q 236 923 147 862 q 454 985 326 985 q 678 923 587 985 q 814 748 769 860 q 860 485 860 635 q 813 219 860 332 q 676 45 766 106 q 458 -17 585 -17 m 458 132 q 569 172 520 132 q 647 292 618 211 q 675 489 675 372 q 617 750 675 660 q 454 840 559 840 q 296 750 352 840 q 240 488 240 660 q 267 290 240 369 q 343 171 294 210 q 458 132 392 132 m 617 1304 l 479 1499 l 628 1499 l 732 1304 l 617 1304 m 494 1283 l 671 1058 l 547 1058 l 457 1154 l 365 1058 l 243 1058 l 418 1283 l 494 1283 z "},"Ổ":{"ha":914,"x_min":54,"x_max":860,"o":"m 458 -17 q 238 45 329 -17 q 101 219 147 106 q 54 485 54 332 q 100 749 54 636 q 236 923 147 862 q 454 985 326 985 q 678 923 587 985 q 814 748 769 860 q 860 485 860 635 q 813 219 860 332 q 676 45 766 106 q 458 -17 585 -17 m 458 132 q 569 172 520 132 q 647 292 618 211 q 675 489 675 372 q 617 750 675 660 q 454 840 559 840 q 296 750 352 840 q 240 488 240 660 q 267 290 240 369 q 343 171 294 210 q 458 132 392 132 m 417 1528 q 378 1521 398 1528 q 333 1501 359 1515 l 307 1581 q 368 1612 325 1596 q 453 1628 411 1628 q 533 1615 493 1628 q 599 1569 572 1601 q 626 1485 626 1537 q 608 1418 626 1451 q 554 1364 590 1385 q 472 1343 519 1343 l 435 1343 q 396 1347 411 1343 l 375 1417 q 411 1414 397 1414 q 473 1427 448 1414 q 497 1474 497 1440 q 475 1512 497 1496 q 417 1528 453 1528 m 547 1058 l 457 1154 l 365 1058 l 243 1058 l 418 1283 l 494 1283 l 671 1058 l 547 1058 z "},"Ỗ":{"ha":914,"x_min":54,"x_max":860,"o":"m 458 -17 q 238 45 329 -17 q 101 219 147 106 q 54 485 54 332 q 100 749 54 636 q 236 923 147 862 q 454 985 326 985 q 678 923 587 985 q 814 748 769 860 q 860 485 860 635 q 813 219 860 332 q 676 45 766 106 q 458 -17 585 -17 m 458 132 q 569 172 520 132 q 647 292 618 211 q 675 489 675 372 q 617 750 675 660 q 454 840 559 840 q 296 750 352 840 q 240 488 240 660 q 267 290 240 369 q 343 171 294 210 q 458 132 392 132 m 386 1392 q 342 1380 360 1392 q 317 1335 323 1367 l 247 1382 q 262 1438 247 1413 q 305 1479 277 1464 q 368 1494 332 1494 q 425 1484 400 1494 q 475 1456 451 1474 q 510 1435 494 1442 q 542 1428 526 1428 q 573 1430 562 1428 q 590 1444 583 1433 q 597 1481 597 1456 l 667 1432 q 653 1377 667 1402 q 615 1337 640 1352 q 556 1322 590 1322 q 498 1334 524 1322 q 444 1364 471 1345 q 409 1386 422 1381 q 386 1392 397 1392 m 547 1058 l 457 1154 l 365 1058 l 243 1058 l 418 1283 l 494 1283 l 671 1058 l 547 1058 z "},"Ȍ":{"ha":914,"x_min":54,"x_max":860,"o":"m 458 -17 q 238 45 329 -17 q 101 219 147 106 q 54 485 54 332 q 100 749 54 636 q 236 923 147 862 q 454 985 326 985 q 678 923 587 985 q 814 748 769 860 q 860 485 860 635 q 813 219 860 332 q 676 45 766 106 q 458 -17 585 -17 m 458 132 q 569 172 520 132 q 647 292 618 211 q 675 489 675 372 q 617 750 675 660 q 454 840 559 840 q 296 750 352 840 q 240 488 240 660 q 267 290 240 369 q 343 171 294 210 q 458 132 392 132 m 96 1313 l 249 1313 l 396 1058 l 275 1058 l 96 1313 m 389 1313 l 540 1313 l 686 1058 l 565 1058 l 389 1313 z "},"Ö":{"ha":914,"x_min":54,"x_max":860,"o":"m 458 -17 q 238 45 329 -17 q 101 219 147 106 q 54 485 54 332 q 100 749 54 636 q 236 923 147 862 q 454 985 326 985 q 678 923 587 985 q 814 748 769 860 q 860 485 860 635 q 813 219 860 332 q 676 45 766 106 q 458 -17 585 -17 m 458 132 q 569 172 520 132 q 647 292 618 211 q 675 489 675 372 q 617 750 675 660 q 454 840 559 840 q 296 750 352 840 q 240 488 240 660 q 267 290 240 369 q 343 171 294 210 q 458 132 392 132 m 226 1243 l 410 1243 l 410 1058 l 226 1058 l 226 1243 m 504 1243 l 688 1243 l 688 1058 l 504 1058 l 504 1243 z "},"Ȫ":{"ha":914,"x_min":54,"x_max":860,"o":"m 458 -17 q 238 45 329 -17 q 101 219 147 106 q 54 485 54 332 q 100 749 54 636 q 236 923 147 862 q 454 985 326 985 q 678 923 587 985 q 814 748 769 860 q 860 485 860 635 q 813 219 860 332 q 676 45 766 106 q 458 -17 585 -17 m 458 132 q 569 172 520 132 q 647 292 618 211 q 675 489 675 372 q 617 750 675 660 q 454 840 559 840 q 296 750 352 840 q 240 488 240 660 q 267 290 240 369 q 343 171 294 210 q 458 132 392 132 m 226 1243 l 410 1243 l 410 1058 l 226 1058 l 226 1243 m 504 1243 l 688 1243 l 688 1058 l 504 1058 l 504 1243 m 265 1481 l 649 1481 l 649 1354 l 265 1354 l 265 1481 z "},"Ȱ":{"ha":914,"x_min":54,"x_max":860,"o":"m 458 -17 q 238 45 329 -17 q 101 219 147 106 q 54 485 54 332 q 100 749 54 636 q 236 923 147 862 q 454 985 326 985 q 678 923 587 985 q 814 748 769 860 q 860 485 860 635 q 813 219 860 332 q 676 45 766 106 q 458 -17 585 -17 m 458 132 q 569 172 520 132 q 647 292 618 211 q 675 489 675 372 q 617 750 675 660 q 454 840 559 840 q 296 750 352 840 q 240 488 240 660 q 267 290 240 369 q 343 171 294 210 q 458 132 392 132 m 363 1244 l 551 1244 l 551 1058 l 363 1058 l 363 1244 m 265 1465 l 649 1465 l 649 1339 l 265 1339 l 265 1465 z "},"Ọ":{"ha":914,"x_min":54,"x_max":860,"o":"m 458 -17 q 238 45 329 -17 q 101 219 147 106 q 54 485 54 332 q 100 749 54 636 q 236 923 147 862 q 454 985 326 985 q 678 923 587 985 q 814 748 769 860 q 860 485 860 635 q 813 219 860 332 q 676 45 766 106 q 458 -17 585 -17 m 458 132 q 569 172 520 132 q 647 292 618 211 q 675 489 675 372 q 617 750 675 660 q 454 840 559 840 q 296 750 352 840 q 240 488 240 660 q 267 290 240 369 q 343 171 294 210 q 458 132 392 132 m 364 -128 l 553 -128 l 553 -314 l 364 -314 l 364 -128 z "},"Ò":{"ha":914,"x_min":54,"x_max":860,"o":"m 458 -17 q 238 45 329 -17 q 101 219 147 106 q 54 485 54 332 q 100 749 54 636 q 236 923 147 862 q 454 985 326 985 q 678 923 587 985 q 814 748 769 860 q 860 485 860 635 q 813 219 860 332 q 676 45 766 106 q 458 -17 585 -17 m 458 132 q 569 172 520 132 q 647 292 618 211 q 675 489 675 372 q 617 750 675 660 q 454 840 559 840 q 296 750 352 840 q 240 488 240 660 q 267 290 240 369 q 343 171 294 210 q 458 132 392 132 m 243 1313 l 414 1313 l 550 1058 l 417 1058 l 243 1313 z "},"Ỏ":{"ha":914,"x_min":54,"x_max":860,"o":"m 458 -17 q 238 45 329 -17 q 101 219 147 106 q 54 485 54 332 q 100 749 54 636 q 236 923 147 862 q 454 985 326 985 q 678 923 587 985 q 814 748 769 860 q 860 485 860 635 q 813 219 860 332 q 676 45 766 106 q 458 -17 585 -17 m 458 132 q 569 172 520 132 q 647 292 618 211 q 675 489 675 372 q 617 750 675 660 q 454 840 559 840 q 296 750 352 840 q 240 488 240 660 q 267 290 240 369 q 343 171 294 210 q 458 132 392 132 m 472 1058 q 425 1060 440 1058 q 389 1067 409 1061 l 365 1140 q 407 1136 384 1136 q 473 1151 446 1136 q 500 1203 500 1167 q 489 1232 500 1218 q 458 1255 478 1247 q 413 1264 438 1264 q 370 1257 392 1264 q 319 1235 349 1250 l 290 1321 q 327 1344 301 1331 q 386 1365 353 1356 q 451 1374 419 1374 q 539 1359 496 1374 q 613 1309 583 1344 q 643 1215 643 1274 q 623 1141 643 1178 q 563 1082 602 1105 q 472 1058 524 1058 z "},"Ơ":{"ha":914,"x_min":54,"x_max":892,"o":"m 892 1060 q 870 970 892 1012 q 816 899 849 928 q 746 862 783 871 q 831 700 802 796 q 860 485 860 604 q 813 219 860 332 q 676 45 766 106 q 458 -17 585 -17 q 238 45 329 -17 q 101 219 147 106 q 54 485 54 332 q 100 749 54 636 q 236 923 147 862 q 454 985 326 985 q 631 949 553 985 q 717 986 685 949 q 749 1081 749 1022 q 746 1126 749 1108 q 738 1160 744 1143 l 882 1160 q 890 1122 888 1142 q 892 1060 892 1101 m 458 132 q 569 172 520 132 q 647 292 618 211 q 675 489 675 372 q 617 750 675 660 q 454 840 559 840 q 296 750 352 840 q 240 488 240 660 q 267 290 240 369 q 343 171 294 210 q 458 132 392 132 z "},"Ớ":{"ha":914,"x_min":54,"x_max":892,"o":"m 536 1085 l 385 1085 l 521 1365 l 710 1365 l 536 1085 m 892 1060 q 870 970 892 1012 q 816 899 849 928 q 746 862 783 871 q 831 700 802 796 q 860 485 860 604 q 813 219 860 332 q 676 45 766 106 q 458 -17 585 -17 q 238 45 329 -17 q 101 219 147 106 q 54 485 54 332 q 100 749 54 636 q 236 923 147 862 q 454 985 326 985 q 631 949 553 985 q 717 986 685 949 q 749 1081 749 1022 q 746 1126 749 1108 q 738 1160 744 1143 l 882 1160 q 890 1122 888 1142 q 892 1060 892 1101 m 458 132 q 569 172 520 132 q 647 292 618 211 q 675 489 675 372 q 617 750 675 660 q 454 840 559 840 q 296 750 352 840 q 240 488 240 660 q 267 290 240 369 q 343 171 294 210 q 458 132 392 132 z "},"Ợ":{"ha":914,"x_min":54,"x_max":892,"o":"m 892 1060 q 870 970 892 1012 q 816 899 849 928 q 746 862 783 871 q 831 700 802 796 q 860 485 860 604 q 813 219 860 332 q 676 45 766 106 q 458 -17 585 -17 q 238 45 329 -17 q 101 219 147 106 q 54 485 54 332 q 100 749 54 636 q 236 923 147 862 q 454 985 326 985 q 631 949 553 985 q 717 986 685 949 q 749 1081 749 1022 q 746 1126 749 1108 q 738 1160 744 1143 l 882 1160 q 890 1122 888 1142 q 892 1060 892 1101 m 458 132 q 569 172 520 132 q 647 292 618 211 q 675 489 675 372 q 617 750 675 660 q 454 840 559 840 q 296 750 352 840 q 240 488 240 660 q 267 290 240 369 q 343 171 294 210 q 458 132 392 132 m 364 -128 l 553 -128 l 553 -314 l 364 -314 l 364 -128 z "},"Ờ":{"ha":914,"x_min":54,"x_max":892,"o":"m 417 1058 l 243 1313 l 414 1313 l 550 1058 l 417 1058 m 892 1060 q 870 970 892 1012 q 816 899 849 928 q 746 862 783 871 q 831 700 802 796 q 860 485 860 604 q 813 219 860 332 q 676 45 766 106 q 458 -17 585 -17 q 238 45 329 -17 q 101 219 147 106 q 54 485 54 332 q 100 749 54 636 q 236 923 147 862 q 454 985 326 985 q 631 949 553 985 q 717 986 685 949 q 749 1081 749 1022 q 746 1126 749 1108 q 738 1160 744 1143 l 882 1160 q 890 1122 888 1142 q 892 1060 892 1101 m 458 132 q 569 172 520 132 q 647 292 618 211 q 675 489 675 372 q 617 750 675 660 q 454 840 559 840 q 296 750 352 840 q 240 488 240 660 q 267 290 240 369 q 343 171 294 210 q 458 132 392 132 z "},"Ở":{"ha":914,"x_min":54,"x_max":892,"o":"m 413 1264 q 371 1257 392 1264 q 319 1235 349 1249 l 290 1321 q 327 1344 301 1331 q 386 1365 353 1356 q 451 1374 419 1374 q 539 1359 496 1374 q 613 1309 583 1344 q 643 1215 643 1274 q 623 1141 643 1178 q 563 1082 602 1105 q 472 1058 524 1058 q 425 1060 441 1058 q 389 1067 409 1061 l 365 1140 q 407 1136 384 1136 q 473 1151 446 1136 q 500 1203 500 1167 q 489 1232 500 1218 q 458 1255 478 1247 q 413 1264 438 1264 m 892 1060 q 870 970 892 1012 q 816 899 849 928 q 746 862 783 871 q 831 700 802 796 q 860 485 860 604 q 813 219 860 332 q 676 45 766 106 q 458 -17 585 -17 q 238 45 329 -17 q 101 219 147 106 q 54 485 54 332 q 100 749 54 636 q 236 923 147 862 q 454 985 326 985 q 631 949 553 985 q 717 986 685 949 q 749 1081 749 1022 q 746 1126 749 1108 q 738 1160 744 1143 l 882 1160 q 890 1122 888 1142 q 892 1060 892 1101 m 458 132 q 569 172 520 132 q 647 292 618 211 q 675 489 675 372 q 617 750 675 660 q 454 840 559 840 q 296 750 352 840 q 240 488 240 660 q 267 290 240 369 q 343 171 294 210 q 458 132 392 132 z "},"Ỡ":{"ha":914,"x_min":54,"x_max":892,"o":"m 367 1140 q 321 1124 343 1140 q 286 1074 299 1107 l 214 1131 q 277 1223 237 1187 q 368 1258 318 1258 q 434 1247 409 1258 q 479 1214 458 1235 q 510 1191 494 1199 q 549 1183 526 1183 q 595 1202 574 1183 q 622 1256 615 1221 l 700 1196 q 674 1132 696 1163 q 619 1082 653 1101 q 547 1063 586 1063 q 484 1074 508 1063 q 436 1107 460 1085 q 403 1132 418 1124 q 367 1140 388 1140 m 892 1060 q 870 970 892 1012 q 816 899 849 928 q 746 862 783 871 q 831 700 802 796 q 860 485 860 604 q 813 219 860 332 q 676 45 766 106 q 458 -17 585 -17 q 238 45 329 -17 q 101 219 147 106 q 54 485 54 332 q 100 749 54 636 q 236 923 147 862 q 454 985 326 985 q 631 949 553 985 q 717 986 685 949 q 749 1081 749 1022 q 746 1126 749 1108 q 738 1160 744 1143 l 882 1160 q 890 1122 888 1142 q 892 1060 892 1101 m 458 132 q 569 172 520 132 q 647 292 618 211 q 675 489 675 372 q 617 750 675 660 q 454 840 559 840 q 296 750 352 840 q 240 488 240 660 q 267 290 240 369 q 343 171 294 210 q 458 132 392 132 z "},"Ő":{"ha":914,"x_min":54,"x_max":860,"o":"m 458 -17 q 238 45 329 -17 q 101 219 147 106 q 54 485 54 332 q 100 749 54 636 q 236 923 147 862 q 454 985 326 985 q 678 923 587 985 q 814 748 769 860 q 860 485 860 635 q 813 219 860 332 q 676 45 766 106 q 458 -17 585 -17 m 458 132 q 569 172 520 132 q 647 292 618 211 q 675 489 675 372 q 617 750 675 660 q 454 840 559 840 q 296 750 352 840 q 240 488 240 660 q 267 290 240 369 q 343 171 294 210 q 458 132 392 132 m 367 1313 l 518 1313 l 342 1058 l 221 1058 l 367 1313 m 658 1313 l 808 1313 l 632 1058 l 511 1058 l 658 1313 z "},"Ȏ":{"ha":914,"x_min":54,"x_max":860,"o":"m 458 -17 q 238 45 329 -17 q 101 219 147 106 q 54 485 54 332 q 100 749 54 636 q 236 923 147 862 q 454 985 326 985 q 678 923 587 985 q 814 748 769 860 q 860 485 860 635 q 813 219 860 332 q 676 45 766 106 q 458 -17 585 -17 m 458 132 q 569 172 520 132 q 647 292 618 211 q 675 489 675 372 q 617 750 675 660 q 454 840 559 840 q 296 750 352 840 q 240 488 240 660 q 267 290 240 369 q 343 171 294 210 q 458 132 392 132 m 224 1058 q 253 1194 224 1138 q 335 1278 282 1250 q 457 1307 388 1307 q 579 1279 526 1307 q 662 1195 632 1251 q 692 1058 692 1140 l 564 1058 q 553 1125 563 1100 q 522 1164 544 1151 q 457 1176 499 1176 q 394 1164 417 1176 q 361 1127 371 1152 q 350 1058 351 1101 l 224 1058 z "},"Ō":{"ha":914,"x_min":54,"x_max":860,"o":"m 458 -17 q 238 45 329 -17 q 101 219 147 106 q 54 485 54 332 q 100 749 54 636 q 236 923 147 862 q 454 985 326 985 q 678 923 587 985 q 814 748 769 860 q 860 485 860 635 q 813 219 860 332 q 676 45 766 106 q 458 -17 585 -17 m 458 132 q 569 172 520 132 q 647 292 618 211 q 675 489 675 372 q 617 750 675 660 q 454 840 559 840 q 296 750 352 840 q 240 488 240 660 q 267 290 240 369 q 343 171 294 210 q 458 132 392 132 m 265 1218 l 649 1218 l 649 1092 l 265 1092 l 265 1218 z "},"Ṓ":{"ha":914,"x_min":54,"x_max":860,"o":"m 458 -17 q 238 45 329 -17 q 101 219 147 106 q 54 485 54 332 q 100 749 54 636 q 236 923 147 862 q 454 985 326 985 q 678 923 587 985 q 814 748 769 860 q 860 485 860 635 q 813 219 860 332 q 676 45 766 106 q 458 -17 585 -17 m 458 132 q 569 172 520 132 q 647 292 618 211 q 675 489 675 372 q 617 750 675 660 q 454 840 559 840 q 296 750 352 840 q 240 488 240 660 q 267 290 240 369 q 343 171 294 210 q 458 132 392 132 m 265 1218 l 649 1218 l 649 1092 l 265 1092 l 265 1218 m 514 1560 l 685 1560 l 511 1306 l 378 1306 l 514 1560 z "},"Ṑ":{"ha":914,"x_min":54,"x_max":860,"o":"m 458 -17 q 238 45 329 -17 q 101 219 147 106 q 54 485 54 332 q 100 749 54 636 q 236 923 147 862 q 454 985 326 985 q 678 923 587 985 q 814 748 769 860 q 860 485 860 635 q 813 219 860 332 q 676 45 766 106 q 458 -17 585 -17 m 458 132 q 569 172 520 132 q 647 292 618 211 q 675 489 675 372 q 617 750 675 660 q 454 840 559 840 q 296 750 352 840 q 240 488 240 660 q 267 290 240 369 q 343 171 294 210 q 458 132 392 132 m 265 1218 l 649 1218 l 649 1092 l 265 1092 l 265 1218 m 243 1560 l 414 1560 l 550 1306 l 417 1306 l 243 1560 z "},"Ǫ":{"ha":914,"x_min":54,"x_max":860,"o":"m 564 -4 q 459 -72 499 -35 q 419 -150 419 -109 q 440 -195 419 -183 q 497 -207 461 -207 q 533 -203 518 -207 q 574 -186 549 -199 l 574 -311 q 457 -333 529 -333 q 304 -293 358 -333 q 250 -178 250 -252 q 288 -85 250 -131 q 385 -11 325 -38 q 204 71 278 6 q 92 242 130 136 q 54 485 54 347 q 100 749 54 636 q 236 923 147 862 q 454 985 326 985 q 678 923 587 985 q 814 748 769 860 q 860 485 860 635 q 826 253 860 355 q 725 85 792 151 q 564 -4 659 19 m 240 488 q 267 290 240 369 q 343 171 294 210 q 458 132 392 132 q 569 172 520 132 q 647 292 618 211 q 675 489 675 372 q 617 750 675 660 q 454 840 559 840 q 296 750 352 840 q 240 488 240 660 z "},"Ø":{"ha":914,"x_min":54,"x_max":860,"o":"m 726 883 q 826 715 792 817 q 860 483 860 613 q 813 218 860 331 q 676 43 766 105 q 458 -18 585 -18 q 253 34 340 -18 l 183 -83 l 88 -31 l 169 106 q 83 267 113 171 q 54 483 54 363 q 100 748 54 635 q 236 923 147 861 q 454 985 326 985 q 635 947 556 985 l 701 1063 l 799 1013 l 726 883 m 454 843 q 296 751 352 843 q 240 486 240 660 q 282 251 240 340 l 572 803 q 454 843 523 843 m 458 128 q 569 168 520 128 q 647 290 618 208 q 675 488 675 371 q 624 740 675 649 l 326 183 q 458 128 379 128 z "},"Ǿ":{"ha":914,"x_min":54,"x_max":860,"o":"m 726 883 q 826 715 792 817 q 860 483 860 613 q 813 218 860 331 q 676 43 766 105 q 458 -18 585 -18 q 253 34 340 -18 l 183 -83 l 88 -31 l 169 106 q 83 267 113 171 q 54 483 54 363 q 100 748 54 635 q 236 923 147 861 q 454 985 326 985 q 635 947 556 985 l 701 1063 l 799 1013 l 726 883 m 454 843 q 296 751 352 843 q 240 486 240 660 q 282 251 240 340 l 572 803 q 454 843 523 843 m 458 128 q 569 168 520 128 q 647 290 618 208 q 675 488 675 371 q 624 740 675 649 l 326 183 q 458 128 379 128 m 514 1313 l 685 1313 l 511 1058 l 378 1058 l 514 1313 z "},"Õ":{"ha":914,"x_min":54,"x_max":860,"o":"m 458 -17 q 238 45 329 -17 q 101 219 147 106 q 54 485 54 332 q 100 749 54 636 q 236 923 147 862 q 454 985 326 985 q 678 923 587 985 q 814 748 769 860 q 860 485 860 635 q 813 219 860 332 q 676 45 766 106 q 458 -17 585 -17 m 458 132 q 569 172 520 132 q 647 292 618 211 q 675 489 675 372 q 617 750 675 660 q 454 840 559 840 q 296 750 352 840 q 240 488 240 660 q 267 290 240 369 q 343 171 294 210 q 458 132 392 132 m 547 1063 q 484 1074 508 1063 q 436 1107 460 1085 q 403 1132 418 1124 q 367 1140 388 1140 q 321 1124 343 1140 q 286 1074 299 1107 l 214 1131 q 277 1223 237 1187 q 368 1258 318 1258 q 434 1247 409 1258 q 479 1214 458 1235 q 510 1191 494 1199 q 549 1183 526 1183 q 595 1202 574 1183 q 622 1256 615 1221 l 700 1196 q 674 1132 696 1163 q 619 1082 653 1101 q 547 1063 586 1063 z "},"Ṍ":{"ha":914,"x_min":54,"x_max":860,"o":"m 458 -17 q 238 45 329 -17 q 101 219 147 106 q 54 485 54 332 q 100 749 54 636 q 236 923 147 862 q 454 985 326 985 q 678 923 587 985 q 814 748 769 860 q 860 485 860 635 q 813 219 860 332 q 676 45 766 106 q 458 -17 585 -17 m 458 132 q 569 172 520 132 q 647 292 618 211 q 675 489 675 372 q 617 750 675 660 q 454 840 559 840 q 296 750 352 840 q 240 488 240 660 q 267 290 240 369 q 343 171 294 210 q 458 132 392 132 m 547 1063 q 484 1074 508 1063 q 436 1107 460 1085 q 403 1132 418 1124 q 367 1140 388 1140 q 321 1124 343 1140 q 286 1074 299 1107 l 214 1131 q 277 1223 237 1187 q 368 1258 318 1258 q 434 1247 409 1258 q 479 1214 458 1235 q 510 1191 494 1199 q 549 1183 526 1183 q 595 1202 574 1183 q 622 1256 615 1221 l 700 1196 q 674 1132 696 1163 q 619 1082 653 1101 q 547 1063 586 1063 m 514 1575 l 685 1575 l 511 1321 l 378 1321 l 514 1575 z "},"Ṏ":{"ha":914,"x_min":54,"x_max":860,"o":"m 458 -17 q 238 45 329 -17 q 101 219 147 106 q 54 485 54 332 q 100 749 54 636 q 236 923 147 862 q 454 985 326 985 q 678 923 587 985 q 814 748 769 860 q 860 485 860 635 q 813 219 860 332 q 676 45 766 106 q 458 -17 585 -17 m 458 132 q 569 172 520 132 q 647 292 618 211 q 675 489 675 372 q 617 750 675 660 q 454 840 559 840 q 296 750 352 840 q 240 488 240 660 q 267 290 240 369 q 343 171 294 210 q 458 132 392 132 m 547 1063 q 484 1074 508 1063 q 436 1107 460 1085 q 403 1132 418 1124 q 367 1140 388 1140 q 321 1124 343 1140 q 286 1074 299 1107 l 214 1131 q 277 1223 237 1187 q 368 1258 318 1258 q 434 1247 409 1258 q 479 1214 458 1235 q 510 1191 494 1199 q 549 1183 526 1183 q 595 1202 574 1183 q 622 1256 615 1221 l 700 1196 q 674 1132 696 1163 q 619 1082 653 1101 q 547 1063 586 1063 m 226 1506 l 410 1506 l 410 1321 l 226 1321 l 226 1506 m 504 1506 l 688 1506 l 688 1321 l 504 1321 l 504 1506 z "},"Ȭ":{"ha":914,"x_min":54,"x_max":860,"o":"m 458 -17 q 238 45 329 -17 q 101 219 147 106 q 54 485 54 332 q 100 749 54 636 q 236 923 147 862 q 454 985 326 985 q 678 923 587 985 q 814 748 769 860 q 860 485 860 635 q 813 219 860 332 q 676 45 766 106 q 458 -17 585 -17 m 458 132 q 569 172 520 132 q 647 292 618 211 q 675 489 675 372 q 617 750 675 660 q 454 840 559 840 q 296 750 352 840 q 240 488 240 660 q 267 290 240 369 q 343 171 294 210 q 458 132 392 132 m 547 1063 q 484 1074 508 1063 q 436 1107 460 1085 q 403 1132 418 1124 q 367 1140 388 1140 q 321 1124 343 1140 q 286 1074 299 1107 l 214 1131 q 277 1223 237 1187 q 368 1258 318 1258 q 434 1247 409 1258 q 479 1214 458 1235 q 510 1191 494 1199 q 549 1183 526 1183 q 595 1202 574 1183 q 622 1256 615 1221 l 700 1196 q 674 1132 696 1163 q 619 1082 653 1101 q 547 1063 586 1063 m 265 1481 l 649 1481 l 649 1354 l 265 1354 l 265 1481 z "},"Œ":{"ha":1267,"x_min":54,"x_max":1210,"o":"m 1210 153 l 1210 0 l 681 0 l 681 51 q 588 -1 642 16 q 458 -18 533 -18 q 238 43 329 -18 q 101 218 147 105 q 54 483 54 331 q 100 748 54 635 q 236 923 147 861 q 454 985 326 985 q 586 967 531 985 q 681 915 642 950 l 681 968 l 1182 968 l 1182 821 l 836 821 l 836 590 l 1114 590 l 1114 443 l 836 443 l 836 153 l 1210 153 m 458 128 q 569 168 520 128 q 647 290 618 208 q 675 488 675 371 q 649 682 675 602 q 573 802 622 762 q 454 843 523 843 q 296 751 352 843 q 240 486 240 660 q 267 288 240 368 q 343 168 294 208 q 458 128 392 128 z "},"P":{"ha":760,"x_min":117,"x_max":732,"o":"m 376 968 q 636 891 540 968 q 732 629 732 813 q 694 445 732 529 q 578 311 657 362 q 382 260 499 260 l 296 260 l 296 0 l 117 0 l 117 968 l 376 968 m 369 406 q 507 460 460 406 q 553 619 553 515 q 535 738 553 692 q 475 806 517 783 q 365 828 434 828 l 296 828 l 296 406 l 369 406 z "},"Þ":{"ha":778,"x_min":117,"x_max":750,"o":"m 375 817 q 651 739 551 817 q 750 483 750 661 q 710 314 750 390 q 583 193 670 238 q 360 147 495 147 l 289 147 l 289 0 l 117 0 l 117 968 l 289 968 l 289 817 l 375 817 m 364 289 q 486 310 440 289 q 551 371 531 331 q 571 474 571 411 q 526 625 571 574 q 371 676 481 676 l 289 676 l 289 289 l 364 289 z "},"Q":{"ha":914,"x_min":54,"x_max":860,"o":"m 860 485 q 801 192 860 313 q 632 19 742 72 l 738 -154 l 578 -240 l 472 -17 l 458 -17 q 238 45 329 -17 q 101 219 147 106 q 54 485 54 332 q 100 749 54 636 q 236 923 147 862 q 454 985 326 985 q 678 923 587 985 q 814 748 769 860 q 860 485 860 635 m 240 488 q 267 290 240 369 q 343 171 294 210 q 458 132 392 132 q 569 172 520 132 q 647 292 618 211 q 675 489 675 372 q 617 750 675 660 q 454 840 559 840 q 296 750 352 840 q 240 488 240 660 z "},"R":{"ha":801,"x_min":117,"x_max":757,"o":"m 542 0 l 293 350 l 293 0 l 117 0 l 117 968 l 386 968 q 731 660 731 968 q 708 525 731 591 q 636 407 686 458 q 507 336 585 356 l 757 0 l 542 0 m 367 438 q 468 466 426 438 q 531 541 510 494 q 553 643 553 588 q 509 784 553 739 q 363 829 465 829 l 293 829 l 293 438 l 367 438 z "},"Ŕ":{"ha":801,"x_min":117,"x_max":757,"o":"m 542 0 l 293 350 l 293 0 l 117 0 l 117 968 l 386 968 q 731 660 731 968 q 708 525 731 591 q 636 407 686 458 q 507 336 585 356 l 757 0 l 542 0 m 367 438 q 468 466 426 438 q 531 541 510 494 q 553 643 553 588 q 509 784 553 739 q 363 829 465 829 l 293 829 l 293 438 l 367 438 m 488 1313 l 658 1313 l 485 1058 l 351 1058 l 488 1313 z "},"Ř":{"ha":801,"x_min":117,"x_max":757,"o":"m 542 0 l 293 350 l 293 0 l 117 0 l 117 968 l 386 968 q 731 660 731 968 q 708 525 731 591 q 636 407 686 458 q 507 336 585 356 l 757 0 l 542 0 m 367 438 q 468 466 426 438 q 531 541 510 494 q 553 643 553 588 q 509 784 553 739 q 363 829 465 829 l 293 829 l 293 438 l 367 438 m 686 1313 l 474 1058 l 388 1058 l 169 1313 l 308 1313 l 431 1195 l 546 1313 l 686 1313 z "},"Ŗ":{"ha":801,"x_min":117,"x_max":757,"o":"m 542 0 l 293 350 l 293 0 l 117 0 l 117 968 l 386 968 q 731 660 731 968 q 708 525 731 591 q 636 407 686 458 q 507 336 585 356 l 757 0 l 542 0 m 367 438 q 468 466 426 438 q 531 541 510 494 q 553 643 553 588 q 509 784 553 739 q 363 829 465 829 l 293 829 l 293 438 l 367 438 m 307 -382 q 329 -196 329 -301 q 328 -128 329 -151 l 492 -128 q 492 -147 492 -131 l 492 -186 q 476 -291 492 -237 q 435 -382 460 -346 l 307 -382 z "},"Ȑ":{"ha":801,"x_min":69,"x_max":757,"o":"m 542 0 l 293 350 l 293 0 l 117 0 l 117 968 l 386 968 q 731 660 731 968 q 708 525 731 591 q 636 407 686 458 q 507 336 585 356 l 757 0 l 542 0 m 367 438 q 468 466 426 438 q 531 541 510 494 q 553 643 553 588 q 509 784 553 739 q 363 829 465 829 l 293 829 l 293 438 l 367 438 m 69 1313 l 222 1313 l 369 1058 l 249 1058 l 69 1313 m 363 1313 l 514 1313 l 660 1058 l 539 1058 l 363 1313 z "},"Ṛ":{"ha":801,"x_min":117,"x_max":757,"o":"m 542 0 l 293 350 l 293 0 l 117 0 l 117 968 l 386 968 q 731 660 731 968 q 708 525 731 591 q 636 407 686 458 q 507 336 585 356 l 757 0 l 542 0 m 367 438 q 468 466 426 438 q 531 541 510 494 q 553 643 553 588 q 509 784 553 739 q 363 829 465 829 l 293 829 l 293 438 l 367 438 m 314 -118 l 503 -118 l 503 -304 l 314 -304 l 314 -118 z "},"Ȓ":{"ha":801,"x_min":117,"x_max":757,"o":"m 542 0 l 293 350 l 293 0 l 117 0 l 117 968 l 386 968 q 731 660 731 968 q 708 525 731 591 q 636 407 686 458 q 507 336 585 356 l 757 0 l 542 0 m 367 438 q 468 466 426 438 q 531 541 510 494 q 553 643 553 588 q 509 784 553 739 q 363 829 465 829 l 293 829 l 293 438 l 367 438 m 197 1058 q 226 1194 197 1138 q 308 1278 256 1250 q 431 1307 361 1307 q 553 1279 500 1307 q 635 1195 606 1251 q 665 1058 665 1140 l 538 1058 q 527 1125 536 1100 q 495 1164 518 1151 q 431 1176 472 1176 q 367 1164 390 1176 q 335 1127 344 1152 q 324 1058 325 1101 l 197 1058 z "},"Ṟ":{"ha":801,"x_min":117,"x_max":757,"o":"m 542 0 l 293 350 l 293 0 l 117 0 l 117 968 l 386 968 q 731 660 731 968 q 708 525 731 591 q 636 407 686 458 q 507 336 585 356 l 757 0 l 542 0 m 367 438 q 468 466 426 438 q 531 541 510 494 q 553 643 553 588 q 509 784 553 739 q 363 829 465 829 l 293 829 l 293 438 l 367 438 m 217 -128 l 600 -128 l 600 -254 l 217 -254 l 217 -128 z "},"S":{"ha":700,"x_min":63,"x_max":651,"o":"m 353 -15 q 231 0 288 -15 q 131 40 174 15 q 63 90 88 64 l 133 236 q 182 192 149 215 q 257 151 215 168 q 340 135 299 135 q 432 165 395 135 q 469 250 469 195 q 452 311 469 285 q 407 358 435 338 q 321 414 379 378 q 196 497 241 463 q 118 587 151 531 q 85 722 85 643 q 118 859 85 799 q 215 951 151 918 q 371 985 280 985 q 618 894 519 985 l 540 753 q 505 789 528 769 q 448 823 481 809 q 378 838 415 838 q 295 807 324 838 q 265 729 265 776 q 283 666 265 694 q 330 617 301 639 q 407 567 358 596 q 542 479 495 515 q 620 389 588 444 q 651 256 651 335 q 615 110 651 172 q 512 17 579 49 q 353 -15 444 -15 z "},"Ś":{"ha":700,"x_min":63,"x_max":651,"o":"m 353 -15 q 231 0 288 -15 q 131 40 174 15 q 63 90 88 64 l 133 236 q 182 192 149 215 q 257 151 215 168 q 340 135 299 135 q 432 165 395 135 q 469 250 469 195 q 452 311 469 285 q 407 358 435 338 q 321 414 379 378 q 196 497 241 463 q 118 587 151 531 q 85 722 85 643 q 118 859 85 799 q 215 951 151 918 q 371 985 280 985 q 618 894 519 985 l 540 753 q 505 789 528 769 q 448 823 481 809 q 378 838 415 838 q 295 807 324 838 q 265 729 265 776 q 283 666 265 694 q 330 617 301 639 q 407 567 358 596 q 542 479 495 515 q 620 389 588 444 q 651 256 651 335 q 615 110 651 172 q 512 17 579 49 q 353 -15 444 -15 m 431 1313 l 601 1313 l 428 1058 l 294 1058 l 431 1313 z "},"Ṥ":{"ha":700,"x_min":63,"x_max":651,"o":"m 353 -15 q 231 0 288 -15 q 131 40 174 15 q 63 90 88 64 l 133 236 q 182 192 149 215 q 257 151 215 168 q 340 135 299 135 q 432 165 395 135 q 469 250 469 195 q 452 311 469 285 q 407 358 435 338 q 321 414 379 378 q 196 497 241 463 q 118 587 151 531 q 85 722 85 643 q 118 859 85 799 q 215 951 151 918 q 371 985 280 985 q 618 894 519 985 l 540 753 q 505 789 528 769 q 448 823 481 809 q 378 838 415 838 q 295 807 324 838 q 265 729 265 776 q 283 666 265 694 q 330 617 301 639 q 407 567 358 596 q 542 479 495 515 q 620 389 588 444 q 651 256 651 335 q 615 110 651 172 q 512 17 579 49 q 353 -15 444 -15 m 431 1313 l 601 1313 l 428 1058 l 294 1058 l 431 1313 m 279 1543 l 468 1543 l 468 1357 l 279 1357 l 279 1543 z "},"Š":{"ha":700,"x_min":63,"x_max":651,"o":"m 353 -15 q 231 0 288 -15 q 131 40 174 15 q 63 90 88 64 l 133 236 q 182 192 149 215 q 257 151 215 168 q 340 135 299 135 q 432 165 395 135 q 469 250 469 195 q 452 311 469 285 q 407 358 435 338 q 321 414 379 378 q 196 497 241 463 q 118 587 151 531 q 85 722 85 643 q 118 859 85 799 q 215 951 151 918 q 371 985 280 985 q 618 894 519 985 l 540 753 q 505 789 528 769 q 448 823 481 809 q 378 838 415 838 q 295 807 324 838 q 265 729 265 776 q 283 666 265 694 q 330 617 301 639 q 407 567 358 596 q 542 479 495 515 q 620 389 588 444 q 651 256 651 335 q 615 110 651 172 q 512 17 579 49 q 353 -15 444 -15 m 629 1313 l 417 1058 l 331 1058 l 113 1313 l 251 1313 l 374 1195 l 489 1313 l 629 1313 z "},"Ṧ":{"ha":700,"x_min":63,"x_max":651,"o":"m 353 -15 q 231 0 288 -15 q 131 40 174 15 q 63 90 88 64 l 133 236 q 182 192 149 215 q 257 151 215 168 q 340 135 299 135 q 432 165 395 135 q 469 250 469 195 q 452 311 469 285 q 407 358 435 338 q 321 414 379 378 q 196 497 241 463 q 118 587 151 531 q 85 722 85 643 q 118 859 85 799 q 215 951 151 918 q 371 985 280 985 q 618 894 519 985 l 540 753 q 505 789 528 769 q 448 823 481 809 q 378 838 415 838 q 295 807 324 838 q 265 729 265 776 q 283 666 265 694 q 330 617 301 639 q 407 567 358 596 q 542 479 495 515 q 620 389 588 444 q 651 256 651 335 q 615 110 651 172 q 512 17 579 49 q 353 -15 444 -15 m 629 1313 l 417 1058 l 331 1058 l 113 1313 l 251 1313 l 374 1195 l 489 1313 l 629 1313 m 279 1528 l 468 1528 l 468 1342 l 279 1342 l 279 1528 z "},"Ş":{"ha":700,"x_min":63,"x_max":651,"o":"m 651 256 q 590 75 651 145 q 419 -10 529 6 l 401 -79 q 474 -99 441 -79 q 527 -150 508 -118 q 546 -218 546 -182 q 486 -343 546 -310 q 328 -376 427 -376 q 251 -359 290 -376 q 193 -324 213 -342 l 222 -237 q 274 -260 251 -253 q 319 -267 297 -267 q 380 -248 356 -267 q 403 -204 403 -229 q 376 -154 403 -169 q 310 -139 349 -139 q 286 -141 299 -139 q 268 -143 274 -142 l 296 -12 q 158 26 219 -3 q 63 90 96 55 l 133 236 q 182 192 149 215 q 257 151 215 168 q 340 135 299 135 q 432 165 395 135 q 469 250 469 195 q 452 311 469 285 q 407 358 435 338 q 321 414 379 378 q 196 497 241 463 q 118 587 151 531 q 85 722 85 643 q 118 859 85 799 q 215 951 151 918 q 371 985 280 985 q 618 894 519 985 l 540 753 q 505 789 528 769 q 448 823 481 809 q 378 838 415 838 q 295 807 324 838 q 265 729 265 776 q 283 666 265 694 q 330 617 301 639 q 407 567 358 596 q 542 479 495 515 q 620 389 588 444 q 651 256 651 335 z "},"Ŝ":{"ha":700,"x_min":63,"x_max":651,"o":"m 353 -15 q 231 0 288 -15 q 131 40 174 15 q 63 90 88 64 l 133 236 q 182 192 149 215 q 257 151 215 168 q 340 135 299 135 q 432 165 395 135 q 469 250 469 195 q 452 311 469 285 q 407 358 435 338 q 321 414 379 378 q 196 497 241 463 q 118 587 151 531 q 85 722 85 643 q 118 859 85 799 q 215 951 151 918 q 371 985 280 985 q 618 894 519 985 l 540 753 q 505 789 528 769 q 448 823 481 809 q 378 838 415 838 q 295 807 324 838 q 265 729 265 776 q 283 666 265 694 q 330 617 301 639 q 407 567 358 596 q 542 479 495 515 q 620 389 588 444 q 651 256 651 335 q 615 110 651 172 q 512 17 579 49 q 353 -15 444 -15 m 489 1058 l 374 1176 l 251 1058 l 113 1058 l 331 1313 l 417 1313 l 629 1058 l 489 1058 z "},"Ș":{"ha":700,"x_min":63,"x_max":651,"o":"m 353 -15 q 231 0 288 -15 q 131 40 174 15 q 63 90 88 64 l 133 236 q 182 192 149 215 q 257 151 215 168 q 340 135 299 135 q 432 165 395 135 q 469 250 469 195 q 452 311 469 285 q 407 358 435 338 q 321 414 379 378 q 196 497 241 463 q 118 587 151 531 q 85 722 85 643 q 118 859 85 799 q 215 951 151 918 q 371 985 280 985 q 618 894 519 985 l 540 753 q 505 789 528 769 q 448 823 481 809 q 378 838 415 838 q 295 807 324 838 q 265 729 265 776 q 283 666 265 694 q 330 617 301 639 q 407 567 358 596 q 542 479 495 515 q 620 389 588 444 q 651 256 651 335 q 615 110 651 172 q 512 17 579 49 q 353 -15 444 -15 m 250 -382 q 259 -355 251 -378 q 274 -289 267 -331 q 281 -196 281 -246 q 279 -128 281 -151 l 453 -128 q 453 -147 453 -131 l 453 -186 q 442 -264 453 -229 q 420 -319 432 -298 q 390 -363 408 -340 q 378 -382 380 -376 l 250 -382 z "},"Ṡ":{"ha":700,"x_min":63,"x_max":651,"o":"m 353 -15 q 231 0 288 -15 q 131 40 174 15 q 63 90 88 64 l 133 236 q 182 192 149 215 q 257 151 215 168 q 340 135 299 135 q 432 165 395 135 q 469 250 469 195 q 452 311 469 285 q 407 358 435 338 q 321 414 379 378 q 196 497 241 463 q 118 587 151 531 q 85 722 85 643 q 118 859 85 799 q 215 951 151 918 q 371 985 280 985 q 618 894 519 985 l 540 753 q 505 789 528 769 q 448 823 481 809 q 378 838 415 838 q 295 807 324 838 q 265 729 265 776 q 283 666 265 694 q 330 617 301 639 q 407 567 358 596 q 542 479 495 515 q 620 389 588 444 q 651 256 651 335 q 615 110 651 172 q 512 17 579 49 q 353 -15 444 -15 m 279 1244 l 468 1244 l 468 1058 l 279 1058 l 279 1244 z "},"Ṣ":{"ha":700,"x_min":63,"x_max":651,"o":"m 353 -15 q 231 0 288 -15 q 131 40 174 15 q 63 90 88 64 l 133 236 q 182 192 149 215 q 257 151 215 168 q 340 135 299 135 q 432 165 395 135 q 469 250 469 195 q 452 311 469 285 q 407 358 435 338 q 321 414 379 378 q 196 497 241 463 q 118 587 151 531 q 85 722 85 643 q 118 859 85 799 q 215 951 151 918 q 371 985 280 985 q 618 894 519 985 l 540 753 q 505 789 528 769 q 448 823 481 809 q 378 838 415 838 q 295 807 324 838 q 265 729 265 776 q 283 666 265 694 q 330 617 301 639 q 407 567 358 596 q 542 479 495 515 q 620 389 588 444 q 651 256 651 335 q 615 110 651 172 q 512 17 579 49 q 353 -15 444 -15 m 265 -118 l 454 -118 l 454 -304 l 265 -304 l 265 -118 z "},"Ṩ":{"ha":700,"x_min":63,"x_max":651,"o":"m 353 -15 q 231 0 288 -15 q 131 40 174 15 q 63 90 88 64 l 133 236 q 182 192 149 215 q 257 151 215 168 q 340 135 299 135 q 432 165 395 135 q 469 250 469 195 q 452 311 469 285 q 407 358 435 338 q 321 414 379 378 q 196 497 241 463 q 118 587 151 531 q 85 722 85 643 q 118 859 85 799 q 215 951 151 918 q 371 985 280 985 q 618 894 519 985 l 540 753 q 505 789 528 769 q 448 823 481 809 q 378 838 415 838 q 295 807 324 838 q 265 729 265 776 q 283 666 265 694 q 330 617 301 639 q 407 567 358 596 q 542 479 495 515 q 620 389 588 444 q 651 256 651 335 q 615 110 651 172 q 512 17 579 49 q 353 -15 444 -15 m 265 -118 l 454 -118 l 454 -304 l 265 -304 l 265 -118 m 279 1244 l 468 1244 l 468 1058 l 279 1058 l 279 1244 z "},"ẞ":{"ha":893,"x_min":92,"x_max":801,"o":"m 597 578 q 748 488 694 554 q 801 328 801 422 q 759 145 801 220 q 635 31 716 69 q 442 -8 555 -8 q 332 -3 373 -8 l 336 149 q 372 144 350 146 q 408 142 393 142 q 511 152 468 142 q 584 200 553 162 q 614 314 614 238 q 549 430 614 392 q 375 467 483 467 l 553 828 l 483 828 q 317 731 368 828 q 267 481 267 635 l 267 0 l 92 0 l 92 465 q 139 748 92 636 q 271 914 185 860 q 475 968 357 968 l 790 968 l 799 956 l 597 578 z "},"Ə":{"ha":879,"x_min":54,"x_max":825,"o":"m 438 985 q 643 927 556 985 q 778 761 731 869 q 825 506 825 653 q 777 230 825 347 q 642 49 730 113 q 435 -14 554 -14 q 224 45 309 -14 q 97 212 139 105 q 54 464 54 319 l 54 535 l 640 535 q 607 694 635 627 q 530 795 578 760 q 415 831 481 831 q 285 798 340 831 q 199 728 230 766 l 121 871 q 260 953 178 921 q 438 985 342 985 m 440 128 q 570 199 518 128 q 636 397 622 271 l 240 397 q 261 268 240 329 q 326 167 281 207 q 440 128 371 128 z "},"T":{"ha":676,"x_min":25,"x_max":651,"o":"m 651 811 l 428 811 l 428 0 l 249 0 l 249 811 l 25 811 l 25 968 l 651 968 l 651 811 z "},"Ŧ":{"ha":676,"x_min":25,"x_max":651,"o":"m 428 811 l 428 557 l 608 557 l 608 439 l 428 439 l 428 0 l 249 0 l 249 439 l 99 439 l 99 557 l 249 557 l 249 811 l 25 811 l 25 968 l 651 968 l 651 811 l 428 811 z "},"Ť":{"ha":676,"x_min":25,"x_max":651,"o":"m 651 811 l 428 811 l 428 0 l 249 0 l 249 811 l 25 811 l 25 968 l 651 968 l 651 811 m 594 1313 l 382 1058 l 296 1058 l 78 1313 l 217 1313 l 340 1195 l 454 1313 l 594 1313 z "},"Ţ":{"ha":676,"x_min":25,"x_max":651,"o":"m 401 0 l 381 -79 q 453 -99 420 -79 q 506 -150 487 -118 q 525 -218 525 -182 q 466 -343 525 -310 q 307 -376 406 -376 q 230 -359 269 -376 q 172 -324 192 -342 l 201 -237 q 253 -260 231 -253 q 299 -267 276 -267 q 359 -248 335 -267 q 382 -204 382 -229 q 355 -154 382 -169 q 289 -139 328 -139 q 265 -141 278 -139 q 247 -143 253 -142 l 277 0 l 249 0 l 249 811 l 25 811 l 25 968 l 651 968 l 651 811 l 428 811 l 428 0 l 401 0 z "},"Ț":{"ha":676,"x_min":25,"x_max":651,"o":"m 651 811 l 428 811 l 428 0 l 249 0 l 249 811 l 25 811 l 25 968 l 651 968 l 651 811 m 229 -382 q 239 -355 231 -378 q 253 -289 247 -331 q 260 -196 260 -246 q 258 -128 260 -151 l 432 -128 q 433 -147 433 -131 l 432 -186 q 422 -264 432 -229 q 399 -319 411 -298 q 369 -363 387 -340 q 357 -382 359 -376 l 229 -382 z "},"Ṭ":{"ha":676,"x_min":25,"x_max":651,"o":"m 651 811 l 428 811 l 428 0 l 249 0 l 249 811 l 25 811 l 25 968 l 651 968 l 651 811 m 244 -118 l 433 -118 l 433 -304 l 244 -304 l 244 -118 z "},"Ṯ":{"ha":676,"x_min":25,"x_max":651,"o":"m 651 811 l 428 811 l 428 0 l 249 0 l 249 811 l 25 811 l 25 968 l 651 968 l 651 811 m 147 -128 l 531 -128 l 531 -254 l 147 -254 l 147 -128 z "},"U":{"ha":863,"x_min":92,"x_max":771,"o":"m 436 -18 q 185 66 278 -18 q 92 346 92 151 l 92 968 l 272 968 l 272 326 q 320 175 272 217 q 433 133 369 133 q 544 174 499 133 q 590 326 590 215 l 590 968 l 771 968 l 771 346 q 680 66 771 151 q 436 -18 589 -18 z "},"Ú":{"ha":863,"x_min":92,"x_max":771,"o":"m 436 -18 q 185 66 278 -18 q 92 346 92 151 l 92 968 l 272 968 l 272 326 q 320 175 272 217 q 433 133 369 133 q 544 174 499 133 q 590 326 590 215 l 590 968 l 771 968 l 771 346 q 680 66 771 151 q 436 -18 589 -18 m 488 1313 l 658 1313 l 485 1058 l 351 1058 l 488 1313 z "},"Ŭ":{"ha":863,"x_min":92,"x_max":771,"o":"m 436 -18 q 185 66 278 -18 q 92 346 92 151 l 92 968 l 272 968 l 272 326 q 320 175 272 217 q 433 133 369 133 q 544 174 499 133 q 590 326 590 215 l 590 968 l 771 968 l 771 346 q 680 66 771 151 q 436 -18 589 -18 m 431 1058 q 308 1087 361 1058 q 226 1171 256 1115 q 197 1307 197 1227 l 324 1307 q 335 1239 325 1264 q 367 1201 344 1213 q 431 1189 390 1189 q 495 1202 472 1189 q 527 1240 518 1215 q 538 1307 536 1265 l 665 1307 q 635 1170 665 1226 q 553 1086 606 1114 q 431 1058 500 1058 z "},"Ǔ":{"ha":863,"x_min":92,"x_max":771,"o":"m 436 -18 q 185 66 278 -18 q 92 346 92 151 l 92 968 l 272 968 l 272 326 q 320 175 272 217 q 433 133 369 133 q 544 174 499 133 q 590 326 590 215 l 590 968 l 771 968 l 771 346 q 680 66 771 151 q 436 -18 589 -18 m 686 1313 l 474 1058 l 388 1058 l 169 1313 l 308 1313 l 431 1195 l 546 1313 l 686 1313 z "},"Û":{"ha":863,"x_min":92,"x_max":771,"o":"m 436 -18 q 185 66 278 -18 q 92 346 92 151 l 92 968 l 272 968 l 272 326 q 320 175 272 217 q 433 133 369 133 q 544 174 499 133 q 590 326 590 215 l 590 968 l 771 968 l 771 346 q 680 66 771 151 q 436 -18 589 -18 m 546 1058 l 431 1176 l 308 1058 l 169 1058 l 388 1313 l 474 1313 l 686 1058 l 546 1058 z "},"Ȕ":{"ha":863,"x_min":69,"x_max":771,"o":"m 436 -18 q 185 66 278 -18 q 92 346 92 151 l 92 968 l 272 968 l 272 326 q 320 175 272 217 q 433 133 369 133 q 544 174 499 133 q 590 326 590 215 l 590 968 l 771 968 l 771 346 q 680 66 771 151 q 436 -18 589 -18 m 69 1313 l 222 1313 l 369 1058 l 249 1058 l 69 1313 m 363 1313 l 514 1313 l 660 1058 l 539 1058 l 363 1313 z "},"Ü":{"ha":863,"x_min":92,"x_max":771,"o":"m 436 -18 q 185 66 278 -18 q 92 346 92 151 l 92 968 l 272 968 l 272 326 q 320 175 272 217 q 433 133 369 133 q 544 174 499 133 q 590 326 590 215 l 590 968 l 771 968 l 771 346 q 680 66 771 151 q 436 -18 589 -18 m 200 1243 l 383 1243 l 383 1058 l 200 1058 l 200 1243 m 478 1243 l 661 1243 l 661 1058 l 478 1058 l 478 1243 z "},"Ǘ":{"ha":863,"x_min":92,"x_max":771,"o":"m 436 -18 q 185 66 278 -18 q 92 346 92 151 l 92 968 l 272 968 l 272 326 q 320 175 272 217 q 433 133 369 133 q 544 174 499 133 q 590 326 590 215 l 590 968 l 771 968 l 771 346 q 680 66 771 151 q 436 -18 589 -18 m 200 1243 l 383 1243 l 383 1058 l 200 1058 l 200 1243 m 478 1243 l 661 1243 l 661 1058 l 478 1058 l 478 1243 m 488 1575 l 658 1575 l 485 1321 l 351 1321 l 488 1575 z "},"Ǚ":{"ha":863,"x_min":92,"x_max":771,"o":"m 436 -18 q 185 66 278 -18 q 92 346 92 151 l 92 968 l 272 968 l 272 326 q 320 175 272 217 q 433 133 369 133 q 544 174 499 133 q 590 326 590 215 l 590 968 l 771 968 l 771 346 q 680 66 771 151 q 436 -18 589 -18 m 200 1243 l 383 1243 l 383 1058 l 200 1058 l 200 1243 m 478 1243 l 661 1243 l 661 1058 l 478 1058 l 478 1243 m 686 1575 l 474 1321 l 388 1321 l 169 1575 l 308 1575 l 431 1458 l 546 1575 l 686 1575 z "},"Ǜ":{"ha":863,"x_min":92,"x_max":771,"o":"m 436 -18 q 185 66 278 -18 q 92 346 92 151 l 92 968 l 272 968 l 272 326 q 320 175 272 217 q 433 133 369 133 q 544 174 499 133 q 590 326 590 215 l 590 968 l 771 968 l 771 346 q 680 66 771 151 q 436 -18 589 -18 m 200 1243 l 383 1243 l 383 1058 l 200 1058 l 200 1243 m 478 1243 l 661 1243 l 661 1058 l 478 1058 l 478 1243 m 217 1575 l 388 1575 l 524 1321 l 390 1321 l 217 1575 z "},"Ǖ":{"ha":863,"x_min":92,"x_max":771,"o":"m 436 -18 q 185 66 278 -18 q 92 346 92 151 l 92 968 l 272 968 l 272 326 q 320 175 272 217 q 433 133 369 133 q 544 174 499 133 q 590 326 590 215 l 590 968 l 771 968 l 771 346 q 680 66 771 151 q 436 -18 589 -18 m 200 1243 l 383 1243 l 383 1058 l 200 1058 l 200 1243 m 478 1243 l 661 1243 l 661 1058 l 478 1058 l 478 1243 m 239 1481 l 622 1481 l 622 1354 l 239 1354 l 239 1481 z "},"Ụ":{"ha":863,"x_min":92,"x_max":771,"o":"m 436 -18 q 185 66 278 -18 q 92 346 92 151 l 92 968 l 272 968 l 272 326 q 320 175 272 217 q 433 133 369 133 q 544 174 499 133 q 590 326 590 215 l 590 968 l 771 968 l 771 346 q 680 66 771 151 q 436 -18 589 -18 m 339 -128 l 528 -128 l 528 -314 l 339 -314 l 339 -128 z "},"Ù":{"ha":863,"x_min":92,"x_max":771,"o":"m 436 -18 q 185 66 278 -18 q 92 346 92 151 l 92 968 l 272 968 l 272 326 q 320 175 272 217 q 433 133 369 133 q 544 174 499 133 q 590 326 590 215 l 590 968 l 771 968 l 771 346 q 680 66 771 151 q 436 -18 589 -18 m 217 1313 l 388 1313 l 524 1058 l 390 1058 l 217 1313 z "},"Ủ":{"ha":863,"x_min":92,"x_max":771,"o":"m 436 -18 q 185 66 278 -18 q 92 346 92 151 l 92 968 l 272 968 l 272 326 q 320 175 272 217 q 433 133 369 133 q 544 174 499 133 q 590 326 590 215 l 590 968 l 771 968 l 771 346 q 680 66 771 151 q 436 -18 589 -18 m 446 1058 q 398 1060 414 1058 q 363 1067 383 1061 l 339 1140 q 381 1136 358 1136 q 447 1151 419 1136 q 474 1203 474 1167 q 463 1232 474 1218 q 432 1255 452 1247 q 386 1264 412 1264 q 344 1257 365 1264 q 293 1235 323 1250 l 264 1321 q 301 1344 275 1331 q 360 1365 327 1356 q 425 1374 393 1374 q 513 1359 469 1374 q 586 1309 556 1344 q 617 1215 617 1274 q 596 1141 617 1178 q 537 1082 576 1105 q 446 1058 498 1058 z "},"Ư":{"ha":874,"x_min":92,"x_max":883,"o":"m 883 1060 q 851 955 883 999 q 771 891 819 911 l 771 346 q 680 66 771 151 q 436 -18 589 -18 q 185 66 278 -18 q 92 346 92 151 l 92 968 l 272 968 l 272 326 q 320 175 272 217 q 433 133 369 133 q 544 174 499 133 q 590 326 590 215 l 590 968 l 619 968 q 709 995 677 968 q 740 1081 740 1023 q 738 1126 740 1108 q 729 1160 735 1143 l 874 1160 q 881 1122 879 1142 q 883 1060 883 1101 z "},"Ứ":{"ha":874,"x_min":92,"x_max":883,"o":"m 883 1060 q 851 955 883 999 q 771 891 819 911 l 771 346 q 680 66 771 151 q 436 -18 589 -18 q 185 66 278 -18 q 92 346 92 151 l 92 968 l 272 968 l 272 326 q 320 175 272 217 q 433 133 369 133 q 544 174 499 133 q 590 326 590 215 l 590 968 l 619 968 q 709 995 677 968 q 740 1081 740 1023 q 738 1126 740 1108 q 729 1160 735 1143 l 874 1160 q 881 1122 879 1142 q 883 1060 883 1101 m 493 1313 l 664 1313 l 490 1058 l 357 1058 l 493 1313 z "},"Ự":{"ha":874,"x_min":92,"x_max":883,"o":"m 883 1060 q 851 955 883 999 q 771 891 819 911 l 771 346 q 680 66 771 151 q 436 -18 589 -18 q 185 66 278 -18 q 92 346 92 151 l 92 968 l 272 968 l 272 326 q 320 175 272 217 q 433 133 369 133 q 544 174 499 133 q 590 326 590 215 l 590 968 l 619 968 q 709 995 677 968 q 740 1081 740 1023 q 738 1126 740 1108 q 729 1160 735 1143 l 874 1160 q 881 1122 879 1142 q 883 1060 883 1101 m 344 -128 l 533 -128 l 533 -314 l 344 -314 l 344 -128 z "},"Ừ":{"ha":874,"x_min":92,"x_max":883,"o":"m 883 1060 q 851 955 883 999 q 771 891 819 911 l 771 346 q 680 66 771 151 q 436 -18 589 -18 q 185 66 278 -18 q 92 346 92 151 l 92 968 l 272 968 l 272 326 q 320 175 272 217 q 433 133 369 133 q 544 174 499 133 q 590 326 590 215 l 590 968 l 619 968 q 709 995 677 968 q 740 1081 740 1023 q 738 1126 740 1108 q 729 1160 735 1143 l 874 1160 q 881 1122 879 1142 q 883 1060 883 1101 m 222 1313 l 393 1313 l 529 1058 l 396 1058 l 222 1313 z "},"Ử":{"ha":874,"x_min":92,"x_max":883,"o":"m 883 1060 q 851 955 883 999 q 771 891 819 911 l 771 346 q 680 66 771 151 q 436 -18 589 -18 q 185 66 278 -18 q 92 346 92 151 l 92 968 l 272 968 l 272 326 q 320 175 272 217 q 433 133 369 133 q 544 174 499 133 q 590 326 590 215 l 590 968 l 619 968 q 709 995 677 968 q 740 1081 740 1023 q 738 1126 740 1108 q 729 1160 735 1143 l 874 1160 q 881 1122 879 1142 q 883 1060 883 1101 m 451 1058 q 404 1060 419 1058 q 368 1067 388 1061 l 344 1140 q 386 1136 363 1136 q 452 1151 425 1136 q 479 1203 479 1167 q 468 1232 479 1218 q 438 1255 458 1247 q 392 1264 417 1264 q 350 1257 371 1264 q 299 1235 328 1250 l 269 1321 q 307 1344 281 1331 q 366 1365 333 1356 q 431 1374 399 1374 q 518 1359 475 1374 q 592 1309 562 1344 q 622 1215 622 1274 q 602 1141 622 1178 q 542 1082 581 1105 q 451 1058 503 1058 z "},"Ữ":{"ha":874,"x_min":92,"x_max":883,"o":"m 883 1060 q 851 955 883 999 q 771 891 819 911 l 771 346 q 680 66 771 151 q 436 -18 589 -18 q 185 66 278 -18 q 92 346 92 151 l 92 968 l 272 968 l 272 326 q 320 175 272 217 q 433 133 369 133 q 544 174 499 133 q 590 326 590 215 l 590 968 l 619 968 q 709 995 677 968 q 740 1081 740 1023 q 738 1126 740 1108 q 729 1160 735 1143 l 874 1160 q 881 1122 879 1142 q 883 1060 883 1101 m 526 1063 q 464 1074 488 1063 q 415 1107 440 1085 q 382 1132 397 1124 q 346 1140 367 1140 q 300 1124 322 1140 q 265 1074 278 1107 l 193 1131 q 257 1223 216 1187 q 347 1258 297 1258 q 413 1247 388 1258 q 458 1214 438 1235 q 489 1191 474 1199 q 528 1183 505 1183 q 574 1202 553 1183 q 601 1256 594 1221 l 679 1196 q 653 1132 675 1163 q 599 1082 632 1101 q 526 1063 565 1063 z "},"Ű":{"ha":863,"x_min":92,"x_max":782,"o":"m 436 -18 q 185 66 278 -18 q 92 346 92 151 l 92 968 l 272 968 l 272 326 q 320 175 272 217 q 433 133 369 133 q 544 174 499 133 q 590 326 590 215 l 590 968 l 771 968 l 771 346 q 680 66 771 151 q 436 -18 589 -18 m 340 1313 l 492 1313 l 315 1058 l 194 1058 l 340 1313 m 632 1313 l 782 1313 l 606 1058 l 485 1058 l 632 1313 z "},"Ȗ":{"ha":863,"x_min":92,"x_max":771,"o":"m 436 -18 q 185 66 278 -18 q 92 346 92 151 l 92 968 l 272 968 l 272 326 q 320 175 272 217 q 433 133 369 133 q 544 174 499 133 q 590 326 590 215 l 590 968 l 771 968 l 771 346 q 680 66 771 151 q 436 -18 589 -18 m 197 1058 q 226 1194 197 1138 q 308 1278 256 1250 q 431 1307 361 1307 q 553 1279 500 1307 q 635 1195 606 1251 q 665 1058 665 1140 l 538 1058 q 527 1125 536 1100 q 495 1164 518 1151 q 431 1176 472 1176 q 367 1164 390 1176 q 335 1127 344 1152 q 324 1058 325 1101 l 197 1058 z "},"Ū":{"ha":863,"x_min":92,"x_max":771,"o":"m 436 -18 q 185 66 278 -18 q 92 346 92 151 l 92 968 l 272 968 l 272 326 q 320 175 272 217 q 433 133 369 133 q 544 174 499 133 q 590 326 590 215 l 590 968 l 771 968 l 771 346 q 680 66 771 151 q 436 -18 589 -18 m 239 1218 l 622 1218 l 622 1092 l 239 1092 l 239 1218 z "},"Ṻ":{"ha":863,"x_min":92,"x_max":771,"o":"m 436 -18 q 185 66 278 -18 q 92 346 92 151 l 92 968 l 272 968 l 272 326 q 320 175 272 217 q 433 133 369 133 q 544 174 499 133 q 590 326 590 215 l 590 968 l 771 968 l 771 346 q 680 66 771 151 q 436 -18 589 -18 m 239 1218 l 622 1218 l 622 1092 l 239 1092 l 239 1218 m 200 1490 l 383 1490 l 383 1306 l 200 1306 l 200 1490 m 478 1490 l 661 1490 l 661 1306 l 478 1306 l 478 1490 z "},"Ų":{"ha":863,"x_min":92,"x_max":771,"o":"m 771 968 l 771 346 q 718 116 771 199 q 572 1 665 33 l 575 0 q 464 -69 506 -31 q 421 -150 421 -108 q 442 -195 421 -183 q 499 -207 463 -207 q 535 -203 519 -207 q 575 -186 550 -199 l 575 -311 q 458 -333 531 -333 q 306 -293 360 -333 q 251 -178 251 -252 q 286 -88 251 -133 q 377 -15 321 -43 q 168 84 245 -1 q 92 346 92 170 l 92 968 l 272 968 l 272 326 q 320 175 272 217 q 433 133 369 133 q 544 174 499 133 q 590 326 590 215 l 590 968 l 771 968 z "},"Ů":{"ha":863,"x_min":92,"x_max":771,"o":"m 436 -18 q 185 66 278 -18 q 92 346 92 151 l 92 968 l 272 968 l 272 326 q 320 175 272 217 q 433 133 369 133 q 544 174 499 133 q 590 326 590 215 l 590 968 l 771 968 l 771 346 q 680 66 771 151 q 436 -18 589 -18 m 431 988 q 335 1011 379 988 q 266 1076 292 1034 q 240 1169 240 1117 q 266 1264 240 1222 q 335 1328 292 1306 q 431 1351 379 1351 q 526 1328 482 1351 q 595 1263 569 1305 q 621 1169 621 1222 q 595 1076 621 1117 q 526 1011 569 1034 q 431 988 482 988 m 431 1076 q 494 1101 469 1076 q 519 1171 519 1125 q 494 1241 519 1219 q 431 1264 469 1264 q 367 1241 392 1264 q 342 1171 342 1219 q 367 1101 342 1125 q 431 1076 392 1076 z "},"Ũ":{"ha":863,"x_min":92,"x_max":771,"o":"m 436 -18 q 185 66 278 -18 q 92 346 92 151 l 92 968 l 272 968 l 272 326 q 320 175 272 217 q 433 133 369 133 q 544 174 499 133 q 590 326 590 215 l 590 968 l 771 968 l 771 346 q 680 66 771 151 q 436 -18 589 -18 m 521 1063 q 458 1074 482 1063 q 410 1107 434 1085 q 376 1132 392 1124 q 340 1140 361 1140 q 294 1124 317 1140 q 260 1074 272 1107 l 188 1131 q 251 1223 210 1187 q 342 1258 292 1258 q 407 1247 383 1258 q 453 1214 432 1235 q 484 1191 468 1199 q 522 1183 499 1183 q 568 1202 548 1183 q 596 1256 589 1221 l 674 1196 q 648 1132 669 1163 q 593 1082 626 1101 q 521 1063 560 1063 z "},"Ṹ":{"ha":863,"x_min":92,"x_max":771,"o":"m 436 -18 q 185 66 278 -18 q 92 346 92 151 l 92 968 l 272 968 l 272 326 q 320 175 272 217 q 433 133 369 133 q 544 174 499 133 q 590 326 590 215 l 590 968 l 771 968 l 771 346 q 680 66 771 151 q 436 -18 589 -18 m 521 1063 q 458 1074 482 1063 q 410 1107 434 1085 q 376 1132 392 1124 q 340 1140 361 1140 q 294 1124 317 1140 q 260 1074 272 1107 l 188 1131 q 251 1223 210 1187 q 342 1258 292 1258 q 407 1247 383 1258 q 453 1214 432 1235 q 484 1191 468 1199 q 522 1183 499 1183 q 568 1202 548 1183 q 596 1256 589 1221 l 674 1196 q 648 1132 669 1163 q 593 1082 626 1101 q 521 1063 560 1063 m 488 1575 l 658 1575 l 485 1321 l 351 1321 l 488 1575 z "},"V":{"ha":763,"x_min":-14,"x_max":776,"o":"m 776 968 l 393 -5 l 371 -5 l -14 968 l 179 968 l 332 542 l 385 380 l 439 542 l 586 968 l 776 968 z "},"W":{"ha":1113,"x_min":-14,"x_max":1126,"o":"m 1126 968 l 806 -2 l 783 -2 l 556 553 l 333 -1 l 310 -1 l -14 968 l 178 968 l 347 406 l 549 968 l 572 968 l 777 408 l 936 968 l 1126 968 z "},"Ẃ":{"ha":1113,"x_min":-14,"x_max":1126,"o":"m 1126 968 l 806 -2 l 783 -2 l 556 553 l 333 -1 l 310 -1 l -14 968 l 178 968 l 347 406 l 549 968 l 572 968 l 777 408 l 936 968 l 1126 968 m 613 1313 l 783 1313 l 610 1058 l 476 1058 l 613 1313 z "},"Ŵ":{"ha":1113,"x_min":-14,"x_max":1126,"o":"m 1126 968 l 806 -2 l 783 -2 l 556 553 l 333 -1 l 310 -1 l -14 968 l 178 968 l 347 406 l 549 968 l 572 968 l 777 408 l 936 968 l 1126 968 m 671 1058 l 556 1176 l 433 1058 l 294 1058 l 513 1313 l 599 1313 l 811 1058 l 671 1058 z "},"Ẅ":{"ha":1113,"x_min":-14,"x_max":1126,"o":"m 1126 968 l 806 -2 l 783 -2 l 556 553 l 333 -1 l 310 -1 l -14 968 l 178 968 l 347 406 l 549 968 l 572 968 l 777 408 l 936 968 l 1126 968 m 325 1243 l 508 1243 l 508 1058 l 325 1058 l 325 1243 m 603 1243 l 786 1243 l 786 1058 l 603 1058 l 603 1243 z "},"Ẁ":{"ha":1113,"x_min":-14,"x_max":1126,"o":"m 1126 968 l 806 -2 l 783 -2 l 556 553 l 333 -1 l 310 -1 l -14 968 l 178 968 l 347 406 l 549 968 l 572 968 l 777 408 l 936 968 l 1126 968 m 342 1313 l 513 1313 l 649 1058 l 515 1058 l 342 1313 z "},"X":{"ha":788,"x_min":14,"x_max":774,"o":"m 560 0 l 387 374 l 221 0 l 14 0 l 269 499 l 18 968 l 226 968 l 397 599 l 563 968 l 767 968 l 514 481 l 774 0 l 560 0 z "},"Y":{"ha":747,"x_min":-21,"x_max":768,"o":"m 463 378 l 463 0 l 285 0 l 285 391 l -21 968 l 175 968 l 378 547 l 574 968 l 768 968 l 463 378 z "},"Ý":{"ha":747,"x_min":-21,"x_max":768,"o":"m 463 378 l 463 0 l 285 0 l 285 391 l -21 968 l 175 968 l 378 547 l 574 968 l 768 968 l 463 378 m 449 1313 l 619 1313 l 446 1058 l 313 1058 l 449 1313 z "},"Ŷ":{"ha":747,"x_min":-21,"x_max":768,"o":"m 463 378 l 463 0 l 285 0 l 285 391 l -21 968 l 175 968 l 378 547 l 574 968 l 768 968 l 463 378 m 507 1058 l 392 1176 l 269 1058 l 131 1058 l 349 1313 l 435 1313 l 647 1058 l 507 1058 z "},"Ÿ":{"ha":747,"x_min":-21,"x_max":768,"o":"m 463 378 l 463 0 l 285 0 l 285 391 l -21 968 l 175 968 l 378 547 l 574 968 l 768 968 l 463 378 m 161 1243 l 344 1243 l 344 1058 l 161 1058 l 161 1243 m 439 1243 l 622 1243 l 622 1058 l 439 1058 l 439 1243 z "},"Ẏ":{"ha":747,"x_min":-21,"x_max":768,"o":"m 463 378 l 463 0 l 285 0 l 285 391 l -21 968 l 175 968 l 378 547 l 574 968 l 768 968 l 463 378 m 297 1244 l 486 1244 l 486 1058 l 297 1058 l 297 1244 z "},"Ỵ":{"ha":747,"x_min":-21,"x_max":768,"o":"m 463 378 l 463 0 l 285 0 l 285 391 l -21 968 l 175 968 l 378 547 l 574 968 l 768 968 l 463 378 m 283 -128 l 472 -128 l 472 -314 l 283 -314 l 283 -128 z "},"Ỳ":{"ha":747,"x_min":-21,"x_max":768,"o":"m 463 378 l 463 0 l 285 0 l 285 391 l -21 968 l 175 968 l 378 547 l 574 968 l 768 968 l 463 378 m 178 1313 l 349 1313 l 485 1058 l 351 1058 l 178 1313 z "},"Ỷ":{"ha":747,"x_min":-21,"x_max":768,"o":"m 463 378 l 463 0 l 285 0 l 285 391 l -21 968 l 175 968 l 378 547 l 574 968 l 768 968 l 463 378 m 407 1058 q 359 1060 375 1058 q 324 1067 344 1061 l 300 1140 q 342 1136 319 1136 q 408 1151 381 1136 q 435 1203 435 1167 q 424 1232 435 1218 q 393 1255 413 1247 q 347 1264 373 1264 q 305 1257 326 1264 q 254 1235 284 1250 l 225 1321 q 262 1344 236 1331 q 321 1365 288 1356 q 386 1374 354 1374 q 474 1359 431 1374 q 548 1309 517 1344 q 578 1215 578 1274 q 557 1141 578 1178 q 498 1082 537 1105 q 407 1058 459 1058 z "},"Ȳ":{"ha":747,"x_min":-21,"x_max":768,"o":"m 463 378 l 463 0 l 285 0 l 285 391 l -21 968 l 175 968 l 378 547 l 574 968 l 768 968 l 463 378 m 200 1218 l 583 1218 l 583 1092 l 200 1092 l 200 1218 z "},"Ỹ":{"ha":747,"x_min":-21,"x_max":768,"o":"m 463 378 l 463 0 l 285 0 l 285 391 l -21 968 l 175 968 l 378 547 l 574 968 l 768 968 l 463 378 m 482 1063 q 419 1074 443 1063 q 371 1107 395 1085 q 338 1132 353 1124 q 301 1140 322 1140 q 256 1124 278 1140 q 221 1074 233 1107 l 149 1131 q 212 1223 172 1187 q 303 1258 253 1258 q 368 1247 344 1258 q 414 1214 393 1235 q 445 1191 429 1199 q 483 1183 460 1183 q 530 1202 509 1183 q 557 1256 550 1221 l 635 1196 q 609 1132 631 1163 q 554 1082 588 1101 q 482 1063 521 1063 z "},"Z":{"ha":728,"x_min":42,"x_max":689,"o":"m 308 150 l 671 150 l 671 0 l 42 0 l 427 818 l 88 818 l 88 968 l 689 968 l 308 150 z "},"Ź":{"ha":728,"x_min":42,"x_max":689,"o":"m 308 150 l 671 150 l 671 0 l 42 0 l 427 818 l 88 818 l 88 968 l 689 968 l 308 150 m 446 1313 l 617 1313 l 443 1058 l 310 1058 l 446 1313 z "},"Ž":{"ha":728,"x_min":42,"x_max":689,"o":"m 308 150 l 671 150 l 671 0 l 42 0 l 427 818 l 88 818 l 88 968 l 689 968 l 308 150 m 644 1313 l 432 1058 l 346 1058 l 128 1313 l 267 1313 l 390 1195 l 504 1313 l 644 1313 z "},"Ż":{"ha":728,"x_min":42,"x_max":689,"o":"m 308 150 l 671 150 l 671 0 l 42 0 l 427 818 l 88 818 l 88 968 l 689 968 l 308 150 m 294 1244 l 483 1244 l 483 1058 l 294 1058 l 294 1244 z "},"Ẓ":{"ha":728,"x_min":42,"x_max":689,"o":"m 308 150 l 671 150 l 671 0 l 42 0 l 427 818 l 88 818 l 88 968 l 689 968 l 308 150 m 258 -118 l 447 -118 l 447 -304 l 258 -304 l 258 -118 z "},"a":{"ha":690,"x_min":53,"x_max":607,"o":"m 242 -19 q 138 8 180 -19 q 74 83 95 36 q 53 189 53 131 q 86 290 53 240 q 206 376 120 340 q 439 411 292 411 l 439 443 q 411 531 439 500 q 315 563 384 563 q 209 544 261 563 q 133 499 158 526 l 78 632 q 195 686 125 664 q 344 708 265 708 q 502 678 444 708 q 583 592 560 647 q 607 454 607 536 l 607 0 l 458 0 l 446 99 q 359 10 409 39 q 242 -19 308 -19 m 315 114 q 383 140 347 114 q 439 204 418 165 l 439 303 q 406 304 429 304 q 280 281 335 304 q 225 206 225 258 q 247 135 225 156 q 315 114 269 114 z "},"á":{"ha":690,"x_min":53,"x_max":607,"o":"m 242 -19 q 138 8 180 -19 q 74 83 95 36 q 53 189 53 131 q 86 290 53 240 q 206 376 120 340 q 439 411 292 411 l 439 443 q 411 531 439 500 q 315 563 384 563 q 209 544 261 563 q 133 499 158 526 l 78 632 q 195 686 125 664 q 344 708 265 708 q 502 678 444 708 q 583 592 560 647 q 607 454 607 536 l 607 0 l 458 0 l 446 99 q 359 10 409 39 q 242 -19 308 -19 m 315 114 q 383 140 347 114 q 439 204 418 165 l 439 303 q 406 304 429 304 q 280 281 335 304 q 225 206 225 258 q 247 135 225 156 q 315 114 269 114 m 407 1085 l 596 1085 l 422 804 l 271 804 l 407 1085 z "},"ă":{"ha":690,"x_min":53,"x_max":607,"o":"m 242 -19 q 138 8 180 -19 q 74 83 95 36 q 53 189 53 131 q 86 290 53 240 q 206 376 120 340 q 439 411 292 411 l 439 443 q 411 531 439 500 q 315 563 384 563 q 209 544 261 563 q 133 499 158 526 l 78 632 q 195 686 125 664 q 344 708 265 708 q 502 678 444 708 q 583 592 560 647 q 607 454 607 536 l 607 0 l 458 0 l 446 99 q 359 10 409 39 q 242 -19 308 -19 m 315 114 q 383 140 347 114 q 439 204 418 165 l 439 303 q 406 304 429 304 q 280 281 335 304 q 225 206 225 258 q 247 135 225 156 q 315 114 269 114 m 343 810 q 221 838 274 810 q 139 923 168 867 q 110 1058 110 978 l 236 1058 q 261 963 238 993 q 343 933 284 933 q 407 948 384 933 q 438 990 429 963 q 449 1058 447 1017 l 576 1058 q 547 921 576 977 q 465 838 517 865 q 343 810 413 810 z "},"ắ":{"ha":690,"x_min":53,"x_max":607,"o":"m 242 -19 q 138 8 180 -19 q 74 83 95 36 q 53 189 53 131 q 86 290 53 240 q 206 376 120 340 q 439 411 292 411 l 439 443 q 411 531 439 500 q 315 563 384 563 q 209 544 261 563 q 133 499 158 526 l 78 632 q 195 686 125 664 q 344 708 265 708 q 502 678 444 708 q 583 592 560 647 q 607 454 607 536 l 607 0 l 458 0 l 446 99 q 359 10 409 39 q 242 -19 308 -19 m 315 114 q 383 140 347 114 q 439 204 418 165 l 439 303 q 406 304 429 304 q 280 281 335 304 q 225 206 225 258 q 247 135 225 156 q 315 114 269 114 m 369 1281 l 528 1281 l 381 1075 l 258 1075 l 369 1281 m 343 797 q 186 856 244 797 q 129 1026 129 914 l 239 1026 q 264 939 241 966 q 343 913 287 913 q 422 940 399 913 q 446 1026 444 968 l 557 1026 q 500 855 557 913 q 343 797 442 797 z "},"ặ":{"ha":690,"x_min":53,"x_max":607,"o":"m 242 -19 q 138 8 180 -19 q 74 83 95 36 q 53 189 53 131 q 86 290 53 240 q 206 376 120 340 q 439 411 292 411 l 439 443 q 411 531 439 500 q 315 563 384 563 q 209 544 261 563 q 133 499 158 526 l 78 632 q 195 686 125 664 q 344 708 265 708 q 502 678 444 708 q 583 592 560 647 q 607 454 607 536 l 607 0 l 458 0 l 446 99 q 359 10 409 39 q 242 -19 308 -19 m 315 114 q 383 140 347 114 q 439 204 418 165 l 439 303 q 406 304 429 304 q 280 281 335 304 q 225 206 225 258 q 247 135 225 156 q 315 114 269 114 m 214 -128 l 403 -128 l 403 -314 l 214 -314 l 214 -128 m 343 810 q 221 838 274 810 q 139 923 168 867 q 110 1058 110 978 l 236 1058 q 261 963 238 993 q 343 933 284 933 q 407 948 384 933 q 438 990 429 963 q 449 1058 447 1017 l 576 1058 q 547 921 576 977 q 465 838 517 865 q 343 810 413 810 z "},"ằ":{"ha":690,"x_min":53,"x_max":607,"o":"m 242 -19 q 138 8 180 -19 q 74 83 95 36 q 53 189 53 131 q 86 290 53 240 q 206 376 120 340 q 439 411 292 411 l 439 443 q 411 531 439 500 q 315 563 384 563 q 209 544 261 563 q 133 499 158 526 l 78 632 q 195 686 125 664 q 344 708 265 708 q 502 678 444 708 q 583 592 560 647 q 607 454 607 536 l 607 0 l 458 0 l 446 99 q 359 10 409 39 q 242 -19 308 -19 m 315 114 q 383 140 347 114 q 439 204 418 165 l 439 303 q 406 304 429 304 q 280 281 335 304 q 225 206 225 258 q 247 135 225 156 q 315 114 269 114 m 151 1301 l 310 1301 l 421 1096 l 297 1096 l 151 1301 m 343 818 q 186 876 244 818 q 129 1047 129 935 l 239 1047 q 264 960 241 987 q 343 933 287 933 q 422 961 399 933 q 446 1047 444 989 l 557 1047 q 500 876 557 933 q 343 818 442 818 z "},"ẳ":{"ha":690,"x_min":53,"x_max":607,"o":"m 242 -19 q 138 8 180 -19 q 74 83 95 36 q 53 189 53 131 q 86 290 53 240 q 206 376 120 340 q 439 411 292 411 l 439 443 q 411 531 439 500 q 315 563 384 563 q 209 544 261 563 q 133 499 158 526 l 78 632 q 195 686 125 664 q 344 708 265 708 q 502 678 444 708 q 583 592 560 647 q 607 454 607 536 l 607 0 l 458 0 l 446 99 q 359 10 409 39 q 242 -19 308 -19 m 315 114 q 383 140 347 114 q 439 204 418 165 l 439 303 q 406 304 429 304 q 280 281 335 304 q 225 206 225 258 q 247 135 225 156 q 315 114 269 114 m 322 1088 q 286 1092 299 1088 l 265 1157 q 301 1154 288 1154 q 358 1167 335 1154 q 381 1210 381 1179 q 360 1246 381 1231 q 306 1261 339 1261 q 226 1236 272 1261 l 201 1311 q 260 1341 220 1326 q 339 1356 301 1356 q 414 1343 376 1356 q 477 1300 451 1331 q 503 1221 503 1270 q 485 1158 503 1189 q 434 1107 467 1127 q 357 1088 401 1088 l 322 1088 m 343 818 q 186 876 244 818 q 129 1047 129 935 l 239 1047 q 264 960 241 987 q 343 933 287 933 q 422 961 399 933 q 446 1047 444 989 l 557 1047 q 500 876 557 933 q 343 818 442 818 z "},"ẵ":{"ha":690,"x_min":53,"x_max":607,"o":"m 242 -19 q 138 8 180 -19 q 74 83 95 36 q 53 189 53 131 q 86 290 53 240 q 206 376 120 340 q 439 411 292 411 l 439 443 q 411 531 439 500 q 315 563 384 563 q 209 544 261 563 q 133 499 158 526 l 78 632 q 195 686 125 664 q 344 708 265 708 q 502 678 444 708 q 583 592 560 647 q 607 454 607 536 l 607 0 l 458 0 l 446 99 q 359 10 409 39 q 242 -19 308 -19 m 315 114 q 383 140 347 114 q 439 204 418 165 l 439 303 q 406 304 429 304 q 280 281 335 304 q 225 206 225 258 q 247 135 225 156 q 315 114 269 114 m 442 1125 q 384 1136 410 1125 q 331 1167 357 1148 q 295 1189 308 1183 q 272 1194 283 1194 q 228 1182 247 1194 q 203 1138 209 1170 l 133 1185 q 148 1241 133 1215 q 191 1282 163 1267 q 254 1297 218 1297 q 311 1287 286 1297 q 361 1258 337 1276 q 396 1238 381 1244 q 428 1231 412 1231 q 459 1233 448 1231 q 476 1247 469 1235 q 483 1283 483 1258 l 553 1235 q 540 1180 553 1205 q 501 1140 526 1155 q 442 1125 476 1125 m 343 818 q 186 876 244 818 q 129 1047 129 935 l 239 1047 q 264 960 241 987 q 343 933 287 933 q 422 961 399 933 q 446 1047 444 989 l 557 1047 q 500 876 557 933 q 343 818 442 818 z "},"ǎ":{"ha":690,"x_min":53,"x_max":607,"o":"m 242 -19 q 138 8 180 -19 q 74 83 95 36 q 53 189 53 131 q 86 290 53 240 q 206 376 120 340 q 439 411 292 411 l 439 443 q 411 531 439 500 q 315 563 384 563 q 209 544 261 563 q 133 499 158 526 l 78 632 q 195 686 125 664 q 344 708 265 708 q 502 678 444 708 q 583 592 560 647 q 607 454 607 536 l 607 0 l 458 0 l 446 99 q 359 10 409 39 q 242 -19 308 -19 m 315 114 q 383 140 347 114 q 439 204 418 165 l 439 303 q 406 304 429 304 q 280 281 335 304 q 225 206 225 258 q 247 135 225 156 q 315 114 269 114 m 585 1085 l 386 804 l 300 804 l 101 1085 l 240 1085 l 344 951 l 444 1085 l 585 1085 z "},"â":{"ha":690,"x_min":53,"x_max":607,"o":"m 242 -19 q 138 8 180 -19 q 74 83 95 36 q 53 189 53 131 q 86 290 53 240 q 206 376 120 340 q 439 411 292 411 l 439 443 q 411 531 439 500 q 315 563 384 563 q 209 544 261 563 q 133 499 158 526 l 78 632 q 195 686 125 664 q 344 708 265 708 q 502 678 444 708 q 583 592 560 647 q 607 454 607 536 l 607 0 l 458 0 l 446 99 q 359 10 409 39 q 242 -19 308 -19 m 315 114 q 383 140 347 114 q 439 204 418 165 l 439 303 q 406 304 429 304 q 280 281 335 304 q 225 206 225 258 q 247 135 225 156 q 315 114 269 114 m 444 804 l 344 938 l 240 804 l 101 804 l 300 1085 l 386 1085 l 585 804 l 444 804 z "},"ấ":{"ha":690,"x_min":53,"x_max":740,"o":"m 242 -19 q 138 8 180 -19 q 74 83 95 36 q 53 189 53 131 q 86 290 53 240 q 206 376 120 340 q 439 411 292 411 l 439 443 q 411 531 439 500 q 315 563 384 563 q 209 544 261 563 q 133 499 158 526 l 78 632 q 195 686 125 664 q 344 708 265 708 q 502 678 444 708 q 583 592 560 647 q 607 454 607 536 l 607 0 l 458 0 l 446 99 q 359 10 409 39 q 242 -19 308 -19 m 315 114 q 383 140 347 114 q 439 204 418 165 l 439 303 q 406 304 429 304 q 280 281 335 304 q 225 206 225 258 q 247 135 225 156 q 315 114 269 114 m 582 1272 l 740 1272 l 594 1065 l 471 1065 l 582 1272 m 303 1068 l 383 1068 l 571 804 l 439 804 l 343 904 l 246 804 l 115 804 l 303 1068 z "},"ậ":{"ha":690,"x_min":53,"x_max":607,"o":"m 242 -19 q 138 8 180 -19 q 74 83 95 36 q 53 189 53 131 q 86 290 53 240 q 206 376 120 340 q 439 411 292 411 l 439 443 q 411 531 439 500 q 315 563 384 563 q 209 544 261 563 q 133 499 158 526 l 78 632 q 195 686 125 664 q 344 708 265 708 q 502 678 444 708 q 583 592 560 647 q 607 454 607 536 l 607 0 l 458 0 l 446 99 q 359 10 409 39 q 242 -19 308 -19 m 315 114 q 383 140 347 114 q 439 204 418 165 l 439 303 q 406 304 429 304 q 280 281 335 304 q 225 206 225 258 q 247 135 225 156 q 315 114 269 114 m 214 -128 l 403 -128 l 403 -314 l 214 -314 l 214 -128 m 444 804 l 344 938 l 240 804 l 101 804 l 300 1085 l 386 1085 l 585 804 l 444 804 z "},"ầ":{"ha":690,"x_min":53,"x_max":635,"o":"m 242 -19 q 138 8 180 -19 q 74 83 95 36 q 53 189 53 131 q 86 290 53 240 q 206 376 120 340 q 439 411 292 411 l 439 443 q 411 531 439 500 q 315 563 384 563 q 209 544 261 563 q 133 499 158 526 l 78 632 q 195 686 125 664 q 344 708 265 708 q 502 678 444 708 q 583 592 560 647 q 607 454 607 536 l 607 0 l 458 0 l 446 99 q 359 10 409 39 q 242 -19 308 -19 m 315 114 q 383 140 347 114 q 439 204 418 165 l 439 303 q 406 304 429 304 q 280 281 335 304 q 225 206 225 258 q 247 135 225 156 q 315 114 269 114 m 365 1272 l 524 1272 l 635 1065 l 513 1065 l 365 1272 m 303 1068 l 383 1068 l 571 804 l 439 804 l 343 904 l 246 804 l 115 804 l 303 1068 z "},"ẩ":{"ha":690,"x_min":53,"x_max":607,"o":"m 242 -19 q 138 8 180 -19 q 74 83 95 36 q 53 189 53 131 q 86 290 53 240 q 206 376 120 340 q 439 411 292 411 l 439 443 q 411 531 439 500 q 315 563 384 563 q 209 544 261 563 q 133 499 158 526 l 78 632 q 195 686 125 664 q 344 708 265 708 q 502 678 444 708 q 583 592 560 647 q 607 454 607 536 l 607 0 l 458 0 l 446 99 q 359 10 409 39 q 242 -19 308 -19 m 315 114 q 383 140 347 114 q 439 204 418 165 l 439 303 q 406 304 429 304 q 280 281 335 304 q 225 206 225 258 q 247 135 225 156 q 315 114 269 114 m 324 1110 q 288 1114 300 1110 l 267 1179 q 301 1176 289 1176 q 359 1189 336 1176 q 382 1232 382 1201 q 361 1268 382 1253 q 306 1283 340 1283 q 270 1277 289 1283 q 228 1260 252 1272 l 203 1333 q 262 1363 222 1348 q 340 1378 302 1378 q 415 1365 378 1378 q 478 1323 453 1353 q 504 1243 504 1292 q 486 1180 504 1211 q 436 1130 469 1149 q 358 1110 403 1110 l 324 1110 m 303 1068 l 383 1068 l 571 804 l 439 804 l 343 904 l 246 804 l 115 804 l 303 1068 z "},"ẫ":{"ha":690,"x_min":53,"x_max":607,"o":"m 242 -19 q 138 8 180 -19 q 74 83 95 36 q 53 189 53 131 q 86 290 53 240 q 206 376 120 340 q 439 411 292 411 l 439 443 q 411 531 439 500 q 315 563 384 563 q 209 544 261 563 q 133 499 158 526 l 78 632 q 195 686 125 664 q 344 708 265 708 q 502 678 444 708 q 583 592 560 647 q 607 454 607 536 l 607 0 l 458 0 l 446 99 q 359 10 409 39 q 242 -19 308 -19 m 315 114 q 383 140 347 114 q 439 204 418 165 l 439 303 q 406 304 429 304 q 280 281 335 304 q 225 206 225 258 q 247 135 225 156 q 315 114 269 114 m 442 1104 q 384 1116 410 1104 q 331 1146 357 1127 q 295 1168 308 1163 q 272 1174 283 1174 q 228 1161 247 1174 q 203 1117 209 1149 l 133 1164 q 148 1220 133 1194 q 191 1261 163 1246 q 254 1276 218 1276 q 311 1266 286 1276 q 361 1238 337 1256 q 396 1217 381 1224 q 428 1210 412 1210 q 459 1212 448 1210 q 476 1226 469 1215 q 483 1263 483 1238 l 553 1214 q 540 1159 553 1184 q 501 1119 526 1134 q 442 1104 476 1104 m 303 1068 l 383 1068 l 571 804 l 439 804 l 343 904 l 246 804 l 115 804 l 303 1068 z "},"ȁ":{"ha":690,"x_min":-8,"x_max":607,"o":"m 242 -19 q 138 8 180 -19 q 74 83 95 36 q 53 189 53 131 q 86 290 53 240 q 206 376 120 340 q 439 411 292 411 l 439 443 q 411 531 439 500 q 315 563 384 563 q 209 544 261 563 q 133 499 158 526 l 78 632 q 195 686 125 664 q 344 708 265 708 q 502 678 444 708 q 583 592 560 647 q 607 454 607 536 l 607 0 l 458 0 l 446 99 q 359 10 409 39 q 242 -19 308 -19 m 315 114 q 383 140 347 114 q 439 204 418 165 l 439 303 q 406 304 429 304 q 280 281 335 304 q 225 206 225 258 q 247 135 225 156 q 315 114 269 114 m -8 1085 l 142 1085 l 271 804 l 150 804 l -8 1085 m 282 1085 l 433 1085 l 561 804 l 440 804 l 282 1085 z "},"ä":{"ha":690,"x_min":53,"x_max":607,"o":"m 242 -19 q 138 8 180 -19 q 74 83 95 36 q 53 189 53 131 q 86 290 53 240 q 206 376 120 340 q 439 411 292 411 l 439 443 q 411 531 439 500 q 315 563 384 563 q 209 544 261 563 q 133 499 158 526 l 78 632 q 195 686 125 664 q 344 708 265 708 q 502 678 444 708 q 583 592 560 647 q 607 454 607 536 l 607 0 l 458 0 l 446 99 q 359 10 409 39 q 242 -19 308 -19 m 315 114 q 383 140 347 114 q 439 204 418 165 l 439 303 q 406 304 429 304 q 280 281 335 304 q 225 206 225 258 q 247 135 225 156 q 315 114 269 114 m 113 1021 l 296 1021 l 296 836 l 113 836 l 113 1021 m 390 1021 l 574 1021 l 574 836 l 390 836 l 390 1021 z "},"ạ":{"ha":690,"x_min":53,"x_max":607,"o":"m 242 -19 q 138 8 180 -19 q 74 83 95 36 q 53 189 53 131 q 86 290 53 240 q 206 376 120 340 q 439 411 292 411 l 439 443 q 411 531 439 500 q 315 563 384 563 q 209 544 261 563 q 133 499 158 526 l 78 632 q 195 686 125 664 q 344 708 265 708 q 502 678 444 708 q 583 592 560 647 q 607 454 607 536 l 607 0 l 458 0 l 446 99 q 359 10 409 39 q 242 -19 308 -19 m 315 114 q 383 140 347 114 q 439 204 418 165 l 439 303 q 406 304 429 304 q 280 281 335 304 q 225 206 225 258 q 247 135 225 156 q 315 114 269 114 m 214 -128 l 403 -128 l 403 -314 l 214 -314 l 214 -128 z "},"à":{"ha":690,"x_min":53,"x_max":607,"o":"m 242 -19 q 138 8 180 -19 q 74 83 95 36 q 53 189 53 131 q 86 290 53 240 q 206 376 120 340 q 439 411 292 411 l 439 443 q 411 531 439 500 q 315 563 384 563 q 209 544 261 563 q 133 499 158 526 l 78 632 q 195 686 125 664 q 344 708 265 708 q 502 678 444 708 q 583 592 560 647 q 607 454 607 536 l 607 0 l 458 0 l 446 99 q 359 10 409 39 q 242 -19 308 -19 m 315 114 q 383 140 347 114 q 439 204 418 165 l 439 303 q 406 304 429 304 q 280 281 335 304 q 225 206 225 258 q 247 135 225 156 q 315 114 269 114 m 90 1085 l 279 1085 l 415 804 l 264 804 l 90 1085 z "},"ả":{"ha":690,"x_min":53,"x_max":607,"o":"m 242 -19 q 138 8 180 -19 q 74 83 95 36 q 53 189 53 131 q 86 290 53 240 q 206 376 120 340 q 439 411 292 411 l 439 443 q 411 531 439 500 q 315 563 384 563 q 209 544 261 563 q 133 499 158 526 l 78 632 q 195 686 125 664 q 344 708 265 708 q 502 678 444 708 q 583 592 560 647 q 607 454 607 536 l 607 0 l 458 0 l 446 99 q 359 10 409 39 q 242 -19 308 -19 m 315 114 q 383 140 347 114 q 439 204 418 165 l 439 303 q 406 304 429 304 q 280 281 335 304 q 225 206 225 258 q 247 135 225 156 q 315 114 269 114 m 358 799 q 315 801 333 799 q 274 811 298 804 l 251 881 q 293 876 270 876 q 359 892 332 876 q 386 943 386 907 q 375 973 386 958 q 344 995 365 987 q 299 1004 324 1004 q 257 997 278 1004 q 206 975 235 990 l 176 1061 q 214 1084 188 1072 q 273 1105 240 1097 q 338 1114 306 1114 q 425 1099 382 1114 q 499 1049 469 1085 q 529 956 529 1014 q 509 882 529 918 q 449 822 488 845 q 358 799 410 799 z "},"ȃ":{"ha":690,"x_min":53,"x_max":607,"o":"m 242 -19 q 138 8 180 -19 q 74 83 95 36 q 53 189 53 131 q 86 290 53 240 q 206 376 120 340 q 439 411 292 411 l 439 443 q 411 531 439 500 q 315 563 384 563 q 209 544 261 563 q 133 499 158 526 l 78 632 q 195 686 125 664 q 344 708 265 708 q 502 678 444 708 q 583 592 560 647 q 607 454 607 536 l 607 0 l 458 0 l 446 99 q 359 10 409 39 q 242 -19 308 -19 m 315 114 q 383 140 347 114 q 439 204 418 165 l 439 303 q 406 304 429 304 q 280 281 335 304 q 225 206 225 258 q 247 135 225 156 q 315 114 269 114 m 110 804 q 139 940 110 884 q 221 1024 168 996 q 343 1053 274 1053 q 465 1025 413 1053 q 547 941 517 997 q 576 804 576 885 l 449 804 q 424 902 447 869 q 343 936 402 936 q 261 903 285 936 q 236 804 238 871 l 110 804 z "},"ā":{"ha":690,"x_min":53,"x_max":607,"o":"m 242 -19 q 138 8 180 -19 q 74 83 95 36 q 53 189 53 131 q 86 290 53 240 q 206 376 120 340 q 439 411 292 411 l 439 443 q 411 531 439 500 q 315 563 384 563 q 209 544 261 563 q 133 499 158 526 l 78 632 q 195 686 125 664 q 344 708 265 708 q 502 678 444 708 q 583 592 560 647 q 607 454 607 536 l 607 0 l 458 0 l 446 99 q 359 10 409 39 q 242 -19 308 -19 m 315 114 q 383 140 347 114 q 439 204 418 165 l 439 303 q 406 304 429 304 q 280 281 335 304 q 225 206 225 258 q 247 135 225 156 q 315 114 269 114 m 121 946 l 565 946 l 565 819 l 121 819 l 121 946 z "},"ą":{"ha":690,"x_min":53,"x_max":607,"o":"m 607 0 q 495 -69 538 -31 q 453 -150 453 -108 q 474 -195 453 -183 q 531 -207 494 -207 q 567 -203 551 -207 q 607 -186 582 -199 l 607 -311 q 490 -333 563 -333 q 338 -293 392 -333 q 283 -178 283 -252 q 307 -109 283 -144 q 371 -45 331 -74 q 458 0 411 -16 l 446 99 q 359 10 409 39 q 242 -19 308 -19 q 138 8 180 -19 q 74 83 95 36 q 53 189 53 131 q 86 290 53 240 q 206 376 120 340 q 439 411 292 411 l 439 443 q 411 531 439 500 q 315 563 384 563 q 209 544 261 563 q 133 499 158 526 l 78 632 q 195 686 125 664 q 344 708 265 708 q 502 678 444 708 q 583 592 560 647 q 607 454 607 536 l 607 0 m 439 303 q 406 304 429 304 q 280 281 335 304 q 225 206 225 258 q 247 135 225 156 q 315 114 269 114 q 383 140 347 114 q 439 204 418 165 l 439 303 z "},"å":{"ha":690,"x_min":53,"x_max":607,"o":"m 242 -19 q 138 8 180 -19 q 74 83 95 36 q 53 189 53 131 q 86 290 53 240 q 206 376 120 340 q 439 411 292 411 l 439 443 q 411 531 439 500 q 315 563 384 563 q 209 544 261 563 q 133 499 158 526 l 78 632 q 195 686 125 664 q 344 708 265 708 q 502 678 444 708 q 583 592 560 647 q 607 454 607 536 l 607 0 l 458 0 l 446 99 q 359 10 409 39 q 242 -19 308 -19 m 315 114 q 383 140 347 114 q 439 204 418 165 l 439 303 q 406 304 429 304 q 280 281 335 304 q 225 206 225 258 q 247 135 225 156 q 315 114 269 114 m 343 811 q 243 836 289 811 q 169 905 197 861 q 142 1004 142 949 q 169 1105 142 1060 q 243 1173 197 1149 q 343 1197 289 1197 q 444 1173 397 1197 q 518 1104 490 1148 q 546 1004 546 1060 q 518 905 546 949 q 444 836 490 861 q 343 811 397 811 m 343 906 q 410 931 383 906 q 438 1006 438 957 q 411 1080 438 1056 q 343 1104 384 1104 q 276 1080 302 1104 q 250 1006 250 1056 q 276 931 250 957 q 343 906 303 906 z "},"ǻ":{"ha":681,"x_min":53,"x_max":607,"o":"m 336 811 q 236 836 282 811 q 162 905 190 861 q 135 1004 135 949 q 158 1097 135 1056 q 220 1164 181 1138 q 308 1195 260 1189 l 379 1357 l 542 1357 l 430 1176 q 509 1107 479 1152 q 539 1004 539 1062 q 511 905 539 949 q 437 836 483 861 q 336 811 390 811 m 336 1104 q 269 1080 295 1104 q 243 1006 243 1056 q 269 931 243 957 q 336 906 296 906 q 403 931 376 906 q 431 1006 431 957 q 404 1080 431 1056 q 336 1104 377 1104 m 344 708 q 502 678 444 708 q 583 592 560 647 q 607 454 607 536 l 607 0 l 458 0 l 446 99 q 359 10 409 39 q 242 -19 308 -19 q 138 8 180 -19 q 74 83 95 36 q 53 189 53 131 q 86 290 53 240 q 206 376 120 340 q 439 411 292 411 l 439 443 q 411 531 439 500 q 315 563 384 563 q 209 544 261 563 q 133 499 158 526 l 78 632 q 195 686 125 664 q 344 708 265 708 m 439 303 q 406 304 429 304 q 280 281 335 304 q 225 206 225 258 q 247 135 225 156 q 315 114 269 114 q 383 140 347 114 q 439 204 418 165 l 439 303 z "},"ã":{"ha":690,"x_min":53,"x_max":607,"o":"m 242 -19 q 138 8 180 -19 q 74 83 95 36 q 53 189 53 131 q 86 290 53 240 q 206 376 120 340 q 439 411 292 411 l 439 443 q 411 531 439 500 q 315 563 384 563 q 209 544 261 563 q 133 499 158 526 l 78 632 q 195 686 125 664 q 344 708 265 708 q 502 678 444 708 q 583 592 560 647 q 607 454 607 536 l 607 0 l 458 0 l 446 99 q 359 10 409 39 q 242 -19 308 -19 m 315 114 q 383 140 347 114 q 439 204 418 165 l 439 303 q 406 304 429 304 q 280 281 335 304 q 225 206 225 258 q 247 135 225 156 q 315 114 269 114 m 436 804 q 369 816 394 804 q 319 850 344 828 q 285 876 301 867 q 247 885 269 885 q 202 868 223 885 q 167 815 181 851 l 89 875 q 156 972 115 935 q 250 1008 196 1008 q 319 997 294 1008 q 365 964 344 985 q 398 939 383 947 q 439 931 413 931 q 485 950 465 931 q 513 1006 506 969 l 597 943 q 569 877 592 909 q 511 824 546 844 q 436 804 476 804 z "},"æ":{"ha":1067,"x_min":53,"x_max":1006,"o":"m 1006 354 q 1004 289 1006 310 l 586 289 q 633 158 590 204 q 758 113 676 113 q 851 132 801 113 q 924 178 900 151 l 979 46 q 729 -19 881 -19 q 489 101 557 -19 q 376 9 444 37 q 242 -19 308 -19 q 138 7 180 -19 q 74 79 95 33 q 53 183 53 125 q 84 289 53 238 q 198 375 115 340 q 425 411 281 411 l 424 443 q 399 531 424 500 q 311 563 375 563 q 208 544 260 563 q 133 499 157 526 l 78 632 q 194 686 125 664 q 340 708 264 708 q 458 689 412 708 q 531 631 505 669 q 726 708 604 708 q 941 618 876 708 q 1006 354 1006 527 m 831 399 q 805 538 831 500 q 731 576 778 576 q 626 526 663 576 q 585 397 589 476 l 831 399 m 426 303 q 394 304 417 304 q 273 281 325 304 q 221 206 221 258 q 244 135 221 157 q 311 114 267 114 q 373 139 342 114 q 425 204 403 164 l 426 303 z "},"ǽ":{"ha":1067,"x_min":53,"x_max":1006,"o":"m 1006 354 q 1004 289 1006 310 l 586 289 q 633 158 590 204 q 758 113 676 113 q 851 132 801 113 q 924 178 900 151 l 979 46 q 729 -19 881 -19 q 489 101 557 -19 q 376 9 444 37 q 242 -19 308 -19 q 138 7 180 -19 q 74 79 95 33 q 53 183 53 125 q 84 289 53 238 q 198 375 115 340 q 425 411 281 411 l 424 443 q 399 531 424 500 q 311 563 375 563 q 208 544 260 563 q 133 499 157 526 l 78 632 q 194 686 125 664 q 340 708 264 708 q 458 689 412 708 q 531 631 505 669 q 726 708 604 708 q 941 618 876 708 q 1006 354 1006 527 m 831 399 q 805 538 831 500 q 731 576 778 576 q 626 526 663 576 q 585 397 589 476 l 831 399 m 426 303 q 394 304 417 304 q 273 281 325 304 q 221 206 221 258 q 244 135 221 157 q 311 114 267 114 q 373 139 342 114 q 425 204 403 164 l 426 303 m 649 1085 l 838 1085 l 664 804 l 513 804 l 649 1085 z "},"b":{"ha":783,"x_min":108,"x_max":724,"o":"m 447 -19 q 361 2 399 -19 q 297 59 322 23 q 261 138 272 94 l 261 0 l 108 0 l 108 1056 l 275 1056 l 275 692 l 261 572 q 304 648 272 617 q 378 694 336 679 q 463 710 421 710 q 658 618 592 710 q 724 349 724 527 q 687 145 724 228 q 588 22 651 63 q 447 -19 526 -19 m 407 118 q 474 142 443 118 q 523 217 504 165 q 542 349 542 269 q 524 472 542 423 q 476 545 506 522 q 410 568 447 568 q 338 538 368 568 q 293 456 308 508 q 278 338 278 403 q 293 223 278 272 q 338 145 309 173 q 407 118 367 118 z "},"c":{"ha":626,"x_min":60,"x_max":593,"o":"m 375 -17 q 198 32 269 -17 q 93 161 127 80 q 60 343 60 242 q 97 525 60 442 q 208 658 135 608 q 385 708 282 708 q 496 695 449 708 q 588 646 544 681 l 531 499 q 471 546 510 528 q 394 564 432 564 q 243 344 243 564 q 280 177 243 230 q 394 125 317 125 q 480 142 441 125 q 540 185 518 160 l 593 61 q 547 27 578 44 q 472 -4 516 9 q 375 -17 427 -17 z "},"ć":{"ha":626,"x_min":60,"x_max":629,"o":"m 375 -17 q 198 32 269 -17 q 93 161 127 80 q 60 343 60 242 q 97 525 60 442 q 208 658 135 608 q 385 708 282 708 q 496 695 449 708 q 588 646 544 681 l 531 499 q 471 546 510 528 q 394 564 432 564 q 243 344 243 564 q 280 177 243 230 q 394 125 317 125 q 480 142 441 125 q 540 185 518 160 l 593 61 q 547 27 578 44 q 472 -4 516 9 q 375 -17 427 -17 m 440 1085 l 629 1085 l 456 804 l 304 804 l 440 1085 z "},"č":{"ha":626,"x_min":60,"x_max":618,"o":"m 375 -17 q 198 32 269 -17 q 93 161 127 80 q 60 343 60 242 q 97 525 60 442 q 208 658 135 608 q 385 708 282 708 q 496 695 449 708 q 588 646 544 681 l 531 499 q 471 546 510 528 q 394 564 432 564 q 243 344 243 564 q 280 177 243 230 q 394 125 317 125 q 480 142 441 125 q 540 185 518 160 l 593 61 q 547 27 578 44 q 472 -4 516 9 q 375 -17 427 -17 m 618 1085 l 419 804 l 333 804 l 135 1085 l 274 1085 l 377 951 l 478 1085 l 618 1085 z "},"ç":{"ha":626,"x_min":60,"x_max":593,"o":"m 593 61 q 522 15 570 38 q 413 -15 474 -8 l 396 -79 q 469 -99 435 -79 q 521 -150 502 -118 q 540 -218 540 -182 q 481 -343 540 -310 q 322 -376 422 -376 q 245 -359 284 -376 q 188 -324 207 -342 l 217 -237 q 269 -260 246 -253 q 314 -267 292 -267 q 374 -248 351 -267 q 397 -204 397 -229 q 370 -154 397 -169 q 304 -139 344 -139 q 281 -141 293 -139 q 263 -143 268 -142 l 291 -8 q 161 61 213 10 q 85 184 110 112 q 60 343 60 257 q 97 525 60 442 q 208 658 135 608 q 385 708 282 708 q 496 695 449 708 q 588 646 544 681 l 531 499 q 471 546 510 528 q 394 564 432 564 q 243 344 243 564 q 280 177 243 230 q 394 125 317 125 q 480 142 441 125 q 540 185 518 160 l 593 61 z "},"ḉ":{"ha":626,"x_min":60,"x_max":629,"o":"m 456 804 l 304 804 l 440 1085 l 629 1085 l 456 804 m 394 125 q 480 142 441 125 q 540 185 518 160 l 593 61 q 522 15 570 38 q 413 -15 474 -8 l 396 -79 q 469 -99 435 -79 q 521 -150 502 -118 q 540 -218 540 -182 q 481 -343 540 -310 q 322 -376 422 -376 q 245 -359 284 -376 q 188 -324 207 -342 l 217 -237 q 269 -260 246 -253 q 314 -267 292 -267 q 374 -248 351 -267 q 397 -204 397 -229 q 370 -154 397 -169 q 304 -139 344 -139 q 281 -141 293 -139 q 263 -143 268 -142 l 291 -8 q 161 61 213 10 q 85 184 110 112 q 60 343 60 257 q 97 525 60 442 q 208 658 135 608 q 385 708 282 708 q 496 695 449 708 q 588 646 544 681 l 531 499 q 471 546 510 528 q 394 564 432 564 q 243 344 243 564 q 280 177 243 230 q 394 125 317 125 z "},"ĉ":{"ha":626,"x_min":60,"x_max":618,"o":"m 375 -17 q 198 32 269 -17 q 93 161 127 80 q 60 343 60 242 q 97 525 60 442 q 208 658 135 608 q 385 708 282 708 q 496 695 449 708 q 588 646 544 681 l 531 499 q 471 546 510 528 q 394 564 432 564 q 243 344 243 564 q 280 177 243 230 q 394 125 317 125 q 480 142 441 125 q 540 185 518 160 l 593 61 q 547 27 578 44 q 472 -4 516 9 q 375 -17 427 -17 m 478 804 l 377 938 l 274 804 l 135 804 l 333 1085 l 419 1085 l 618 804 l 478 804 z "},"ċ":{"ha":626,"x_min":60,"x_max":593,"o":"m 375 -17 q 198 32 269 -17 q 93 161 127 80 q 60 343 60 242 q 97 525 60 442 q 208 658 135 608 q 385 708 282 708 q 496 695 449 708 q 588 646 544 681 l 531 499 q 471 546 510 528 q 394 564 432 564 q 243 344 243 564 q 280 177 243 230 q 394 125 317 125 q 480 142 441 125 q 540 185 518 160 l 593 61 q 547 27 578 44 q 472 -4 516 9 q 375 -17 427 -17 m 279 989 l 474 989 l 474 804 l 279 804 l 279 989 z "},"d":{"ha":781,"x_min":60,"x_max":672,"o":"m 335 -19 q 189 26 251 -19 q 93 153 127 71 q 60 344 60 235 q 130 613 60 518 q 338 708 201 708 q 458 673 409 708 q 521 572 506 638 l 508 674 l 508 1056 l 672 1056 l 672 0 l 521 0 l 521 142 q 453 24 501 67 q 335 -19 406 -19 m 375 118 q 439 142 410 118 q 486 216 469 165 q 504 342 504 266 q 473 510 504 451 q 379 568 442 568 q 311 547 343 568 q 259 475 280 525 q 239 344 239 425 q 257 219 239 270 q 305 143 274 169 q 375 118 336 118 z "},"ð":{"ha":750,"x_min":64,"x_max":685,"o":"m 451 937 q 627 705 569 850 q 685 390 685 560 q 640 159 685 250 q 523 27 596 69 q 364 -14 451 -14 q 211 29 279 -14 q 103 148 142 72 q 64 319 64 224 q 99 497 64 419 q 198 617 133 574 q 349 660 263 660 q 430 642 395 660 q 485 597 465 624 q 513 542 506 570 q 463 698 506 622 q 360 826 419 774 l 296 742 l 194 807 l 259 890 q 197 917 227 906 q 147 928 166 927 l 190 1046 q 258 1031 217 1044 q 341 999 298 1018 l 418 1096 l 519 1028 l 451 937 m 375 114 q 478 174 443 114 q 513 331 513 234 q 507 427 513 395 q 485 482 501 460 q 439 522 467 506 q 375 538 410 538 q 301 510 333 538 q 253 434 269 482 q 236 328 236 386 q 253 215 236 263 q 301 140 269 167 q 375 114 333 114 z "},"ď":{"ha":917,"x_min":60,"x_max":900,"o":"m 335 -19 q 189 26 251 -19 q 93 153 127 71 q 60 344 60 235 q 130 613 60 518 q 338 708 201 708 q 458 673 409 708 q 521 572 506 638 l 508 674 l 508 1056 l 672 1056 l 672 0 l 521 0 l 521 142 q 453 24 501 67 q 335 -19 406 -19 m 375 118 q 439 142 410 118 q 486 216 469 165 q 504 342 504 266 q 473 510 504 451 q 379 568 442 568 q 311 547 343 568 q 259 475 280 525 q 239 344 239 425 q 257 219 239 270 q 305 143 274 169 q 375 118 336 118 m 739 754 q 756 844 749 783 q 763 967 763 906 q 757 1056 763 1008 l 896 1056 q 900 978 900 1028 q 885 850 900 908 q 854 754 870 792 l 739 754 z "},"đ":{"ha":789,"x_min":60,"x_max":772,"o":"m 772 817 l 672 817 l 672 0 l 521 0 l 521 142 q 453 24 501 67 q 335 -19 406 -19 q 189 26 251 -19 q 93 153 127 71 q 60 344 60 235 q 130 613 60 518 q 338 708 201 708 q 458 673 409 708 q 521 572 506 638 l 508 674 l 508 817 l 389 817 l 389 943 l 508 943 l 508 1056 l 672 1056 l 672 943 l 772 943 l 772 817 m 375 118 q 439 142 410 118 q 486 216 469 165 q 504 342 504 266 q 473 510 504 451 q 379 568 442 568 q 311 547 343 568 q 259 475 280 525 q 239 344 239 425 q 257 219 239 270 q 305 143 274 169 q 375 118 336 118 z "},"ḍ":{"ha":781,"x_min":60,"x_max":672,"o":"m 335 -19 q 189 26 251 -19 q 93 153 127 71 q 60 344 60 235 q 130 613 60 518 q 338 708 201 708 q 458 673 409 708 q 521 572 506 638 l 508 674 l 508 1056 l 672 1056 l 672 0 l 521 0 l 521 142 q 453 24 501 67 q 335 -19 406 -19 m 375 118 q 439 142 410 118 q 486 216 469 165 q 504 342 504 266 q 473 510 504 451 q 379 568 442 568 q 311 547 343 568 q 259 475 280 525 q 239 344 239 425 q 257 219 239 270 q 305 143 274 169 q 375 118 336 118 m 289 -128 l 478 -128 l 478 -314 l 289 -314 l 289 -128 z "},"ḏ":{"ha":781,"x_min":60,"x_max":672,"o":"m 335 -19 q 189 26 251 -19 q 93 153 127 71 q 60 344 60 235 q 130 613 60 518 q 338 708 201 708 q 458 673 409 708 q 521 572 506 638 l 508 674 l 508 1056 l 672 1056 l 672 0 l 521 0 l 521 142 q 453 24 501 67 q 335 -19 406 -19 m 375 118 q 439 142 410 118 q 486 216 469 165 q 504 342 504 266 q 473 510 504 451 q 379 568 442 568 q 311 547 343 568 q 259 475 280 525 q 239 344 239 425 q 257 219 239 270 q 305 143 274 169 q 375 118 336 118 m 161 -128 l 606 -128 l 606 -254 l 161 -254 l 161 -128 z "},"ǆ":{"ha":1397,"x_min":60,"x_max":1379,"o":"m 335 -19 q 189 26 251 -19 q 93 153 127 71 q 60 344 60 235 q 130 613 60 518 q 338 708 201 708 q 458 673 409 708 q 521 572 506 638 l 508 674 l 508 1056 l 672 1056 l 672 0 l 521 0 l 521 142 q 453 24 501 67 q 335 -19 406 -19 m 375 118 q 439 142 410 118 q 486 216 469 165 q 504 342 504 266 q 473 510 504 451 q 379 568 442 568 q 311 547 343 568 q 259 475 280 525 q 239 344 239 425 q 257 219 239 270 q 305 143 274 169 q 375 118 336 118 m 1067 126 l 1351 126 l 1351 0 l 799 0 l 1112 560 l 857 560 l 857 692 l 1379 692 l 1067 126 m 1360 1085 l 1161 804 l 1075 804 l 876 1085 l 1015 1085 l 1119 951 l 1219 1085 l 1360 1085 z "},"e":{"ha":721,"x_min":58,"x_max":660,"o":"m 383 -18 q 199 30 272 -18 q 92 157 126 77 q 58 338 58 237 q 96 525 58 440 q 207 659 134 609 q 381 708 280 708 q 595 622 531 708 q 660 364 660 535 q 657 289 660 331 l 240 289 q 287 159 244 205 q 413 114 330 114 q 505 133 456 114 q 578 179 554 152 l 633 47 q 383 -18 535 -18 m 483 397 q 458 538 483 499 q 385 576 433 576 q 280 526 317 576 q 239 397 243 476 l 483 397 z "},"é":{"ha":721,"x_min":58,"x_max":660,"o":"m 383 -18 q 199 30 272 -18 q 92 157 126 77 q 58 338 58 237 q 96 525 58 440 q 207 659 134 609 q 381 708 280 708 q 595 622 531 708 q 660 364 660 535 q 657 289 660 331 l 240 289 q 287 159 244 205 q 413 114 330 114 q 505 133 456 114 q 578 179 554 152 l 633 47 q 383 -18 535 -18 m 483 397 q 458 538 483 499 q 385 576 433 576 q 280 526 317 576 q 239 397 243 476 l 483 397 m 449 1085 l 638 1085 l 464 804 l 313 804 l 449 1085 z "},"ĕ":{"ha":721,"x_min":58,"x_max":660,"o":"m 383 -18 q 199 30 272 -18 q 92 157 126 77 q 58 338 58 237 q 96 525 58 440 q 207 659 134 609 q 381 708 280 708 q 595 622 531 708 q 660 364 660 535 q 657 289 660 331 l 240 289 q 287 159 244 205 q 413 114 330 114 q 505 133 456 114 q 578 179 554 152 l 633 47 q 383 -18 535 -18 m 483 397 q 458 538 483 499 q 385 576 433 576 q 280 526 317 576 q 239 397 243 476 l 483 397 m 385 810 q 263 838 315 810 q 181 923 210 867 q 151 1058 151 978 l 278 1058 q 303 963 280 993 q 385 933 326 933 q 448 948 426 933 q 480 990 471 963 q 490 1058 489 1017 l 618 1058 q 589 921 618 977 q 507 838 559 865 q 385 810 454 810 z "},"ě":{"ha":721,"x_min":58,"x_max":660,"o":"m 383 -18 q 199 30 272 -18 q 92 157 126 77 q 58 338 58 237 q 96 525 58 440 q 207 659 134 609 q 381 708 280 708 q 595 622 531 708 q 660 364 660 535 q 657 289 660 331 l 240 289 q 287 159 244 205 q 413 114 330 114 q 505 133 456 114 q 578 179 554 152 l 633 47 q 383 -18 535 -18 m 483 397 q 458 538 483 499 q 385 576 433 576 q 280 526 317 576 q 239 397 243 476 l 483 397 m 626 1085 l 428 804 l 342 804 l 143 1085 l 282 1085 l 385 951 l 486 1085 l 626 1085 z "},"ḝ":{"ha":721,"x_min":58,"x_max":660,"o":"m 385 810 q 263 838 315 810 q 181 923 210 867 q 151 1058 151 978 l 278 1058 q 303 963 280 993 q 385 933 326 933 q 448 948 426 933 q 480 990 471 963 q 490 1058 489 1017 l 618 1058 q 589 921 618 977 q 507 838 559 865 q 385 810 454 810 m 660 364 q 657 289 660 331 l 240 289 q 287 159 244 205 q 413 114 330 114 q 505 133 456 114 q 578 179 554 152 l 633 47 q 453 -15 558 -2 l 436 -79 q 509 -99 476 -79 q 561 -150 542 -118 q 581 -218 581 -182 q 521 -343 581 -310 q 363 -376 462 -376 q 286 -359 324 -376 q 228 -324 247 -342 l 257 -237 q 309 -260 286 -253 q 354 -267 332 -267 q 414 -248 391 -267 q 438 -204 438 -229 q 411 -154 438 -169 q 344 -139 384 -139 q 321 -141 333 -139 q 303 -143 308 -142 l 330 -15 q 176 45 237 -4 q 87 170 115 94 q 58 338 58 245 q 96 525 58 440 q 207 659 134 609 q 381 708 280 708 q 595 622 531 708 q 660 364 660 535 m 483 397 q 458 538 483 499 q 385 576 433 576 q 280 526 317 576 q 239 397 243 476 l 483 397 z "},"ê":{"ha":721,"x_min":58,"x_max":660,"o":"m 383 -18 q 199 30 272 -18 q 92 157 126 77 q 58 338 58 237 q 96 525 58 440 q 207 659 134 609 q 381 708 280 708 q 595 622 531 708 q 660 364 660 535 q 657 289 660 331 l 240 289 q 287 159 244 205 q 413 114 330 114 q 505 133 456 114 q 578 179 554 152 l 633 47 q 383 -18 535 -18 m 483 397 q 458 538 483 499 q 385 576 433 576 q 280 526 317 576 q 239 397 243 476 l 483 397 m 486 804 l 385 938 l 282 804 l 143 804 l 342 1085 l 428 1085 l 626 804 l 486 804 z "},"ế":{"ha":721,"x_min":58,"x_max":782,"o":"m 383 -18 q 199 30 272 -18 q 92 157 126 77 q 58 338 58 237 q 96 525 58 440 q 207 659 134 609 q 381 708 280 708 q 595 622 531 708 q 660 364 660 535 q 657 289 660 331 l 240 289 q 287 159 244 205 q 413 114 330 114 q 505 133 456 114 q 578 179 554 152 l 633 47 q 383 -18 535 -18 m 483 397 q 458 538 483 499 q 385 576 433 576 q 280 526 317 576 q 239 397 243 476 l 483 397 m 624 1272 l 782 1272 l 636 1065 l 513 1065 l 624 1272 m 344 1068 l 425 1068 l 613 804 l 481 804 l 385 904 l 288 804 l 157 804 l 344 1068 z "},"ệ":{"ha":721,"x_min":58,"x_max":660,"o":"m 383 -18 q 199 30 272 -18 q 92 157 126 77 q 58 338 58 237 q 96 525 58 440 q 207 659 134 609 q 381 708 280 708 q 595 622 531 708 q 660 364 660 535 q 657 289 660 331 l 240 289 q 287 159 244 205 q 413 114 330 114 q 505 133 456 114 q 578 179 554 152 l 633 47 q 383 -18 535 -18 m 483 397 q 458 538 483 499 q 385 576 433 576 q 280 526 317 576 q 239 397 243 476 l 483 397 m 300 -128 l 489 -128 l 489 -314 l 300 -314 l 300 -128 m 486 804 l 385 938 l 282 804 l 143 804 l 342 1085 l 428 1085 l 626 804 l 486 804 z "},"ề":{"ha":721,"x_min":58,"x_max":676,"o":"m 383 -18 q 199 30 272 -18 q 92 157 126 77 q 58 338 58 237 q 96 525 58 440 q 207 659 134 609 q 381 708 280 708 q 595 622 531 708 q 660 364 660 535 q 657 289 660 331 l 240 289 q 287 159 244 205 q 413 114 330 114 q 505 133 456 114 q 578 179 554 152 l 633 47 q 383 -18 535 -18 m 483 397 q 458 538 483 499 q 385 576 433 576 q 280 526 317 576 q 239 397 243 476 l 483 397 m 407 1272 l 565 1272 l 676 1065 l 554 1065 l 407 1272 m 344 1068 l 425 1068 l 613 804 l 481 804 l 385 904 l 288 804 l 157 804 l 344 1068 z "},"ể":{"ha":721,"x_min":58,"x_max":660,"o":"m 383 -18 q 199 30 272 -18 q 92 157 126 77 q 58 338 58 237 q 96 525 58 440 q 207 659 134 609 q 381 708 280 708 q 595 622 531 708 q 660 364 660 535 q 657 289 660 331 l 240 289 q 287 159 244 205 q 413 114 330 114 q 505 133 456 114 q 578 179 554 152 l 633 47 q 383 -18 535 -18 m 483 397 q 458 538 483 499 q 385 576 433 576 q 280 526 317 576 q 239 397 243 476 l 483 397 m 365 1110 q 329 1114 342 1110 l 308 1179 q 343 1176 331 1176 q 401 1189 378 1176 q 424 1232 424 1201 q 403 1268 424 1253 q 347 1283 382 1283 q 312 1277 331 1283 q 269 1260 294 1272 l 244 1333 q 303 1363 263 1348 q 382 1378 344 1378 q 457 1365 419 1378 q 520 1323 494 1353 q 546 1243 546 1292 q 528 1180 546 1211 q 477 1130 510 1149 q 400 1110 444 1110 l 365 1110 m 344 1068 l 425 1068 l 613 804 l 481 804 l 385 904 l 288 804 l 157 804 l 344 1068 z "},"ễ":{"ha":721,"x_min":58,"x_max":660,"o":"m 383 -18 q 199 30 272 -18 q 92 157 126 77 q 58 338 58 237 q 96 525 58 440 q 207 659 134 609 q 381 708 280 708 q 595 622 531 708 q 660 364 660 535 q 657 289 660 331 l 240 289 q 287 159 244 205 q 413 114 330 114 q 505 133 456 114 q 578 179 554 152 l 633 47 q 383 -18 535 -18 m 483 397 q 458 538 483 499 q 385 576 433 576 q 280 526 317 576 q 239 397 243 476 l 483 397 m 483 1104 q 425 1116 452 1104 q 372 1146 399 1127 q 337 1168 350 1163 q 314 1174 324 1174 q 269 1161 288 1174 q 244 1117 251 1149 l 175 1164 q 190 1220 175 1194 q 232 1261 205 1246 q 296 1276 260 1276 q 353 1266 328 1276 q 403 1238 378 1256 q 438 1217 422 1224 q 469 1210 453 1210 q 500 1212 490 1210 q 518 1226 511 1215 q 525 1263 524 1238 l 594 1214 q 581 1159 594 1184 q 543 1119 568 1134 q 483 1104 517 1104 m 344 1068 l 425 1068 l 613 804 l 481 804 l 385 904 l 288 804 l 157 804 l 344 1068 z "},"ȅ":{"ha":721,"x_min":33,"x_max":660,"o":"m 383 -18 q 199 30 272 -18 q 92 157 126 77 q 58 338 58 237 q 96 525 58 440 q 207 659 134 609 q 381 708 280 708 q 595 622 531 708 q 660 364 660 535 q 657 289 660 331 l 240 289 q 287 159 244 205 q 413 114 330 114 q 505 133 456 114 q 578 179 554 152 l 633 47 q 383 -18 535 -18 m 483 397 q 458 538 483 499 q 385 576 433 576 q 280 526 317 576 q 239 397 243 476 l 483 397 m 33 1085 l 183 1085 l 313 804 l 192 804 l 33 1085 m 324 1085 l 475 1085 l 603 804 l 482 804 l 324 1085 z "},"ë":{"ha":721,"x_min":58,"x_max":660,"o":"m 383 -18 q 199 30 272 -18 q 92 157 126 77 q 58 338 58 237 q 96 525 58 440 q 207 659 134 609 q 381 708 280 708 q 595 622 531 708 q 660 364 660 535 q 657 289 660 331 l 240 289 q 287 159 244 205 q 413 114 330 114 q 505 133 456 114 q 578 179 554 152 l 633 47 q 383 -18 535 -18 m 483 397 q 458 538 483 499 q 385 576 433 576 q 280 526 317 576 q 239 397 243 476 l 483 397 m 154 1021 l 338 1021 l 338 836 l 154 836 l 154 1021 m 432 1021 l 615 1021 l 615 836 l 432 836 l 432 1021 z "},"ė":{"ha":721,"x_min":58,"x_max":660,"o":"m 383 -18 q 199 30 272 -18 q 92 157 126 77 q 58 338 58 237 q 96 525 58 440 q 207 659 134 609 q 381 708 280 708 q 595 622 531 708 q 660 364 660 535 q 657 289 660 331 l 240 289 q 287 159 244 205 q 413 114 330 114 q 505 133 456 114 q 578 179 554 152 l 633 47 q 383 -18 535 -18 m 483 397 q 458 538 483 499 q 385 576 433 576 q 280 526 317 576 q 239 397 243 476 l 483 397 m 288 989 l 482 989 l 482 804 l 288 804 l 288 989 z "},"ẹ":{"ha":721,"x_min":58,"x_max":660,"o":"m 383 -18 q 199 30 272 -18 q 92 157 126 77 q 58 338 58 237 q 96 525 58 440 q 207 659 134 609 q 381 708 280 708 q 595 622 531 708 q 660 364 660 535 q 657 289 660 331 l 240 289 q 287 159 244 205 q 413 114 330 114 q 505 133 456 114 q 578 179 554 152 l 633 47 q 383 -18 535 -18 m 483 397 q 458 538 483 499 q 385 576 433 576 q 280 526 317 576 q 239 397 243 476 l 483 397 m 300 -128 l 489 -128 l 489 -314 l 300 -314 l 300 -128 z "},"è":{"ha":721,"x_min":58,"x_max":660,"o":"m 383 -18 q 199 30 272 -18 q 92 157 126 77 q 58 338 58 237 q 96 525 58 440 q 207 659 134 609 q 381 708 280 708 q 595 622 531 708 q 660 364 660 535 q 657 289 660 331 l 240 289 q 287 159 244 205 q 413 114 330 114 q 505 133 456 114 q 578 179 554 152 l 633 47 q 383 -18 535 -18 m 483 397 q 458 538 483 499 q 385 576 433 576 q 280 526 317 576 q 239 397 243 476 l 483 397 m 132 1085 l 321 1085 l 457 804 l 306 804 l 132 1085 z "},"ẻ":{"ha":721,"x_min":58,"x_max":660,"o":"m 383 -18 q 199 30 272 -18 q 92 157 126 77 q 58 338 58 237 q 96 525 58 440 q 207 659 134 609 q 381 708 280 708 q 595 622 531 708 q 660 364 660 535 q 657 289 660 331 l 240 289 q 287 159 244 205 q 413 114 330 114 q 505 133 456 114 q 578 179 554 152 l 633 47 q 383 -18 535 -18 m 483 397 q 458 538 483 499 q 385 576 433 576 q 280 526 317 576 q 239 397 243 476 l 483 397 m 400 799 q 357 801 374 799 q 315 811 340 804 l 293 881 q 335 876 312 876 q 401 892 374 876 q 428 943 428 907 q 417 973 428 958 q 386 995 406 987 q 340 1004 366 1004 q 298 997 319 1004 q 247 975 277 990 l 218 1061 q 255 1084 229 1072 q 314 1105 281 1097 q 379 1114 347 1114 q 467 1099 424 1114 q 541 1049 510 1085 q 571 956 571 1014 q 550 882 571 918 q 491 822 530 845 q 400 799 452 799 z "},"ȇ":{"ha":721,"x_min":58,"x_max":660,"o":"m 383 -18 q 199 30 272 -18 q 92 157 126 77 q 58 338 58 237 q 96 525 58 440 q 207 659 134 609 q 381 708 280 708 q 595 622 531 708 q 660 364 660 535 q 657 289 660 331 l 240 289 q 287 159 244 205 q 413 114 330 114 q 505 133 456 114 q 578 179 554 152 l 633 47 q 383 -18 535 -18 m 483 397 q 458 538 483 499 q 385 576 433 576 q 280 526 317 576 q 239 397 243 476 l 483 397 m 151 804 q 181 940 151 884 q 263 1024 210 996 q 385 1053 315 1053 q 507 1025 454 1053 q 589 941 559 997 q 618 804 618 885 l 490 804 q 466 902 488 869 q 385 936 444 936 q 303 903 326 936 q 278 804 280 871 l 151 804 z "},"ē":{"ha":721,"x_min":58,"x_max":660,"o":"m 383 -18 q 199 30 272 -18 q 92 157 126 77 q 58 338 58 237 q 96 525 58 440 q 207 659 134 609 q 381 708 280 708 q 595 622 531 708 q 660 364 660 535 q 657 289 660 331 l 240 289 q 287 159 244 205 q 413 114 330 114 q 505 133 456 114 q 578 179 554 152 l 633 47 q 383 -18 535 -18 m 483 397 q 458 538 483 499 q 385 576 433 576 q 280 526 317 576 q 239 397 243 476 l 483 397 m 163 946 l 607 946 l 607 819 l 163 819 l 163 946 z "},"ḗ":{"ha":721,"x_min":58,"x_max":660,"o":"m 383 -18 q 199 30 272 -18 q 92 157 126 77 q 58 338 58 237 q 96 525 58 440 q 207 659 134 609 q 381 708 280 708 q 595 622 531 708 q 660 364 660 535 q 657 289 660 331 l 240 289 q 287 159 244 205 q 413 114 330 114 q 505 133 456 114 q 578 179 554 152 l 633 47 q 383 -18 535 -18 m 483 397 q 458 538 483 499 q 385 576 433 576 q 280 526 317 576 q 239 397 243 476 l 483 397 m 163 946 l 607 946 l 607 819 l 163 819 l 163 946 m 449 1347 l 638 1347 l 464 1067 l 313 1067 l 449 1347 z "},"ḕ":{"ha":721,"x_min":58,"x_max":660,"o":"m 383 -18 q 199 30 272 -18 q 92 157 126 77 q 58 338 58 237 q 96 525 58 440 q 207 659 134 609 q 381 708 280 708 q 595 622 531 708 q 660 364 660 535 q 657 289 660 331 l 240 289 q 287 159 244 205 q 413 114 330 114 q 505 133 456 114 q 578 179 554 152 l 633 47 q 383 -18 535 -18 m 483 397 q 458 538 483 499 q 385 576 433 576 q 280 526 317 576 q 239 397 243 476 l 483 397 m 163 946 l 607 946 l 607 819 l 163 819 l 163 946 m 132 1347 l 321 1347 l 457 1067 l 306 1067 l 132 1347 z "},"ę":{"ha":721,"x_min":58,"x_max":660,"o":"m 660 364 q 657 289 660 331 l 240 289 q 287 159 244 205 q 413 114 330 114 q 505 133 456 114 q 578 179 554 152 l 633 47 q 506 -6 577 10 q 403 -73 442 -35 q 364 -150 364 -110 q 385 -195 364 -183 q 442 -207 406 -207 q 478 -203 463 -207 q 518 -186 493 -199 l 518 -311 q 401 -333 474 -333 q 249 -293 303 -333 q 194 -178 194 -252 q 230 -87 194 -133 q 322 -14 265 -42 q 173 48 232 -1 q 86 172 113 98 q 58 338 58 247 q 96 525 58 440 q 207 659 134 609 q 381 708 280 708 q 595 622 531 708 q 660 364 660 535 m 483 397 q 458 538 483 499 q 385 576 433 576 q 280 526 317 576 q 239 397 243 476 l 483 397 z "},"ẽ":{"ha":721,"x_min":58,"x_max":660,"o":"m 383 -18 q 199 30 272 -18 q 92 157 126 77 q 58 338 58 237 q 96 525 58 440 q 207 659 134 609 q 381 708 280 708 q 595 622 531 708 q 660 364 660 535 q 657 289 660 331 l 240 289 q 287 159 244 205 q 413 114 330 114 q 505 133 456 114 q 578 179 554 152 l 633 47 q 383 -18 535 -18 m 483 397 q 458 538 483 499 q 385 576 433 576 q 280 526 317 576 q 239 397 243 476 l 483 397 m 478 804 q 411 816 436 804 q 361 850 385 828 q 327 876 342 867 q 289 885 311 885 q 243 868 265 885 q 208 815 222 851 l 131 875 q 197 972 157 935 q 292 1008 238 1008 q 361 997 335 1008 q 407 964 386 985 q 440 939 424 947 q 481 931 455 931 q 527 950 507 931 q 554 1006 547 969 l 639 943 q 611 877 634 909 q 552 824 588 844 q 478 804 517 804 z "},"ə":{"ha":729,"x_min":61,"x_max":663,"o":"m 340 -17 q 126 74 191 -17 q 61 338 61 165 q 63 403 61 382 l 481 403 q 433 536 476 488 q 308 585 390 585 q 216 566 265 585 q 143 519 167 547 l 88 651 q 338 717 185 717 q 522 668 449 717 q 629 537 595 619 q 663 354 663 455 q 625 167 663 251 q 514 33 587 83 q 340 -17 441 -17 m 336 115 q 441 165 403 115 q 482 294 478 215 l 236 294 q 262 154 236 193 q 336 115 288 115 z "},"f":{"ha":485,"x_min":19,"x_max":490,"o":"m 113 546 l 19 546 l 19 692 l 113 692 l 113 819 q 149 976 113 919 q 239 1056 186 1034 q 347 1078 292 1078 q 443 1067 406 1078 q 490 1047 481 1057 l 490 896 q 445 924 476 914 q 390 935 415 935 q 281 824 281 935 l 281 692 l 449 692 l 449 546 l 281 546 l 281 0 l 113 0 l 113 546 z "},"g":{"ha":775,"x_min":60,"x_max":676,"o":"m 199 -119 q 343 -160 263 -160 q 477 -113 433 -160 q 521 33 521 -67 l 521 142 q 460 35 503 78 q 340 -8 417 -8 q 195 28 258 -8 q 96 144 133 65 q 60 344 60 224 q 96 549 60 467 q 194 669 132 631 q 336 708 257 708 q 430 689 390 708 q 491 639 469 669 q 521 572 514 608 l 540 692 l 676 692 l 676 33 q 640 -151 676 -74 q 533 -270 604 -228 q 360 -311 463 -311 q 223 -293 284 -311 q 121 -250 161 -274 l 199 -119 m 375 128 q 470 185 436 128 q 504 347 504 242 q 473 509 504 450 q 381 568 442 568 q 310 546 342 568 q 259 474 278 524 q 239 346 239 424 q 276 183 239 238 q 375 128 313 128 z "},"ğ":{"ha":775,"x_min":60,"x_max":676,"o":"m 199 -119 q 343 -160 263 -160 q 477 -113 433 -160 q 521 33 521 -67 l 521 142 q 460 35 503 78 q 340 -8 417 -8 q 195 28 258 -8 q 96 144 133 65 q 60 344 60 224 q 96 549 60 467 q 194 669 132 631 q 336 708 257 708 q 430 689 390 708 q 491 639 469 669 q 521 572 514 608 l 540 692 l 676 692 l 676 33 q 640 -151 676 -74 q 533 -270 604 -228 q 360 -311 463 -311 q 223 -293 284 -311 q 121 -250 161 -274 l 199 -119 m 375 128 q 470 185 436 128 q 504 347 504 242 q 473 509 504 450 q 381 568 442 568 q 310 546 342 568 q 259 474 278 524 q 239 346 239 424 q 276 183 239 238 q 375 128 313 128 m 396 810 q 274 838 326 810 q 192 923 221 867 q 163 1058 163 978 l 289 1058 q 314 963 291 993 q 396 933 337 933 q 459 948 437 933 q 491 990 482 963 q 501 1058 500 1017 l 629 1058 q 600 921 629 977 q 518 838 570 865 q 396 810 465 810 z "},"ǧ":{"ha":775,"x_min":60,"x_max":676,"o":"m 199 -119 q 343 -160 263 -160 q 477 -113 433 -160 q 521 33 521 -67 l 521 142 q 460 35 503 78 q 340 -8 417 -8 q 195 28 258 -8 q 96 144 133 65 q 60 344 60 224 q 96 549 60 467 q 194 669 132 631 q 336 708 257 708 q 430 689 390 708 q 491 639 469 669 q 521 572 514 608 l 540 692 l 676 692 l 676 33 q 640 -151 676 -74 q 533 -270 604 -228 q 360 -311 463 -311 q 223 -293 284 -311 q 121 -250 161 -274 l 199 -119 m 375 128 q 470 185 436 128 q 504 347 504 242 q 473 509 504 450 q 381 568 442 568 q 310 546 342 568 q 259 474 278 524 q 239 346 239 424 q 276 183 239 238 q 375 128 313 128 m 638 1085 l 439 804 l 353 804 l 154 1085 l 293 1085 l 397 951 l 497 1085 l 638 1085 z "},"ĝ":{"ha":775,"x_min":60,"x_max":676,"o":"m 199 -119 q 343 -160 263 -160 q 477 -113 433 -160 q 521 33 521 -67 l 521 142 q 460 35 503 78 q 340 -8 417 -8 q 195 28 258 -8 q 96 144 133 65 q 60 344 60 224 q 96 549 60 467 q 194 669 132 631 q 336 708 257 708 q 430 689 390 708 q 491 639 469 669 q 521 572 514 608 l 540 692 l 676 692 l 676 33 q 640 -151 676 -74 q 533 -270 604 -228 q 360 -311 463 -311 q 223 -293 284 -311 q 121 -250 161 -274 l 199 -119 m 375 128 q 470 185 436 128 q 504 347 504 242 q 473 509 504 450 q 381 568 442 568 q 310 546 342 568 q 259 474 278 524 q 239 346 239 424 q 276 183 239 238 q 375 128 313 128 m 497 804 l 397 938 l 293 804 l 154 804 l 353 1085 l 439 1085 l 638 804 l 497 804 z "},"ģ":{"ha":775,"x_min":60,"x_max":676,"o":"m 199 -119 q 343 -160 263 -160 q 477 -113 433 -160 q 521 33 521 -67 l 521 142 q 460 35 503 78 q 340 -8 417 -8 q 195 28 258 -8 q 96 144 133 65 q 60 344 60 224 q 96 549 60 467 q 194 669 132 631 q 336 708 257 708 q 430 689 390 708 q 491 639 469 669 q 521 572 514 608 l 540 692 l 676 692 l 676 33 q 640 -151 676 -74 q 533 -270 604 -228 q 360 -311 463 -311 q 223 -293 284 -311 q 121 -250 161 -274 l 199 -119 m 375 128 q 470 185 436 128 q 504 347 504 242 q 473 509 504 450 q 381 568 442 568 q 310 546 342 568 q 259 474 278 524 q 239 346 239 424 q 276 183 239 238 q 375 128 313 128 m 290 863 q 313 976 290 927 q 365 1058 335 1025 l 493 1058 q 472 979 481 1028 q 463 872 463 930 q 464 804 463 828 l 290 804 l 290 863 z "},"ġ":{"ha":775,"x_min":60,"x_max":676,"o":"m 199 -119 q 343 -160 263 -160 q 477 -113 433 -160 q 521 33 521 -67 l 521 142 q 460 35 503 78 q 340 -8 417 -8 q 195 28 258 -8 q 96 144 133 65 q 60 344 60 224 q 96 549 60 467 q 194 669 132 631 q 336 708 257 708 q 430 689 390 708 q 491 639 469 669 q 521 572 514 608 l 540 692 l 676 692 l 676 33 q 640 -151 676 -74 q 533 -270 604 -228 q 360 -311 463 -311 q 223 -293 284 -311 q 121 -250 161 -274 l 199 -119 m 375 128 q 470 185 436 128 q 504 347 504 242 q 473 509 504 450 q 381 568 442 568 q 310 546 342 568 q 259 474 278 524 q 239 346 239 424 q 276 183 239 238 q 375 128 313 128 m 299 989 l 493 989 l 493 804 l 299 804 l 299 989 z "},"ḡ":{"ha":775,"x_min":60,"x_max":676,"o":"m 199 -119 q 343 -160 263 -160 q 477 -113 433 -160 q 521 33 521 -67 l 521 142 q 460 35 503 78 q 340 -8 417 -8 q 195 28 258 -8 q 96 144 133 65 q 60 344 60 224 q 96 549 60 467 q 194 669 132 631 q 336 708 257 708 q 430 689 390 708 q 491 639 469 669 q 521 572 514 608 l 540 692 l 676 692 l 676 33 q 640 -151 676 -74 q 533 -270 604 -228 q 360 -311 463 -311 q 223 -293 284 -311 q 121 -250 161 -274 l 199 -119 m 375 128 q 470 185 436 128 q 504 347 504 242 q 473 509 504 450 q 381 568 442 568 q 310 546 342 568 q 259 474 278 524 q 239 346 239 424 q 276 183 239 238 q 375 128 313 128 m 174 946 l 618 946 l 618 819 l 174 819 l 174 946 z "},"h":{"ha":794,"x_min":108,"x_max":686,"o":"m 479 708 q 634 643 581 708 q 686 457 686 577 l 686 0 l 508 0 l 508 439 q 481 533 508 497 q 404 568 453 568 q 343 551 372 568 q 297 505 314 535 q 279 439 279 476 l 279 0 l 108 0 l 108 1058 l 272 1058 l 272 708 l 269 604 q 479 708 340 708 z "},"ħ":{"ha":794,"x_min":25,"x_max":686,"o":"m 479 708 q 634 643 581 708 q 686 457 686 577 l 686 0 l 508 0 l 508 439 q 481 533 508 497 q 404 568 453 568 q 343 551 372 568 q 297 505 314 535 q 279 439 279 476 l 279 0 l 108 0 l 108 817 l 25 817 l 25 943 l 108 943 l 108 1058 l 272 1058 l 272 943 l 408 943 l 408 817 l 272 817 l 272 708 l 269 604 q 479 708 340 708 z "},"ḫ":{"ha":794,"x_min":108,"x_max":686,"o":"m 479 708 q 634 643 581 708 q 686 457 686 577 l 686 0 l 508 0 l 508 439 q 481 533 508 497 q 404 568 453 568 q 343 551 372 568 q 297 505 314 535 q 279 439 279 476 l 279 0 l 108 0 l 108 1058 l 272 1058 l 272 708 l 269 604 q 479 708 340 708 m 392 -367 q 269 -338 322 -367 q 188 -254 217 -310 q 158 -118 158 -198 l 285 -118 q 296 -186 286 -161 q 328 -224 306 -212 q 392 -236 351 -236 q 455 -223 433 -236 q 487 -184 478 -210 q 497 -118 496 -159 l 625 -118 q 595 -255 625 -199 q 514 -339 566 -311 q 392 -367 461 -367 z "},"ĥ":{"ha":794,"x_min":108,"x_max":686,"o":"m 479 708 q 634 643 581 708 q 686 457 686 577 l 686 0 l 508 0 l 508 439 q 481 533 508 497 q 404 568 453 568 q 343 551 372 568 q 297 505 314 535 q 279 439 279 476 l 279 0 l 108 0 l 108 1058 l 272 1058 l 272 708 l 269 604 q 479 708 340 708 m 543 1117 l 428 1234 l 306 1117 l 167 1117 l 385 1371 l 471 1371 l 683 1117 l 543 1117 z "},"ḥ":{"ha":794,"x_min":108,"x_max":686,"o":"m 479 708 q 634 643 581 708 q 686 457 686 577 l 686 0 l 508 0 l 508 439 q 481 533 508 497 q 404 568 453 568 q 343 551 372 568 q 297 505 314 535 q 279 439 279 476 l 279 0 l 108 0 l 108 1058 l 272 1058 l 272 708 l 269 604 q 479 708 340 708 m 297 -128 l 486 -128 l 486 -314 l 297 -314 l 297 -128 z "},"i":{"ha":389,"x_min":97,"x_max":292,"o":"m 97 989 l 292 989 l 292 804 l 97 804 l 97 989 m 104 692 l 285 692 l 285 0 l 104 0 l 104 692 z "},"ı":{"ha":389,"x_min":104,"x_max":285,"o":"m 104 692 l 285 692 l 285 0 l 104 0 l 104 692 z "},"í":{"ha":389,"x_min":104,"x_max":447,"o":"m 104 692 l 285 692 l 285 0 l 104 0 l 104 692 m 258 1085 l 447 1085 l 274 804 l 122 804 l 258 1085 z "},"ĭ":{"ha":389,"x_min":-39,"x_max":428,"o":"m 104 692 l 285 692 l 285 0 l 104 0 l 104 692 m 194 810 q 72 838 125 810 q -10 923 19 867 q -39 1058 -39 978 l 88 1058 q 113 963 90 993 q 194 933 135 933 q 258 948 235 933 q 290 990 281 963 q 300 1058 299 1017 l 428 1058 q 398 921 428 977 q 316 838 369 865 q 194 810 264 810 z "},"ǐ":{"ha":389,"x_min":-47,"x_max":436,"o":"m 104 692 l 285 692 l 285 0 l 104 0 l 104 692 m 436 1085 l 238 804 l 151 804 l -47 1085 l 92 1085 l 195 951 l 296 1085 l 436 1085 z "},"î":{"ha":389,"x_min":-47,"x_max":436,"o":"m 104 692 l 285 692 l 285 0 l 104 0 l 104 692 m 296 804 l 195 938 l 92 804 l -47 804 l 151 1085 l 238 1085 l 436 804 l 296 804 z "},"ȉ":{"ha":389,"x_min":-157,"x_max":413,"o":"m 104 692 l 285 692 l 285 0 l 104 0 l 104 692 m -157 1085 l -7 1085 l 122 804 l 1 804 l -157 1085 m 133 1085 l 285 1085 l 413 804 l 292 804 l 133 1085 z "},"ï":{"ha":389,"x_min":-36,"x_max":425,"o":"m 104 692 l 285 692 l 285 0 l 104 0 l 104 692 m -36 1021 l 147 1021 l 147 836 l -36 836 l -36 1021 m 242 1021 l 425 1021 l 425 836 l 242 836 l 242 1021 z "},"ḯ":{"ha":389,"x_min":-36,"x_max":447,"o":"m 104 692 l 285 692 l 285 0 l 104 0 l 104 692 m -36 1021 l 147 1021 l 147 836 l -36 836 l -36 1021 m 242 1021 l 425 1021 l 425 836 l 242 836 l 242 1021 m 258 1403 l 447 1403 l 274 1122 l 122 1122 l 258 1403 z "},"ị":{"ha":389,"x_min":97,"x_max":293,"o":"m 97 989 l 292 989 l 292 804 l 97 804 l 97 989 m 104 692 l 285 692 l 285 0 l 104 0 l 104 692 m 104 -128 l 293 -128 l 293 -314 l 104 -314 l 104 -128 z "},"ì":{"ha":389,"x_min":-58,"x_max":285,"o":"m 104 692 l 285 692 l 285 0 l 104 0 l 104 692 m -58 1085 l 131 1085 l 267 804 l 115 804 l -58 1085 z "},"ỉ":{"ha":389,"x_min":28,"x_max":381,"o":"m 104 692 l 285 692 l 285 0 l 104 0 l 104 692 m 210 799 q 167 801 184 799 q 125 811 149 804 l 103 881 q 144 876 122 876 q 210 892 183 876 q 238 943 238 907 q 227 973 238 958 q 196 995 216 987 q 150 1004 176 1004 q 108 997 129 1004 q 57 975 87 990 l 28 1061 q 65 1084 39 1072 q 124 1105 91 1097 q 189 1114 157 1114 q 277 1099 233 1114 q 350 1049 320 1085 q 381 956 381 1014 q 360 882 381 918 q 301 822 340 845 q 210 799 262 799 z "},"ȋ":{"ha":389,"x_min":-39,"x_max":428,"o":"m 104 692 l 285 692 l 285 0 l 104 0 l 104 692 m -39 804 q -10 940 -39 884 q 72 1024 19 996 q 194 1053 125 1053 q 316 1025 264 1053 q 398 941 369 997 q 428 804 428 885 l 300 804 q 276 902 298 869 q 194 936 253 936 q 113 903 136 936 q 88 804 90 871 l -39 804 z "},"ĳ":{"ha":772,"x_min":97,"x_max":679,"o":"m 97 989 l 292 989 l 292 804 l 97 804 l 97 989 m 104 692 l 285 692 l 285 0 l 104 0 l 104 692 m 485 989 l 679 989 l 679 804 l 485 804 l 485 989 m 396 -242 q 447 -220 424 -241 q 482 -162 469 -199 q 494 -81 494 -126 l 494 692 l 667 692 l 667 -87 q 610 -279 664 -217 q 456 -347 556 -341 l 396 -242 z "},"ī":{"ha":389,"x_min":-28,"x_max":417,"o":"m 104 692 l 285 692 l 285 0 l 104 0 l 104 692 m -28 946 l 417 946 l 417 819 l -28 819 l -28 946 z "},"į":{"ha":389,"x_min":97,"x_max":292,"o":"m 104 692 l 285 692 l 285 0 l 104 0 l 104 692 m 97 989 l 292 989 l 292 804 l 97 804 l 97 989 z "},"ĩ":{"ha":389,"x_min":-60,"x_max":449,"o":"m 104 692 l 285 692 l 285 0 l 104 0 l 104 692 m 288 804 q 220 816 246 804 q 171 850 195 828 q 136 876 152 867 q 99 885 121 885 q 53 868 74 885 q 18 815 32 851 l -60 875 q 7 972 -33 935 q 101 1008 47 1008 q 170 997 145 1008 q 217 964 196 985 q 249 939 234 947 q 290 931 265 931 q 337 950 317 931 q 364 1006 357 969 l 449 943 q 420 877 444 909 q 362 824 397 844 q 288 804 327 804 z "},"j":{"ha":383,"x_min":7,"x_max":290,"o":"m 96 989 l 290 989 l 290 804 l 96 804 l 96 989 m 7 -242 q 58 -220 35 -241 q 93 -162 81 -199 q 106 -81 106 -126 l 106 692 l 278 692 l 278 -87 q 221 -279 275 -217 q 67 -347 167 -341 l 7 -242 z "},"ȷ":{"ha":383,"x_min":7,"x_max":278,"o":"m 7 -242 q 58 -220 35 -241 q 94 -162 81 -199 q 107 -81 107 -126 l 107 692 l 278 692 l 278 -71 q 222 -272 278 -202 q 67 -347 167 -341 l 7 -242 z "},"ĵ":{"ha":383,"x_min":-53,"x_max":431,"o":"m 7 -242 q 58 -220 35 -241 q 94 -162 81 -199 q 107 -81 107 -126 l 107 692 l 278 692 l 278 -71 q 222 -272 278 -202 q 67 -347 167 -341 l 7 -242 m 290 807 l 190 940 l 86 807 l -53 807 l 146 1088 l 232 1088 l 431 807 l 290 807 z "},"k":{"ha":704,"x_min":108,"x_max":700,"o":"m 108 1056 l 272 1056 l 272 538 l 267 375 l 479 692 l 676 692 l 435 374 l 700 0 l 490 0 l 267 335 l 272 165 l 272 0 l 108 0 l 108 1056 z "},"ķ":{"ha":704,"x_min":108,"x_max":700,"o":"m 108 1056 l 272 1056 l 272 538 l 267 375 l 479 692 l 676 692 l 435 374 l 700 0 l 490 0 l 267 335 l 272 165 l 272 0 l 108 0 l 108 1056 m 257 -382 q 266 -355 258 -378 q 281 -289 274 -331 q 288 -196 288 -246 q 286 -128 288 -151 l 460 -128 q 460 -147 460 -131 l 460 -186 q 449 -264 460 -229 q 427 -319 439 -298 q 397 -363 415 -340 q 385 -382 387 -376 l 257 -382 z "},"ĸ":{"ha":704,"x_min":103,"x_max":700,"o":"m 103 692 l 271 692 l 271 538 l 265 383 l 474 692 l 671 692 l 429 374 l 700 0 l 490 0 l 265 326 l 271 157 l 271 0 l 103 0 l 103 692 z "},"l":{"ha":381,"x_min":106,"x_max":275,"o":"m 106 1056 l 275 1056 l 275 0 l 106 0 l 106 1056 z "},"ĺ":{"ha":381,"x_min":106,"x_max":446,"o":"m 106 1056 l 275 1056 l 275 0 l 106 0 l 106 1056 m 275 1410 l 446 1410 l 272 1156 l 139 1156 l 275 1410 z "},"ľ":{"ha":557,"x_min":106,"x_max":528,"o":"m 106 1056 l 275 1056 l 275 0 l 106 0 l 106 1056 m 367 754 q 384 844 377 783 q 390 967 390 906 q 385 1056 390 1008 l 524 1056 q 528 978 528 1028 q 513 850 528 908 q 482 754 498 792 l 367 754 z "},"ļ":{"ha":381,"x_min":74,"x_max":277,"o":"m 106 1056 l 275 1056 l 275 0 l 106 0 l 106 1056 m 74 -382 q 83 -355 75 -378 q 98 -289 91 -331 q 104 -196 104 -246 q 103 -128 104 -151 l 276 -128 q 277 -147 277 -131 l 276 -186 q 266 -264 276 -229 q 243 -319 256 -298 q 214 -363 231 -340 q 201 -382 203 -376 l 74 -382 z "},"ŀ":{"ha":699,"x_min":106,"x_max":618,"o":"m 106 1056 l 275 1056 l 275 0 l 106 0 l 106 1056 m 461 615 l 618 615 l 618 436 l 461 436 l 461 615 z "},"ḷ":{"ha":381,"x_min":89,"x_max":278,"o":"m 106 1056 l 275 1056 l 275 0 l 106 0 l 106 1056 m 89 -128 l 278 -128 l 278 -314 l 89 -314 l 89 -128 z "},"ǉ":{"ha":763,"x_min":106,"x_max":669,"o":"m 106 1056 l 275 1056 l 275 0 l 106 0 l 106 1056 m 475 989 l 669 989 l 669 804 l 475 804 l 475 989 m 386 -242 q 437 -220 415 -241 q 472 -162 460 -199 q 485 -81 485 -126 l 485 692 l 657 692 l 657 -87 q 600 -279 654 -217 q 446 -347 547 -341 l 386 -242 z "},"ḻ":{"ha":381,"x_min":-39,"x_max":406,"o":"m 106 1056 l 275 1056 l 275 0 l 106 0 l 106 1056 m -39 -128 l 406 -128 l 406 -254 l -39 -254 l -39 -128 z "},"ł":{"ha":419,"x_min":14,"x_max":406,"o":"m 406 549 l 286 480 l 286 0 l 117 0 l 117 383 l 14 324 l 14 478 l 117 537 l 117 1056 l 286 1056 l 286 634 l 406 703 l 406 549 z "},"m":{"ha":1176,"x_min":103,"x_max":1079,"o":"m 872 708 q 1027 643 974 708 q 1079 457 1079 577 l 1079 0 l 903 0 l 903 439 q 880 534 903 499 q 808 568 856 568 q 746 551 776 568 q 699 505 717 535 q 681 439 681 476 l 681 0 l 503 0 l 503 439 q 477 534 503 498 q 403 571 451 571 q 342 554 369 571 q 297 507 314 537 q 281 439 281 476 l 281 0 l 103 0 l 103 692 l 263 692 l 267 600 q 471 708 337 708 q 587 678 540 708 q 658 589 634 647 q 872 708 728 708 z "},"ṃ":{"ha":1176,"x_min":103,"x_max":1079,"o":"m 872 708 q 1027 643 974 708 q 1079 457 1079 577 l 1079 0 l 903 0 l 903 439 q 880 534 903 499 q 808 568 856 568 q 746 551 776 568 q 699 505 717 535 q 681 439 681 476 l 681 0 l 503 0 l 503 439 q 477 534 503 498 q 403 571 451 571 q 342 554 369 571 q 297 507 314 537 q 281 439 281 476 l 281 0 l 103 0 l 103 692 l 263 692 l 267 600 q 471 708 337 708 q 587 678 540 708 q 658 589 634 647 q 872 708 728 708 m 500 -128 l 689 -128 l 689 -314 l 500 -314 l 500 -128 z "},"n":{"ha":776,"x_min":103,"x_max":679,"o":"m 471 708 q 627 643 574 708 q 679 457 679 577 l 679 0 l 501 0 l 501 442 q 476 536 501 501 q 403 571 451 571 q 342 554 370 571 q 297 508 314 538 q 281 442 281 478 l 281 0 l 103 0 l 103 692 l 264 692 l 267 601 q 471 708 339 708 z "},"ń":{"ha":776,"x_min":103,"x_max":679,"o":"m 471 708 q 627 643 574 708 q 679 457 679 577 l 679 0 l 501 0 l 501 442 q 476 536 501 501 q 403 571 451 571 q 342 554 370 571 q 297 508 314 538 q 281 442 281 478 l 281 0 l 103 0 l 103 692 l 264 692 l 267 601 q 471 708 339 708 m 472 1085 l 661 1085 l 488 804 l 336 804 l 472 1085 z "},"ň":{"ha":776,"x_min":103,"x_max":679,"o":"m 471 708 q 627 643 574 708 q 679 457 679 577 l 679 0 l 501 0 l 501 442 q 476 536 501 501 q 403 571 451 571 q 342 554 370 571 q 297 508 314 538 q 281 442 281 478 l 281 0 l 103 0 l 103 692 l 264 692 l 267 601 q 471 708 339 708 m 650 1085 l 451 804 l 365 804 l 167 1085 l 306 1085 l 409 951 l 510 1085 l 650 1085 z "},"ņ":{"ha":776,"x_min":103,"x_max":679,"o":"m 471 708 q 627 643 574 708 q 679 457 679 577 l 679 0 l 501 0 l 501 442 q 476 536 501 501 q 403 571 451 571 q 342 554 370 571 q 297 508 314 538 q 281 442 281 478 l 281 0 l 103 0 l 103 692 l 264 692 l 267 601 q 471 708 339 708 m 285 -382 q 294 -355 286 -378 q 309 -289 302 -331 q 315 -196 315 -246 q 314 -128 315 -151 l 488 -128 q 488 -147 488 -131 l 488 -186 q 477 -264 488 -229 q 455 -319 467 -298 q 425 -363 442 -340 q 413 -382 415 -376 l 285 -382 z "},"ṅ":{"ha":776,"x_min":103,"x_max":679,"o":"m 471 708 q 627 643 574 708 q 679 457 679 577 l 679 0 l 501 0 l 501 442 q 476 536 501 501 q 403 571 451 571 q 342 554 370 571 q 297 508 314 538 q 281 442 281 478 l 281 0 l 103 0 l 103 692 l 264 692 l 267 601 q 471 708 339 708 m 311 989 l 506 989 l 506 804 l 311 804 l 311 989 z "},"ṇ":{"ha":776,"x_min":103,"x_max":679,"o":"m 471 708 q 627 643 574 708 q 679 457 679 577 l 679 0 l 501 0 l 501 442 q 476 536 501 501 q 403 571 451 571 q 342 554 370 571 q 297 508 314 538 q 281 442 281 478 l 281 0 l 103 0 l 103 692 l 264 692 l 267 601 q 471 708 339 708 m 300 -128 l 489 -128 l 489 -314 l 300 -314 l 300 -128 z "},"ŋ":{"ha":776,"x_min":103,"x_max":679,"o":"m 408 -242 q 476 -196 451 -241 q 501 -81 501 -151 l 501 442 q 476 536 501 501 q 403 571 451 571 q 342 554 370 571 q 297 508 314 538 q 281 442 281 478 l 281 0 l 103 0 l 103 692 l 264 692 l 267 601 q 471 708 341 708 q 627 643 574 708 q 679 457 679 577 l 679 -87 q 623 -279 676 -217 q 468 -347 569 -341 l 408 -242 z "},"ǌ":{"ha":1157,"x_min":103,"x_max":1064,"o":"m 471 708 q 627 643 574 708 q 679 457 679 577 l 679 0 l 501 0 l 501 442 q 476 536 501 501 q 403 571 451 571 q 342 554 370 571 q 297 508 314 538 q 281 442 281 478 l 281 0 l 103 0 l 103 692 l 264 692 l 267 601 q 471 708 339 708 m 869 989 l 1064 989 l 1064 804 l 869 804 l 869 989 m 781 -242 q 832 -220 809 -241 q 867 -162 854 -199 q 879 -81 879 -126 l 879 692 l 1051 692 l 1051 -87 q 995 -279 1049 -217 q 840 -347 941 -341 l 781 -242 z "},"ṉ":{"ha":776,"x_min":103,"x_max":679,"o":"m 471 708 q 627 643 574 708 q 679 457 679 577 l 679 0 l 501 0 l 501 442 q 476 536 501 501 q 403 571 451 571 q 342 554 370 571 q 297 508 314 538 q 281 442 281 478 l 281 0 l 103 0 l 103 692 l 264 692 l 267 601 q 471 708 339 708 m 172 -128 l 617 -128 l 617 -254 l 172 -254 l 172 -128 z "},"ñ":{"ha":776,"x_min":103,"x_max":679,"o":"m 471 708 q 627 643 574 708 q 679 457 679 577 l 679 0 l 501 0 l 501 442 q 476 536 501 501 q 403 571 451 571 q 342 554 370 571 q 297 508 314 538 q 281 442 281 478 l 281 0 l 103 0 l 103 692 l 264 692 l 267 601 q 471 708 339 708 m 501 804 q 434 816 460 804 q 385 850 409 828 q 350 876 366 867 q 313 885 335 885 q 267 868 288 885 q 232 815 246 851 l 154 875 q 221 972 181 935 q 315 1008 261 1008 q 384 997 359 1008 q 431 964 410 985 q 463 939 448 947 q 504 931 478 931 q 551 950 531 931 q 578 1006 571 969 l 663 943 q 634 877 658 909 q 576 824 611 844 q 501 804 541 804 z "},"o":{"ha":756,"x_min":58,"x_max":697,"o":"m 378 -14 q 205 29 276 -14 q 96 153 133 72 q 58 347 58 234 q 97 542 58 460 q 209 666 135 623 q 383 708 282 708 q 555 664 484 708 q 661 539 625 620 q 697 347 697 458 q 660 156 697 238 q 550 30 622 74 q 378 -14 478 -14 m 381 125 q 479 181 445 125 q 513 347 513 238 q 479 514 513 458 q 381 571 445 571 q 278 517 313 571 q 243 347 243 464 q 278 178 243 231 q 381 125 313 125 z "},"ó":{"ha":756,"x_min":58,"x_max":697,"o":"m 378 -14 q 205 29 276 -14 q 96 153 133 72 q 58 347 58 234 q 97 542 58 460 q 209 666 135 623 q 383 708 282 708 q 555 664 484 708 q 661 539 625 620 q 697 347 697 458 q 660 156 697 238 q 550 30 622 74 q 378 -14 478 -14 m 381 125 q 479 181 445 125 q 513 347 513 238 q 479 514 513 458 q 381 571 445 571 q 278 517 313 571 q 243 347 243 464 q 278 178 243 231 q 381 125 313 125 m 442 1085 l 631 1085 l 457 804 l 306 804 l 442 1085 z "},"ŏ":{"ha":756,"x_min":58,"x_max":697,"o":"m 378 -14 q 205 29 276 -14 q 96 153 133 72 q 58 347 58 234 q 97 542 58 460 q 209 666 135 623 q 383 708 282 708 q 555 664 484 708 q 661 539 625 620 q 697 347 697 458 q 660 156 697 238 q 550 30 622 74 q 378 -14 478 -14 m 381 125 q 479 181 445 125 q 513 347 513 238 q 479 514 513 458 q 381 571 445 571 q 278 517 313 571 q 243 347 243 464 q 278 178 243 231 q 381 125 313 125 m 378 810 q 256 838 308 810 q 174 923 203 867 q 144 1058 144 978 l 271 1058 q 296 963 273 993 q 378 933 319 933 q 441 948 419 933 q 473 990 464 963 q 483 1058 482 1017 l 611 1058 q 582 921 611 977 q 500 838 552 865 q 378 810 447 810 z "},"ǒ":{"ha":756,"x_min":58,"x_max":697,"o":"m 378 -14 q 205 29 276 -14 q 96 153 133 72 q 58 347 58 234 q 97 542 58 460 q 209 666 135 623 q 383 708 282 708 q 555 664 484 708 q 661 539 625 620 q 697 347 697 458 q 660 156 697 238 q 550 30 622 74 q 378 -14 478 -14 m 381 125 q 479 181 445 125 q 513 347 513 238 q 479 514 513 458 q 381 571 445 571 q 278 517 313 571 q 243 347 243 464 q 278 178 243 231 q 381 125 313 125 m 619 1085 l 421 804 l 335 804 l 136 1085 l 275 1085 l 378 951 l 479 1085 l 619 1085 z "},"ô":{"ha":756,"x_min":58,"x_max":697,"o":"m 378 -14 q 205 29 276 -14 q 96 153 133 72 q 58 347 58 234 q 97 542 58 460 q 209 666 135 623 q 383 708 282 708 q 555 664 484 708 q 661 539 625 620 q 697 347 697 458 q 660 156 697 238 q 550 30 622 74 q 378 -14 478 -14 m 381 125 q 479 181 445 125 q 513 347 513 238 q 479 514 513 458 q 381 571 445 571 q 278 517 313 571 q 243 347 243 464 q 278 178 243 231 q 381 125 313 125 m 479 804 l 378 938 l 275 804 l 136 804 l 335 1085 l 421 1085 l 619 804 l 479 804 z "},"ố":{"ha":756,"x_min":58,"x_max":775,"o":"m 378 -14 q 205 29 276 -14 q 96 153 133 72 q 58 347 58 234 q 97 542 58 460 q 209 666 135 623 q 383 708 282 708 q 555 664 484 708 q 661 539 625 620 q 697 347 697 458 q 660 156 697 238 q 550 30 622 74 q 378 -14 478 -14 m 381 125 q 479 181 445 125 q 513 347 513 238 q 479 514 513 458 q 381 571 445 571 q 278 517 313 571 q 243 347 243 464 q 278 178 243 231 q 381 125 313 125 m 617 1272 l 775 1272 l 629 1065 l 506 1065 l 617 1272 m 338 1068 l 418 1068 l 606 804 l 474 804 l 378 904 l 281 804 l 150 804 l 338 1068 z "},"ộ":{"ha":756,"x_min":58,"x_max":697,"o":"m 378 -14 q 205 29 276 -14 q 96 153 133 72 q 58 347 58 234 q 97 542 58 460 q 209 666 135 623 q 383 708 282 708 q 555 664 484 708 q 661 539 625 620 q 697 347 697 458 q 660 156 697 238 q 550 30 622 74 q 378 -14 478 -14 m 381 125 q 479 181 445 125 q 513 347 513 238 q 479 514 513 458 q 381 571 445 571 q 278 517 313 571 q 243 347 243 464 q 278 178 243 231 q 381 125 313 125 m 286 -128 l 475 -128 l 475 -314 l 286 -314 l 286 -128 m 479 804 l 378 938 l 275 804 l 136 804 l 335 1085 l 421 1085 l 619 804 l 479 804 z "},"ồ":{"ha":756,"x_min":58,"x_max":697,"o":"m 378 -14 q 205 29 276 -14 q 96 153 133 72 q 58 347 58 234 q 97 542 58 460 q 209 666 135 623 q 383 708 282 708 q 555 664 484 708 q 661 539 625 620 q 697 347 697 458 q 660 156 697 238 q 550 30 622 74 q 378 -14 478 -14 m 381 125 q 479 181 445 125 q 513 347 513 238 q 479 514 513 458 q 381 571 445 571 q 278 517 313 571 q 243 347 243 464 q 278 178 243 231 q 381 125 313 125 m 400 1272 l 558 1272 l 669 1065 l 547 1065 l 400 1272 m 338 1068 l 418 1068 l 606 804 l 474 804 l 378 904 l 281 804 l 150 804 l 338 1068 z "},"ổ":{"ha":756,"x_min":58,"x_max":697,"o":"m 378 -14 q 205 29 276 -14 q 96 153 133 72 q 58 347 58 234 q 97 542 58 460 q 209 666 135 623 q 383 708 282 708 q 555 664 484 708 q 661 539 625 620 q 697 347 697 458 q 660 156 697 238 q 550 30 622 74 q 378 -14 478 -14 m 381 125 q 479 181 445 125 q 513 347 513 238 q 479 514 513 458 q 381 571 445 571 q 278 517 313 571 q 243 347 243 464 q 278 178 243 231 q 381 125 313 125 m 358 1110 q 322 1114 335 1110 l 301 1179 q 336 1176 324 1176 q 394 1189 371 1176 q 417 1232 417 1201 q 396 1268 417 1253 q 340 1283 375 1283 q 305 1277 324 1283 q 263 1260 287 1272 l 238 1333 q 297 1363 256 1348 q 375 1378 337 1378 q 450 1365 413 1378 q 513 1323 488 1353 q 539 1243 539 1292 q 521 1180 539 1211 q 470 1130 503 1149 q 393 1110 438 1110 l 358 1110 m 338 1068 l 418 1068 l 606 804 l 474 804 l 378 904 l 281 804 l 150 804 l 338 1068 z "},"ỗ":{"ha":756,"x_min":58,"x_max":697,"o":"m 378 -14 q 205 29 276 -14 q 96 153 133 72 q 58 347 58 234 q 97 542 58 460 q 209 666 135 623 q 383 708 282 708 q 555 664 484 708 q 661 539 625 620 q 697 347 697 458 q 660 156 697 238 q 550 30 622 74 q 378 -14 478 -14 m 381 125 q 479 181 445 125 q 513 347 513 238 q 479 514 513 458 q 381 571 445 571 q 278 517 313 571 q 243 347 243 464 q 278 178 243 231 q 381 125 313 125 m 476 1104 q 418 1116 445 1104 q 365 1146 392 1127 q 330 1168 343 1163 q 307 1174 317 1174 q 263 1161 281 1174 q 238 1117 244 1149 l 168 1164 q 183 1220 168 1194 q 225 1261 198 1246 q 289 1276 253 1276 q 346 1266 321 1276 q 396 1238 372 1256 q 431 1217 415 1224 q 463 1210 447 1210 q 493 1212 483 1210 q 511 1226 504 1215 q 518 1263 517 1238 l 588 1214 q 574 1159 588 1184 q 536 1119 561 1134 q 476 1104 510 1104 m 338 1068 l 418 1068 l 606 804 l 474 804 l 378 904 l 281 804 l 150 804 l 338 1068 z "},"ȍ":{"ha":756,"x_min":26,"x_max":697,"o":"m 378 -14 q 205 29 276 -14 q 96 153 133 72 q 58 347 58 234 q 97 542 58 460 q 209 666 135 623 q 383 708 282 708 q 555 664 484 708 q 661 539 625 620 q 697 347 697 458 q 660 156 697 238 q 550 30 622 74 q 378 -14 478 -14 m 381 125 q 479 181 445 125 q 513 347 513 238 q 479 514 513 458 q 381 571 445 571 q 278 517 313 571 q 243 347 243 464 q 278 178 243 231 q 381 125 313 125 m 26 1085 l 176 1085 l 306 804 l 185 804 l 26 1085 m 317 1085 l 468 1085 l 596 804 l 475 804 l 317 1085 z "},"ö":{"ha":756,"x_min":58,"x_max":697,"o":"m 378 -14 q 205 29 276 -14 q 96 153 133 72 q 58 347 58 234 q 97 542 58 460 q 209 666 135 623 q 383 708 282 708 q 555 664 484 708 q 661 539 625 620 q 697 347 697 458 q 660 156 697 238 q 550 30 622 74 q 378 -14 478 -14 m 381 125 q 479 181 445 125 q 513 347 513 238 q 479 514 513 458 q 381 571 445 571 q 278 517 313 571 q 243 347 243 464 q 278 178 243 231 q 381 125 313 125 m 147 1021 l 331 1021 l 331 836 l 147 836 l 147 1021 m 425 1021 l 608 1021 l 608 836 l 425 836 l 425 1021 z "},"ȫ":{"ha":756,"x_min":58,"x_max":697,"o":"m 378 -14 q 205 29 276 -14 q 96 153 133 72 q 58 347 58 234 q 97 542 58 460 q 209 666 135 623 q 383 708 282 708 q 555 664 484 708 q 661 539 625 620 q 697 347 697 458 q 660 156 697 238 q 550 30 622 74 q 378 -14 478 -14 m 381 125 q 479 181 445 125 q 513 347 513 238 q 479 514 513 458 q 381 571 445 571 q 278 517 313 571 q 243 347 243 464 q 278 178 243 231 q 381 125 313 125 m 147 1021 l 331 1021 l 331 836 l 147 836 l 147 1021 m 425 1021 l 608 1021 l 608 836 l 425 836 l 425 1021 m 156 1264 l 600 1264 l 600 1138 l 156 1138 l 156 1264 z "},"ȱ":{"ha":756,"x_min":58,"x_max":697,"o":"m 378 -14 q 205 29 276 -14 q 96 153 133 72 q 58 347 58 234 q 97 542 58 460 q 209 666 135 623 q 383 708 282 708 q 555 664 484 708 q 661 539 625 620 q 697 347 697 458 q 660 156 697 238 q 550 30 622 74 q 378 -14 478 -14 m 381 125 q 479 181 445 125 q 513 347 513 238 q 479 514 513 458 q 381 571 445 571 q 278 517 313 571 q 243 347 243 464 q 278 178 243 231 q 381 125 313 125 m 281 989 l 475 989 l 475 804 l 281 804 l 281 989 m 156 1264 l 600 1264 l 600 1138 l 156 1138 l 156 1264 z "},"ọ":{"ha":756,"x_min":58,"x_max":697,"o":"m 378 -14 q 205 29 276 -14 q 96 153 133 72 q 58 347 58 234 q 97 542 58 460 q 209 666 135 623 q 383 708 282 708 q 555 664 484 708 q 661 539 625 620 q 697 347 697 458 q 660 156 697 238 q 550 30 622 74 q 378 -14 478 -14 m 381 125 q 479 181 445 125 q 513 347 513 238 q 479 514 513 458 q 381 571 445 571 q 278 517 313 571 q 243 347 243 464 q 278 178 243 231 q 381 125 313 125 m 286 -128 l 475 -128 l 475 -314 l 286 -314 l 286 -128 z "},"ò":{"ha":756,"x_min":58,"x_max":697,"o":"m 378 -14 q 205 29 276 -14 q 96 153 133 72 q 58 347 58 234 q 97 542 58 460 q 209 666 135 623 q 383 708 282 708 q 555 664 484 708 q 661 539 625 620 q 697 347 697 458 q 660 156 697 238 q 550 30 622 74 q 378 -14 478 -14 m 381 125 q 479 181 445 125 q 513 347 513 238 q 479 514 513 458 q 381 571 445 571 q 278 517 313 571 q 243 347 243 464 q 278 178 243 231 q 381 125 313 125 m 125 1085 l 314 1085 l 450 804 l 299 804 l 125 1085 z "},"ỏ":{"ha":756,"x_min":58,"x_max":697,"o":"m 378 -14 q 205 29 276 -14 q 96 153 133 72 q 58 347 58 234 q 97 542 58 460 q 209 666 135 623 q 383 708 282 708 q 555 664 484 708 q 661 539 625 620 q 697 347 697 458 q 660 156 697 238 q 550 30 622 74 q 378 -14 478 -14 m 381 125 q 479 181 445 125 q 513 347 513 238 q 479 514 513 458 q 381 571 445 571 q 278 517 313 571 q 243 347 243 464 q 278 178 243 231 q 381 125 313 125 m 393 799 q 350 801 367 799 q 308 811 333 804 l 286 881 q 328 876 305 876 q 394 892 367 876 q 421 943 421 907 q 410 973 421 958 q 379 995 399 987 q 333 1004 359 1004 q 291 997 313 1004 q 240 975 270 990 l 211 1061 q 248 1084 222 1072 q 307 1105 274 1097 q 372 1114 340 1114 q 460 1099 417 1114 q 534 1049 503 1085 q 564 956 564 1014 q 543 882 564 918 q 484 822 523 845 q 393 799 445 799 z "},"ơ":{"ha":772,"x_min":58,"x_max":778,"o":"m 778 743 q 757 673 778 706 q 702 618 736 640 q 631 592 669 597 q 697 347 697 499 q 660 156 697 238 q 550 30 622 74 q 378 -14 478 -14 q 205 29 276 -14 q 96 153 133 72 q 58 347 58 234 q 97 542 58 460 q 209 666 135 623 q 383 708 282 708 q 532 676 468 708 q 615 702 588 678 q 642 774 642 726 q 640 813 642 800 q 631 843 638 825 l 768 843 q 776 805 774 826 q 778 743 778 784 m 381 125 q 479 181 445 125 q 513 347 513 238 q 479 514 513 458 q 381 571 445 571 q 278 517 313 571 q 243 347 243 464 q 278 178 243 231 q 381 125 313 125 z "},"ớ":{"ha":772,"x_min":58,"x_max":778,"o":"m 461 804 l 310 804 l 446 1085 l 635 1085 l 461 804 m 778 743 q 757 673 778 706 q 702 618 736 640 q 631 592 669 597 q 697 347 697 499 q 660 156 697 238 q 550 30 622 74 q 378 -14 478 -14 q 205 29 276 -14 q 96 153 133 72 q 58 347 58 234 q 97 542 58 460 q 209 666 135 623 q 383 708 282 708 q 532 676 468 708 q 615 702 588 678 q 642 774 642 726 q 640 813 642 800 q 631 843 638 825 l 768 843 q 776 805 774 826 q 778 743 778 784 m 381 125 q 479 181 445 125 q 513 347 513 238 q 479 514 513 458 q 381 571 445 571 q 278 517 313 571 q 243 347 243 464 q 278 178 243 231 q 381 125 313 125 z "},"ợ":{"ha":772,"x_min":58,"x_max":778,"o":"m 778 743 q 757 673 778 706 q 702 618 736 640 q 631 592 669 597 q 697 347 697 499 q 660 156 697 238 q 550 30 622 74 q 378 -14 478 -14 q 205 29 276 -14 q 96 153 133 72 q 58 347 58 234 q 97 542 58 460 q 209 666 135 623 q 383 708 282 708 q 532 676 468 708 q 615 702 588 678 q 642 774 642 726 q 640 813 642 800 q 631 843 638 825 l 768 843 q 776 805 774 826 q 778 743 778 784 m 381 125 q 479 181 445 125 q 513 347 513 238 q 479 514 513 458 q 381 571 445 571 q 278 517 313 571 q 243 347 243 464 q 278 178 243 231 q 381 125 313 125 m 292 -128 l 481 -128 l 481 -314 l 292 -314 l 292 -128 z "},"ờ":{"ha":772,"x_min":58,"x_max":778,"o":"m 303 804 l 129 1085 l 318 1085 l 454 804 l 303 804 m 778 743 q 757 673 778 706 q 702 618 736 640 q 631 592 669 597 q 697 347 697 499 q 660 156 697 238 q 550 30 622 74 q 378 -14 478 -14 q 205 29 276 -14 q 96 153 133 72 q 58 347 58 234 q 97 542 58 460 q 209 666 135 623 q 383 708 282 708 q 532 676 468 708 q 615 702 588 678 q 642 774 642 726 q 640 813 642 800 q 631 843 638 825 l 768 843 q 776 805 774 826 q 778 743 778 784 m 381 125 q 479 181 445 125 q 513 347 513 238 q 479 514 513 458 q 381 571 445 571 q 278 517 313 571 q 243 347 243 464 q 278 178 243 231 q 381 125 313 125 z "},"ở":{"ha":772,"x_min":58,"x_max":778,"o":"m 338 1004 q 296 997 317 1004 q 244 975 274 990 l 215 1061 q 252 1084 226 1072 q 311 1105 278 1097 q 376 1114 344 1114 q 464 1099 421 1114 q 538 1049 508 1085 q 568 956 568 1014 q 548 882 568 918 q 488 822 527 845 q 397 799 449 799 q 354 801 372 799 q 313 811 337 804 l 290 881 q 332 876 309 876 q 398 892 371 876 q 425 943 425 907 q 414 973 425 958 q 383 995 403 987 q 338 1004 363 1004 m 778 743 q 757 673 778 706 q 702 618 736 640 q 631 592 669 597 q 697 347 697 499 q 660 156 697 238 q 550 30 622 74 q 378 -14 478 -14 q 205 29 276 -14 q 96 153 133 72 q 58 347 58 234 q 97 542 58 460 q 209 666 135 623 q 383 708 282 708 q 532 676 468 708 q 615 702 588 678 q 642 774 642 726 q 640 813 642 800 q 631 843 638 825 l 768 843 q 776 805 774 826 q 778 743 778 784 m 381 125 q 479 181 445 125 q 513 347 513 238 q 479 514 513 458 q 381 571 445 571 q 278 517 313 571 q 243 347 243 464 q 278 178 243 231 q 381 125 313 125 z "},"ỡ":{"ha":772,"x_min":58,"x_max":778,"o":"m 286 885 q 241 868 262 885 q 206 815 219 851 l 128 875 q 194 972 154 935 q 289 1008 235 1008 q 358 997 333 1008 q 404 964 383 985 q 437 939 422 947 q 478 931 452 931 q 524 950 504 931 q 551 1006 544 969 l 636 943 q 608 877 631 909 q 550 824 585 844 q 475 804 515 804 q 408 816 433 804 q 358 850 383 828 q 324 876 340 867 q 286 885 308 885 m 778 743 q 757 673 778 706 q 702 618 736 640 q 631 592 669 597 q 697 347 697 499 q 660 156 697 238 q 550 30 622 74 q 378 -14 478 -14 q 205 29 276 -14 q 96 153 133 72 q 58 347 58 234 q 97 542 58 460 q 209 666 135 623 q 383 708 282 708 q 532 676 468 708 q 615 702 588 678 q 642 774 642 726 q 640 813 642 800 q 631 843 638 825 l 768 843 q 776 805 774 826 q 778 743 778 784 m 381 125 q 479 181 445 125 q 513 347 513 238 q 479 514 513 458 q 381 571 445 571 q 278 517 313 571 q 243 347 243 464 q 278 178 243 231 q 381 125 313 125 z "},"ő":{"ha":756,"x_min":58,"x_max":719,"o":"m 378 -14 q 205 29 276 -14 q 96 153 133 72 q 58 347 58 234 q 97 542 58 460 q 209 666 135 623 q 383 708 282 708 q 555 664 484 708 q 661 539 625 620 q 697 347 697 458 q 660 156 697 238 q 550 30 622 74 q 378 -14 478 -14 m 381 125 q 479 181 445 125 q 513 347 513 238 q 479 514 513 458 q 381 571 445 571 q 278 517 313 571 q 243 347 243 464 q 278 178 243 231 q 381 125 313 125 m 278 1085 l 429 1085 l 281 804 l 160 804 l 278 1085 m 569 1085 l 719 1085 l 571 804 l 450 804 l 569 1085 z "},"ȏ":{"ha":756,"x_min":58,"x_max":697,"o":"m 378 -14 q 205 29 276 -14 q 96 153 133 72 q 58 347 58 234 q 97 542 58 460 q 209 666 135 623 q 383 708 282 708 q 555 664 484 708 q 661 539 625 620 q 697 347 697 458 q 660 156 697 238 q 550 30 622 74 q 378 -14 478 -14 m 381 125 q 479 181 445 125 q 513 347 513 238 q 479 514 513 458 q 381 571 445 571 q 278 517 313 571 q 243 347 243 464 q 278 178 243 231 q 381 125 313 125 m 144 804 q 174 940 144 884 q 256 1024 203 996 q 378 1053 308 1053 q 500 1025 447 1053 q 582 941 552 997 q 611 804 611 885 l 483 804 q 459 902 481 869 q 378 936 437 936 q 296 903 319 936 q 271 804 273 871 l 144 804 z "},"ō":{"ha":756,"x_min":58,"x_max":697,"o":"m 378 -14 q 205 29 276 -14 q 96 153 133 72 q 58 347 58 234 q 97 542 58 460 q 209 666 135 623 q 383 708 282 708 q 555 664 484 708 q 661 539 625 620 q 697 347 697 458 q 660 156 697 238 q 550 30 622 74 q 378 -14 478 -14 m 381 125 q 479 181 445 125 q 513 347 513 238 q 479 514 513 458 q 381 571 445 571 q 278 517 313 571 q 243 347 243 464 q 278 178 243 231 q 381 125 313 125 m 156 946 l 600 946 l 600 819 l 156 819 l 156 946 z "},"ṓ":{"ha":756,"x_min":58,"x_max":697,"o":"m 378 -14 q 205 29 276 -14 q 96 153 133 72 q 58 347 58 234 q 97 542 58 460 q 209 666 135 623 q 383 708 282 708 q 555 664 484 708 q 661 539 625 620 q 697 347 697 458 q 660 156 697 238 q 550 30 622 74 q 378 -14 478 -14 m 381 125 q 479 181 445 125 q 513 347 513 238 q 479 514 513 458 q 381 571 445 571 q 278 517 313 571 q 243 347 243 464 q 278 178 243 231 q 381 125 313 125 m 156 946 l 600 946 l 600 819 l 156 819 l 156 946 m 442 1347 l 631 1347 l 457 1067 l 306 1067 l 442 1347 z "},"ṑ":{"ha":756,"x_min":58,"x_max":697,"o":"m 378 -14 q 205 29 276 -14 q 96 153 133 72 q 58 347 58 234 q 97 542 58 460 q 209 666 135 623 q 383 708 282 708 q 555 664 484 708 q 661 539 625 620 q 697 347 697 458 q 660 156 697 238 q 550 30 622 74 q 378 -14 478 -14 m 381 125 q 479 181 445 125 q 513 347 513 238 q 479 514 513 458 q 381 571 445 571 q 278 517 313 571 q 243 347 243 464 q 278 178 243 231 q 381 125 313 125 m 156 946 l 600 946 l 600 819 l 156 819 l 156 946 m 125 1347 l 314 1347 l 450 1067 l 299 1067 l 125 1347 z "},"ǫ":{"ha":756,"x_min":58,"x_max":697,"o":"m 476 -1 q 394 -70 424 -30 q 364 -150 364 -110 q 385 -195 364 -183 q 442 -207 406 -207 q 478 -203 463 -207 q 518 -186 493 -199 l 518 -311 q 401 -333 474 -333 q 249 -293 303 -333 q 194 -178 194 -252 q 223 -84 194 -132 q 301 -7 251 -35 q 121 108 184 16 q 58 347 58 200 q 97 542 58 460 q 209 666 135 623 q 383 708 282 708 q 555 664 484 708 q 661 539 625 620 q 697 347 697 458 q 640 119 697 210 q 476 -1 583 28 m 243 347 q 278 178 243 231 q 381 125 313 125 q 479 181 445 125 q 513 347 513 238 q 479 514 513 458 q 381 571 445 571 q 278 517 313 571 q 243 347 243 464 z "},"ø":{"ha":768,"x_min":57,"x_max":696,"o":"m 618 607 q 676 494 656 560 q 696 347 696 428 q 658 156 696 238 q 549 30 621 74 q 376 -14 477 -14 q 218 21 285 -14 l 150 -85 l 68 -29 l 140 82 q 57 347 57 177 q 95 542 57 460 q 207 666 134 623 q 382 708 281 708 q 541 671 474 708 l 613 781 l 694 728 l 618 607 m 379 571 q 277 517 312 571 q 242 347 242 464 q 260 211 242 263 l 459 539 q 379 571 428 571 m 379 125 q 477 181 444 125 q 511 347 511 238 q 497 468 511 419 l 298 152 q 379 125 329 125 z "},"ǿ":{"ha":768,"x_min":57,"x_max":696,"o":"m 461 804 l 310 804 l 446 1085 l 635 1085 l 461 804 m 618 607 q 676 494 656 560 q 696 347 696 428 q 658 156 696 238 q 549 30 621 74 q 376 -14 477 -14 q 218 21 285 -14 l 150 -85 l 68 -29 l 140 82 q 57 347 57 177 q 95 542 57 460 q 207 666 134 623 q 382 708 281 708 q 541 671 474 708 l 613 781 l 694 728 l 618 607 m 379 571 q 277 517 312 571 q 242 347 242 464 q 260 211 242 263 l 459 539 q 379 571 428 571 m 379 125 q 477 181 444 125 q 511 347 511 238 q 497 468 511 419 l 298 152 q 379 125 329 125 z "},"õ":{"ha":756,"x_min":58,"x_max":697,"o":"m 378 -14 q 205 29 276 -14 q 96 153 133 72 q 58 347 58 234 q 97 542 58 460 q 209 666 135 623 q 383 708 282 708 q 555 664 484 708 q 661 539 625 620 q 697 347 697 458 q 660 156 697 238 q 550 30 622 74 q 378 -14 478 -14 m 381 125 q 479 181 445 125 q 513 347 513 238 q 479 514 513 458 q 381 571 445 571 q 278 517 313 571 q 243 347 243 464 q 278 178 243 231 q 381 125 313 125 m 471 804 q 404 816 429 804 q 354 850 378 828 q 320 876 335 867 q 282 885 304 885 q 236 868 258 885 q 201 815 215 851 l 124 875 q 190 972 150 935 q 285 1008 231 1008 q 354 997 328 1008 q 400 964 379 985 q 433 939 417 947 q 474 931 448 931 q 520 950 500 931 q 547 1006 540 969 l 632 943 q 604 877 627 909 q 545 824 581 844 q 471 804 510 804 z "},"ṍ":{"ha":756,"x_min":58,"x_max":697,"o":"m 378 -14 q 205 29 276 -14 q 96 153 133 72 q 58 347 58 234 q 97 542 58 460 q 209 666 135 623 q 383 708 282 708 q 555 664 484 708 q 661 539 625 620 q 697 347 697 458 q 660 156 697 238 q 550 30 622 74 q 378 -14 478 -14 m 381 125 q 479 181 445 125 q 513 347 513 238 q 479 514 513 458 q 381 571 445 571 q 278 517 313 571 q 243 347 243 464 q 278 178 243 231 q 381 125 313 125 m 471 804 q 404 816 429 804 q 354 850 378 828 q 320 876 335 867 q 282 885 304 885 q 236 868 258 885 q 201 815 215 851 l 124 875 q 190 972 150 935 q 285 1008 231 1008 q 354 997 328 1008 q 400 964 379 985 q 433 939 417 947 q 474 931 448 931 q 520 950 500 931 q 547 1006 540 969 l 632 943 q 604 877 627 909 q 545 824 581 844 q 471 804 510 804 m 442 1375 l 631 1375 l 457 1094 l 306 1094 l 442 1375 z "},"ṏ":{"ha":756,"x_min":58,"x_max":697,"o":"m 378 -14 q 205 29 276 -14 q 96 153 133 72 q 58 347 58 234 q 97 542 58 460 q 209 666 135 623 q 383 708 282 708 q 555 664 484 708 q 661 539 625 620 q 697 347 697 458 q 660 156 697 238 q 550 30 622 74 q 378 -14 478 -14 m 381 125 q 479 181 445 125 q 513 347 513 238 q 479 514 513 458 q 381 571 445 571 q 278 517 313 571 q 243 347 243 464 q 278 178 243 231 q 381 125 313 125 m 471 804 q 404 816 429 804 q 354 850 378 828 q 320 876 335 867 q 282 885 304 885 q 236 868 258 885 q 201 815 215 851 l 124 875 q 190 972 150 935 q 285 1008 231 1008 q 354 997 328 1008 q 400 964 379 985 q 433 939 417 947 q 474 931 448 931 q 520 950 500 931 q 547 1006 540 969 l 632 943 q 604 877 627 909 q 545 824 581 844 q 471 804 510 804 m 147 1311 l 331 1311 l 331 1126 l 147 1126 l 147 1311 m 425 1311 l 608 1311 l 608 1126 l 425 1126 l 425 1311 z "},"ȭ":{"ha":756,"x_min":58,"x_max":697,"o":"m 378 -14 q 205 29 276 -14 q 96 153 133 72 q 58 347 58 234 q 97 542 58 460 q 209 666 135 623 q 383 708 282 708 q 555 664 484 708 q 661 539 625 620 q 697 347 697 458 q 660 156 697 238 q 550 30 622 74 q 378 -14 478 -14 m 381 125 q 479 181 445 125 q 513 347 513 238 q 479 514 513 458 q 381 571 445 571 q 278 517 313 571 q 243 347 243 464 q 278 178 243 231 q 381 125 313 125 m 471 804 q 404 816 429 804 q 354 850 378 828 q 320 876 335 867 q 282 885 304 885 q 236 868 258 885 q 201 815 215 851 l 124 875 q 190 972 150 935 q 285 1008 231 1008 q 354 997 328 1008 q 400 964 379 985 q 433 939 417 947 q 474 931 448 931 q 520 950 500 931 q 547 1006 540 969 l 632 943 q 604 877 627 909 q 545 824 581 844 q 471 804 510 804 m 156 1236 l 600 1236 l 600 1110 l 156 1110 l 156 1236 z "},"œ":{"ha":1178,"x_min":58,"x_max":1117,"o":"m 1117 354 q 1115 289 1117 310 l 697 289 q 744 161 701 205 q 869 117 787 117 q 962 136 913 117 q 1035 182 1011 155 l 1090 50 q 840 -15 992 -15 q 594 104 667 -15 q 507 17 561 49 q 378 -14 453 -14 q 205 29 276 -14 q 96 153 133 72 q 58 347 58 234 q 97 542 58 460 q 209 666 135 623 q 383 708 282 708 q 519 677 465 708 q 604 588 574 647 q 700 677 642 645 q 838 708 758 708 q 1052 618 987 708 q 1117 354 1117 527 m 942 399 q 916 538 942 500 q 842 576 890 576 q 737 526 774 576 q 696 397 700 476 l 942 399 m 381 125 q 510 347 510 125 q 477 515 510 458 q 381 571 445 571 q 277 517 313 571 q 242 347 242 464 q 277 178 242 231 q 381 125 313 125 z "},"p":{"ha":781,"x_min":106,"x_max":721,"o":"m 106 692 l 271 692 l 271 669 l 257 572 q 295 642 265 611 q 367 692 324 674 q 457 710 410 710 q 656 616 590 710 q 721 356 721 523 q 686 152 721 237 q 589 24 651 68 q 443 -19 526 -19 q 323 25 371 -19 q 257 138 275 70 l 274 7 l 274 -303 l 106 -303 l 106 692 m 403 118 q 469 142 438 118 q 519 217 500 165 q 539 349 539 269 q 521 472 539 423 q 473 545 503 522 q 406 568 442 568 q 334 538 364 568 q 289 456 304 508 q 274 338 274 403 q 289 223 274 272 q 334 145 305 173 q 403 118 363 118 z "},"þ":{"ha":783,"x_min":108,"x_max":724,"o":"m 463 710 q 658 618 592 710 q 724 349 724 527 q 687 145 724 228 q 588 22 651 63 q 447 -19 526 -19 q 330 23 378 -19 q 263 129 281 65 l 276 7 l 276 -303 l 108 -303 l 108 1056 l 275 1056 l 275 692 l 261 572 q 304 648 272 617 q 378 694 336 679 q 463 710 421 710 m 407 118 q 474 142 443 118 q 523 217 504 165 q 542 349 542 269 q 524 472 542 423 q 476 545 506 522 q 410 568 447 568 q 338 538 368 568 q 293 456 308 508 q 278 338 278 403 q 293 223 278 272 q 338 145 309 173 q 407 118 367 118 z "},"q":{"ha":786,"x_min":60,"x_max":678,"o":"m 507 7 l 521 142 q 450 22 502 63 q 331 -19 398 -19 q 191 24 253 -19 q 95 150 130 67 q 60 344 60 232 q 95 550 60 469 q 194 670 131 631 q 340 708 257 708 q 461 670 414 708 q 521 572 508 633 l 521 692 l 678 692 l 675 -303 l 507 -303 l 507 7 m 375 118 q 439 142 410 118 q 486 216 469 165 q 504 342 504 266 q 473 510 504 451 q 379 568 442 568 q 312 547 343 568 q 261 475 281 525 q 242 344 242 425 q 259 219 242 270 q 306 143 276 169 q 375 118 336 118 z "},"r":{"ha":531,"x_min":96,"x_max":531,"o":"m 96 692 l 253 692 l 261 569 q 331 661 283 623 q 467 700 379 700 q 531 689 501 700 l 492 507 q 464 524 480 519 q 424 529 447 529 q 340 509 375 529 q 287 461 305 488 q 269 417 269 434 l 269 0 l 96 0 l 96 692 z "},"ŕ":{"ha":531,"x_min":96,"x_max":556,"o":"m 96 692 l 253 692 l 261 569 q 331 661 283 623 q 467 700 379 700 q 531 689 501 700 l 492 507 q 464 524 480 519 q 424 529 447 529 q 340 509 375 529 q 287 461 305 488 q 269 417 269 434 l 269 0 l 96 0 l 96 692 m 367 1085 l 556 1085 l 382 804 l 231 804 l 367 1085 z "},"ř":{"ha":531,"x_min":61,"x_max":544,"o":"m 96 692 l 253 692 l 261 569 q 331 661 283 623 q 467 700 379 700 q 531 689 501 700 l 492 507 q 464 524 480 519 q 424 529 447 529 q 340 509 375 529 q 287 461 305 488 q 269 417 269 434 l 269 0 l 96 0 l 96 692 m 544 1085 l 346 804 l 260 804 l 61 1085 l 200 1085 l 303 951 l 404 1085 l 544 1085 z "},"ŗ":{"ha":531,"x_min":86,"x_max":531,"o":"m 96 692 l 253 692 l 261 569 q 331 661 283 623 q 467 700 379 700 q 531 689 501 700 l 492 507 q 464 524 480 519 q 424 529 447 529 q 340 509 375 529 q 287 461 305 488 q 269 417 269 434 l 269 0 l 96 0 l 96 692 m 86 -382 q 95 -355 88 -378 q 110 -289 103 -331 q 117 -196 117 -246 q 115 -128 117 -151 l 289 -128 q 290 -147 290 -131 l 289 -186 q 278 -264 289 -229 q 256 -319 268 -298 q 226 -363 244 -340 q 214 -382 216 -376 l 86 -382 z "},"ȑ":{"ha":531,"x_min":-49,"x_max":531,"o":"m 96 692 l 253 692 l 261 569 q 331 661 283 623 q 467 700 379 700 q 531 689 501 700 l 492 507 q 464 524 480 519 q 424 529 447 529 q 340 509 375 529 q 287 461 305 488 q 269 417 269 434 l 269 0 l 96 0 l 96 692 m -49 1085 l 101 1085 l 231 804 l 110 804 l -49 1085 m 242 1085 l 393 1085 l 521 804 l 400 804 l 242 1085 z "},"ṛ":{"ha":531,"x_min":96,"x_max":531,"o":"m 96 692 l 253 692 l 261 569 q 331 661 283 623 q 467 700 379 700 q 531 689 501 700 l 492 507 q 464 524 480 519 q 424 529 447 529 q 340 509 375 529 q 287 461 305 488 q 269 417 269 434 l 269 0 l 96 0 l 96 692 m 101 -128 l 290 -128 l 290 -314 l 101 -314 l 101 -128 z "},"ȓ":{"ha":531,"x_min":69,"x_max":536,"o":"m 96 692 l 253 692 l 261 569 q 331 661 283 623 q 467 700 379 700 q 531 689 501 700 l 492 507 q 464 524 480 519 q 424 529 447 529 q 340 509 375 529 q 287 461 305 488 q 269 417 269 434 l 269 0 l 96 0 l 96 692 m 69 804 q 99 940 69 884 q 181 1024 128 996 q 303 1053 233 1053 q 425 1025 372 1053 q 507 941 477 997 q 536 804 536 885 l 408 804 q 384 902 406 869 q 303 936 362 936 q 221 903 244 936 q 196 804 198 871 l 69 804 z "},"ṟ":{"ha":531,"x_min":-26,"x_max":531,"o":"m 96 692 l 253 692 l 261 569 q 331 661 283 623 q 467 700 379 700 q 531 689 501 700 l 492 507 q 464 524 480 519 q 424 529 447 529 q 340 509 375 529 q 287 461 305 488 q 269 417 269 434 l 269 0 l 96 0 l 96 692 m -26 -128 l 418 -128 l 418 -254 l -26 -254 l -26 -128 z "},"s":{"ha":607,"x_min":56,"x_max":557,"o":"m 292 -12 q 136 12 192 -12 q 56 65 79 37 l 107 197 q 296 124 196 124 q 363 142 341 124 q 385 188 385 160 q 347 241 385 217 q 235 299 309 266 q 151 342 187 319 q 90 405 116 365 q 64 500 64 444 q 95 609 64 563 q 185 681 126 656 q 326 706 244 706 q 419 695 376 706 q 493 668 463 684 q 538 639 524 653 l 490 514 q 417 555 458 538 q 332 572 376 572 q 259 559 280 572 q 238 514 238 545 q 268 462 238 483 q 364 415 299 441 q 507 328 457 378 q 557 206 557 278 q 530 96 557 145 q 443 17 502 47 q 292 -12 383 -12 z "},"ś":{"ha":607,"x_min":56,"x_max":574,"o":"m 292 -12 q 136 12 192 -12 q 56 65 79 37 l 107 197 q 296 124 196 124 q 363 142 341 124 q 385 188 385 160 q 347 241 385 217 q 235 299 309 266 q 151 342 187 319 q 90 405 116 365 q 64 500 64 444 q 95 609 64 563 q 185 681 126 656 q 326 706 244 706 q 419 695 376 706 q 493 668 463 684 q 538 639 524 653 l 490 514 q 417 555 458 538 q 332 572 376 572 q 259 559 280 572 q 238 514 238 545 q 268 462 238 483 q 364 415 299 441 q 507 328 457 378 q 557 206 557 278 q 530 96 557 145 q 443 17 502 47 q 292 -12 383 -12 m 385 1085 l 574 1085 l 400 804 l 249 804 l 385 1085 z "}}}
